<?xml version="1.0" encoding="UTF-8"?>
<svg id="_Шар_1" data-name="Шар 1" xmlns="http://www.w3.org/2000/svg" viewBox="0 0 246.12 262.08">
  <defs>
    <style>
      .cls-1 {
        fill: #fff;
      }
    </style>
  </defs>
  <polygon class="cls-1" points="123.06 46.96 120.69 57.84 123.06 68.73 125.43 57.84 123.06 46.96"/>
  <polygon class="cls-1" points="123.06 90.49 125.43 79.61 123.06 68.73 120.69 79.61 123.06 90.49"/>
  <polygon class="cls-1" points="123.06 112.26 125.43 101.38 123.06 90.49 120.69 101.38 123.06 112.26"/>
  <polygon class="cls-1" points="91.9 77.08 88.52 66.46 81.02 58.23 84.41 68.84 91.9 77.08"/>
  <polygon class="cls-1" points="102.79 95.93 99.4 85.31 91.9 77.08 95.29 87.69 102.79 95.93"/>
  <polygon class="cls-1" points="113.67 114.78 110.28 104.17 102.79 95.93 106.17 106.54 113.67 114.78"/>
  <polygon class="cls-1" points="69.1 99.88 60.86 92.39 50.24 89 58.48 96.5 69.1 99.88"/>
  <polygon class="cls-1" points="87.95 110.77 79.71 103.27 69.1 99.88 77.33 107.38 87.95 110.77"/>
  <polygon class="cls-1" points="106.8 121.65 98.56 114.15 87.95 110.77 96.18 118.27 106.8 121.65"/>
  <polygon class="cls-1" points="60.75 131.04 49.86 128.67 38.98 131.04 49.86 133.42 60.75 131.04"/>
  <polygon class="cls-1" points="82.51 131.04 71.63 128.67 60.75 131.04 71.63 133.42 82.51 131.04"/>
  <polygon class="cls-1" points="104.28 131.04 93.4 128.67 82.51 131.04 93.4 133.42 104.28 131.04"/>
  <polygon class="cls-1" points="207.14 131.04 196.26 128.67 185.37 131.04 196.26 133.42 207.14 131.04"/>
  <polygon class="cls-1" points="163.61 131.04 174.49 133.42 185.37 131.04 174.49 128.67 163.61 131.04"/>
  <polygon class="cls-1" points="141.84 131.04 152.72 133.42 163.61 131.04 152.72 128.67 141.84 131.04"/>
  <polygon class="cls-1" points="187.64 96.5 195.88 89 185.26 92.39 177.02 99.88 187.64 96.5"/>
  <polygon class="cls-1" points="158.17 110.77 168.79 107.38 177.02 99.88 166.41 103.27 158.17 110.77"/>
  <polygon class="cls-1" points="149.96 118.27 158.2 110.77 147.59 114.15 139.35 121.65 149.96 118.27"/>
  <polygon class="cls-1" points="165.1 58.23 157.6 66.46 154.22 77.08 161.71 68.84 165.1 58.23"/>
  <polygon class="cls-1" points="150.83 87.69 154.22 77.08 146.72 85.31 143.33 95.93 150.83 87.69"/>
  <polygon class="cls-1" points="135.84 104.14 132.45 114.75 139.95 106.51 143.33 95.9 135.84 104.14"/>
  <path class="cls-1" d="m176.96,77.94c.2,0,.41-.08.56-.23l2.57-2.57c.31-.31.31-.82,0-1.13-.31-.31-.82-.31-1.13,0l-2.57,2.57c-.31.31-.31.82,0,1.13.15.16.36.23.56.23Z"/>
  <path class="cls-1" d="m166.37,88.53c.2,0,.41-.08.56-.23l5.3-5.3c.31-.31.31-.82,0-1.13-.31-.31-.82-.31-1.13,0l-5.3,5.3c-.31.31-.31.82,0,1.13.16.16.36.23.56.23Z"/>
  <path class="cls-1" d="m156.34,98.89l5.29-5.29c.31-.31.31-.82,0-1.13-.31-.31-.82-.31-1.13,0l-5.29,5.29c-.31.31-.31.82,0,1.13.15.16.36.23.56.23s.41-.08.56-.23Z"/>
  <path class="cls-1" d="m148.48,106.75l2.57-2.57c.31-.31.31-.82,0-1.13-.31-.31-.82-.31-1.13,0l-2.57,2.57c-.31.31-.31.82,0,1.13.16.16.36.23.56.23s.41-.08.56-.23Z"/>
  <path class="cls-1" d="m142.58,58.18c.07.02.14.03.21.03.35,0,.67-.24.77-.59l.94-3.51c.11-.42-.14-.86-.57-.98-.42-.11-.86.14-.98.57l-.94,3.51c-.11.42.14.86.57.98Z"/>
  <path class="cls-1" d="m134.83,87.12c.07.02.14.03.21.03.35,0,.67-.24.77-.59l1.94-7.23c.11-.42-.14-.86-.57-.98-.42-.11-.86.14-.98.57l-1.94,7.23c-.11.42.14.86.57.98Z"/>
  <path class="cls-1" d="m138.71,72.65c.07.02.14.03.21.03.35,0,.67-.24.77-.59l1.94-7.24c.11-.42-.14-.86-.57-.98-.42-.11-.86.14-.98.57l-1.94,7.23c-.11.42.14.86.57.98Z"/>
  <path class="cls-1" d="m131.95,97.86c.07.02.14.03.21.03.35,0,.67-.24.77-.59l.94-3.51c.11-.42-.14-.86-.57-.98-.42-.11-.86.14-.98.57l-.94,3.51c-.11.42.14.86.57.98Z"/>
  <path class="cls-1" d="m102.56,57.61c.1.36.42.59.77.59.07,0,.14,0,.21-.03.43-.12.68-.55.57-.98l-.94-3.51c-.12-.43-.56-.68-.98-.57-.43.12-.68.55-.57.98l.94,3.51Z"/>
  <path class="cls-1" d="m110.31,86.55c.1.36.42.59.77.59.07,0,.14,0,.21-.03.43-.12.68-.55.57-.98l-1.94-7.23c-.12-.43-.56-.68-.98-.57-.43.12-.68.55-.57.98l1.94,7.23Z"/>
  <path class="cls-1" d="m106.44,72.08c.1.36.42.59.77.59.07,0,.14,0,.21-.03.43-.12.68-.55.57-.98l-1.94-7.23c-.11-.43-.56-.68-.98-.57-.43.12-.68.55-.57.98l1.94,7.24Z"/>
  <path class="cls-1" d="m113.79,93.37c-.12-.43-.55-.68-.98-.57-.43.11-.68.55-.57.98l.94,3.51c.1.36.42.59.77.59.07,0,.14,0,.21-.03.43-.12.68-.55.57-.98l-.94-3.51Z"/>
  <path class="cls-1" d="m68.59,77.7c.16.16.36.23.56.23s.41-.08.56-.23c.31-.31.31-.82,0-1.13l-2.57-2.57c-.31-.31-.82-.31-1.13,0-.31.31-.31.82,0,1.13l2.57,2.57Z"/>
  <path class="cls-1" d="m79.19,88.29c.15.16.36.23.56.23s.41-.08.56-.23c.31-.31.31-.82,0-1.13l-5.3-5.3c-.31-.31-.82-.31-1.13,0-.31.31-.31.82,0,1.13l5.3,5.3Z"/>
  <path class="cls-1" d="m84.48,92.46c-.31.31-.31.82,0,1.13l5.3,5.3c.15.16.36.23.56.23s.41-.08.56-.23c.31-.31.31-.82,0-1.13l-5.3-5.3c-.31-.31-.82-.31-1.13,0Z"/>
  <path class="cls-1" d="m95.07,103.05c-.31.31-.31.82,0,1.13l2.57,2.57c.15.16.36.23.56.23s.41-.08.56-.23c.31-.31.31-.82,0-1.13l-2.57-2.57c-.31-.31-.82-.31-1.13,0Z"/>
  <path class="cls-1" d="m45.71,111.14l3.51.94c.07.02.14.03.21.03.35,0,.67-.24.77-.59.11-.42-.14-.86-.57-.98l-3.51-.94c-.42-.11-.86.14-.98.57-.11.42.14.86.57.98Z"/>
  <path class="cls-1" d="m71.34,116.36c-.42-.11-.86.14-.98.57-.11.42.14.86.57.98l7.23,1.94c.07.02.14.03.21.03.35,0,.67-.24.77-.59.11-.42-.14-.86-.57-.98l-7.23-1.94Z"/>
  <path class="cls-1" d="m56.87,112.48c-.42-.11-.86.14-.98.57-.11.42.14.86.57.98l7.23,1.94c.07.02.14.03.21.03.35,0,.67-.24.77-.59.11-.42-.14-.86-.57-.98l-7.23-1.94Z"/>
  <path class="cls-1" d="m85.8,120.23c-.42-.11-.86.14-.98.57-.11.42.14.86.57.98l3.51.94c.07.02.14.03.21.03.35,0,.67-.24.77-.59.11-.42-.14-.86-.57-.98l-3.51-.94Z"/>
  <path class="cls-1" d="m196.69,112.11c.07,0,.14,0,.21-.03l3.51-.94c.42-.12.68-.55.56-.98-.11-.42-.55-.67-.98-.56l-3.51.94c-.42.12-.68.55-.56.98.1.35.42.59.77.59Z"/>
  <path class="cls-1" d="m182.22,115.99c.07,0,.14,0,.21-.03l7.23-1.94c.43-.12.68-.55.57-.98-.11-.42-.56-.68-.98-.57l-7.23,1.94c-.43.12-.68.55-.57.98.1.36.42.59.77.59Z"/>
  <path class="cls-1" d="m167.76,119.86c.07,0,.14,0,.21-.03l7.23-1.94c.43-.12.68-.55.57-.98-.12-.42-.56-.68-.98-.57l-7.23,1.94c-.43.12-.68.55-.57.98.1.36.42.59.77.59Z"/>
  <path class="cls-1" d="m156.24,122.15c.1.36.42.59.77.59.07,0,.14,0,.21-.03l3.51-.94c.43-.11.68-.55.57-.98-.11-.43-.55-.68-.98-.57l-3.51.94c-.43.12-.68.55-.57.98Z"/>
  <polygon class="cls-1" points="123.06 215.12 125.43 204.24 123.06 193.35 120.69 204.24 123.06 215.12"/>
  <polygon class="cls-1" points="123.06 193.35 125.43 182.47 123.06 171.59 120.69 182.47 123.06 193.35"/>
  <polygon class="cls-1" points="123.06 149.82 120.69 160.7 123.06 171.59 125.43 160.7 123.06 149.82"/>
  <polygon class="cls-1" points="81.02 203.86 88.52 195.62 91.9 185.01 84.41 193.24 81.02 203.86"/>
  <polygon class="cls-1" points="95.29 174.39 91.9 185.01 99.4 176.77 102.79 166.16 95.29 174.39"/>
  <polygon class="cls-1" points="113.67 147.3 106.17 155.54 102.79 166.16 110.28 157.92 113.67 147.3"/>
  <polygon class="cls-1" points="58.48 165.58 50.24 173.08 60.86 169.7 69.1 162.2 58.48 165.58"/>
  <polygon class="cls-1" points="87.95 151.31 77.33 154.7 69.1 162.2 79.71 158.81 87.95 151.31"/>
  <polygon class="cls-1" points="106.8 140.43 96.18 143.82 87.95 151.31 98.56 147.93 106.8 140.43"/>
  <polygon class="cls-1" points="177.02 162.2 185.26 169.7 195.88 173.08 187.64 165.58 177.02 162.2"/>
  <polygon class="cls-1" points="158.17 151.31 166.41 158.81 177.02 162.2 168.79 154.7 158.17 151.31"/>
  <polygon class="cls-1" points="149.96 143.82 139.35 140.43 147.59 147.93 158.2 151.31 149.96 143.82"/>
  <polygon class="cls-1" points="154.22 185.01 157.6 195.62 165.1 203.86 161.71 193.24 154.22 185.01"/>
  <polygon class="cls-1" points="143.33 166.16 146.72 176.77 154.22 185.01 150.83 174.39 143.33 166.16"/>
  <polygon class="cls-1" points="135.84 157.94 143.33 166.18 139.95 155.57 132.45 147.33 135.84 157.94"/>
  <path class="cls-1" d="m177.53,184.38c-.15-.16-.36-.23-.56-.23s-.41.08-.56.23c-.31.31-.31.82,0,1.13l2.57,2.57c.31.31.82.31,1.13,0,.31-.31.31-.82,0-1.13l-2.57-2.57Z"/>
  <path class="cls-1" d="m166.93,173.79c-.15-.16-.36-.23-.56-.23s-.41.08-.56.23c-.31.31-.31.82,0,1.13l5.3,5.3c.31.31.82.31,1.13,0,.31-.31.31-.82,0-1.13l-5.3-5.3Z"/>
  <path class="cls-1" d="m155.22,164.32l5.29,5.29c.31.31.82.31,1.13,0,.31-.31.31-.82,0-1.13l-5.29-5.29c-.15-.16-.36-.23-.56-.23s-.41.08-.56.23c-.31.31-.31.82,0,1.13Z"/>
  <path class="cls-1" d="m147.91,155.09c-.2,0-.41.08-.56.23-.31.31-.31.82,0,1.13l2.57,2.57c.31.31.82.31,1.13,0,.31-.31.31-.82,0-1.13l-2.57-2.57c-.15-.16-.36-.23-.56-.23Z"/>
  <path class="cls-1" d="m143.56,204.47c-.1-.36-.42-.59-.77-.59-.07,0-.14,0-.21.03-.43.11-.68.55-.57.98l.94,3.51c.12.43.56.68.98.57.43-.12.68-.55.57-.98l-.94-3.51Z"/>
  <path class="cls-1" d="m135.81,175.53c-.1-.36-.42-.59-.77-.59-.07,0-.14,0-.21.03-.43.12-.68.55-.57.98l1.94,7.23c.12.42.56.67.98.57.43-.12.68-.55.57-.98l-1.94-7.23Z"/>
  <path class="cls-1" d="m139.68,190c-.1-.36-.42-.59-.77-.59-.07,0-.14,0-.21.03-.43.11-.68.55-.57.98l1.94,7.23c.12.42.56.68.98.57.43-.12.68-.55.57-.98l-1.94-7.24Z"/>
  <path class="cls-1" d="m132.93,164.78c-.1-.36-.42-.59-.77-.59-.07,0-.14,0-.21.03-.43.12-.68.55-.57.98l.94,3.51c.12.43.56.68.98.57.43-.12.68-.55.57-.98l-.94-3.51Z"/>
  <path class="cls-1" d="m103.54,203.9c-.07-.02-.14-.03-.21-.03-.35,0-.67.24-.77.59l-.94,3.51c-.11.42.14.86.57.98.42.11.86-.14.98-.57l.94-3.51c.11-.42-.14-.86-.57-.98Z"/>
  <path class="cls-1" d="m111.29,174.97c-.07-.02-.14-.03-.21-.03-.35,0-.67.24-.77.59l-1.94,7.23c-.11.42.14.86.57.98.42.11.86-.14.98-.57l1.94-7.23c.11-.42-.14-.86-.57-.98Z"/>
  <path class="cls-1" d="m107.41,189.43c-.07-.02-.14-.03-.21-.03-.35,0-.67.24-.77.59l-1.94,7.24c-.11.42.14.86.57.98.42.11.86-.14.98-.57l1.94-7.23c.11-.42-.14-.86-.57-.98Z"/>
  <path class="cls-1" d="m114.17,164.22c-.07-.02-.14-.03-.21-.03-.35,0-.67.24-.77.59l-.94,3.51c-.11.42.14.86.57.98.42.11.86-.14.98-.57l.94-3.51c.11-.42-.14-.86-.57-.98Z"/>
  <path class="cls-1" d="m69.16,184.15c-.2,0-.41.08-.56.23l-2.57,2.57c-.31.31-.31.82,0,1.13.31.31.82.31,1.13,0l2.57-2.57c.31-.31.31-.82,0-1.13-.15-.16-.36-.23-.56-.23Z"/>
  <path class="cls-1" d="m79.75,173.55c-.2,0-.41.08-.56.23l-5.3,5.3c-.31.31-.31.82,0,1.13.31.31.82.31,1.13,0l5.3-5.3c.31-.31.31-.82,0-1.13-.15-.16-.36-.23-.56-.23Z"/>
  <path class="cls-1" d="m89.78,163.2l-5.3,5.3c-.31.31-.31.82,0,1.13.31.31.82.31,1.13,0l5.3-5.3c.31-.31.31-.82,0-1.13-.15-.16-.36-.23-.56-.23s-.41.08-.56.23Z"/>
  <path class="cls-1" d="m97.64,155.33l-2.57,2.57c-.31.31-.31.82,0,1.13.31.31.82.31,1.13,0l2.57-2.57c.31-.31.31-.82,0-1.13-.16-.16-.36-.23-.56-.23s-.41.08-.56.23Z"/>
  <path class="cls-1" d="m49.43,149.97c-.07,0-.14,0-.21.03l-3.51.94c-.43.12-.68.55-.57.98.11.42.56.68.98.57l3.51-.94c.43-.12.68-.55.57-.98-.1-.36-.42-.59-.77-.59Z"/>
  <path class="cls-1" d="m78.37,142.22c-.07,0-.14,0-.21.03l-7.23,1.94c-.43.12-.68.55-.57.98.11.42.56.68.98.57l7.23-1.94c.43-.12.68-.55.57-.98-.1-.36-.42-.59-.77-.59Z"/>
  <path class="cls-1" d="m63.9,146.1c-.07,0-.14,0-.21.03l-7.23,1.94c-.43.11-.68.55-.57.98.12.42.56.68.98.57l7.23-1.94c.43-.12.68-.55.57-.98-.1-.36-.42-.59-.77-.59Z"/>
  <path class="cls-1" d="m89.11,139.34c-.07,0-.14,0-.21.03l-3.51.94c-.43.11-.68.55-.57.98.11.43.56.68.98.57l3.51-.94c.43-.12.68-.55.57-.98-.1-.36-.42-.59-.77-.59Z"/>
  <path class="cls-1" d="m200.41,150.94l-3.51-.94c-.07-.02-.14-.03-.21-.03-.35,0-.67.24-.77.59-.11.43.14.86.56.98l3.51.94c.43.11.86-.14.98-.56.11-.43-.14-.86-.56-.98Z"/>
  <path class="cls-1" d="m182.43,146.12c-.07-.02-.14-.03-.21-.03-.35,0-.67.24-.77.59-.11.42.14.86.57.98l7.23,1.94c.42.12.86-.14.98-.57.11-.42-.14-.86-.57-.98l-7.23-1.94Z"/>
  <path class="cls-1" d="m167.96,142.25c-.07-.02-.14-.03-.21-.03-.35,0-.67.24-.77.59-.11.42.14.86.57.98l7.23,1.94c.42.11.86-.14.98-.57.11-.42-.14-.86-.57-.98l-7.23-1.94Z"/>
  <path class="cls-1" d="m161.29,141.29c.11-.42-.14-.86-.57-.98l-3.51-.94c-.07-.02-.14-.03-.21-.03-.35,0-.67.24-.77.59-.11.42.14.86.57.98l3.51.94c.42.11.86-.14.98-.57Z"/>
</svg>