<?xml version="1.0" encoding="UTF-8"?>
<svg id="_Шар_1" data-name="Шар 1" xmlns="http://www.w3.org/2000/svg" viewBox="0 0 481.54 277.73">
  <defs>
    <style>
      .cls-1 {
        fill: #fff;
      }
    </style>
  </defs>
  <g>
    <g>
      <polygon class="cls-1" points="240.77 36.6 238.35 47.69 240.77 58.78 243.19 47.69 240.77 36.6"/>
      <polygon class="cls-1" points="238.35 69.87 240.77 80.96 243.19 69.87 240.77 58.78 238.35 69.87"/>
    </g>
    <polygon class="cls-1" points="240.77 80.96 238.35 92.05 240.77 103.14 243.19 92.05 240.77 80.96"/>
    <g>
      <polygon class="cls-1" points="197.93 48.08 201.38 58.9 209.02 67.29 205.57 56.48 197.93 48.08"/>
      <polygon class="cls-1" points="209.02 67.29 212.47 78.1 220.11 86.5 216.66 75.69 209.02 67.29"/>
      <polygon class="cls-1" points="220.11 86.5 223.56 97.31 231.2 105.71 227.75 94.89 220.11 86.5"/>
      <polygon class="cls-1" points="166.57 79.44 174.97 87.08 185.78 90.53 177.39 82.89 166.57 79.44"/>
      <polygon class="cls-1" points="185.78 90.53 194.18 98.17 204.99 101.62 196.59 93.98 185.78 90.53"/>
      <polygon class="cls-1" points="204.99 101.62 213.38 109.26 224.2 112.71 215.8 105.07 204.99 101.62"/>
      <polygon class="cls-1" points="155.09 122.28 166.18 124.7 177.27 122.28 166.18 119.86 155.09 122.28"/>
      <polygon class="cls-1" points="177.27 122.28 188.36 124.7 199.45 122.28 188.36 119.86 177.27 122.28"/>
      <polygon class="cls-1" points="199.45 122.28 210.54 124.7 221.63 122.28 210.54 119.86 199.45 122.28"/>
      <polygon class="cls-1" points="315.36 119.86 304.27 122.28 315.36 124.7 326.45 122.28 315.36 119.86"/>
      <polygon class="cls-1" points="282.09 122.28 293.18 124.7 304.27 122.28 293.18 119.86 282.09 122.28"/>
      <polygon class="cls-1" points="259.91 122.28 271 124.7 282.09 122.28 271 119.86 259.91 122.28"/>
      <polygon class="cls-1" points="314.97 79.44 304.16 82.89 295.76 90.53 306.58 87.08 314.97 79.44"/>
      <polygon class="cls-1" points="287.37 98.17 295.76 90.53 284.95 93.98 276.55 101.62 287.37 98.17"/>
      <polygon class="cls-1" points="276.58 101.62 265.76 105.07 257.37 112.71 268.18 109.26 276.58 101.62"/>
      <polygon class="cls-1" points="283.61 48.08 275.97 56.48 272.52 67.29 280.16 58.9 283.61 48.08"/>
      <polygon class="cls-1" points="269.07 78.1 272.52 67.29 264.88 75.69 261.43 86.5 269.07 78.1"/>
      <polygon class="cls-1" points="261.43 86.47 253.79 94.87 250.34 105.68 257.98 97.29 261.43 86.47"/>
    </g>
    <path class="cls-1" d="m295.7,68.17c.21,0,.42-.08.57-.24l2.62-2.62c.32-.32.32-.83,0-1.15-.32-.32-.83-.32-1.15,0l-2.62,2.62c-.32.32-.32.83,0,1.15.16.16.37.24.57.24Z"/>
    <path class="cls-1" d="m284.9,78.96c.21,0,.42-.08.57-.24l5.4-5.4c.32-.32.32-.83,0-1.15-.32-.32-.83-.32-1.15,0l-5.4,5.4c-.32.32-.32.83,0,1.15.16.16.37.24.57.24Z"/>
    <path class="cls-1" d="m274.11,89.75c.21,0,.42-.08.57-.24l5.4-5.4c.32-.32.32-.83,0-1.15-.32-.32-.83-.32-1.15,0l-5.4,5.4c-.32.32-.32.83,0,1.15.16.16.37.24.57.24Z"/>
    <path class="cls-1" d="m269.29,93.76c-.32-.32-.83-.32-1.15,0l-2.62,2.62c-.32.32-.32.83,0,1.15.16.16.37.24.57.24s.42-.08.57-.24l2.62-2.62c.32-.32.32-.83,0-1.15Z"/>
    <path class="cls-1" d="m260.67,48.03c.07.02.14.03.21.03.36,0,.69-.24.79-.6l.96-3.58c.12-.43-.14-.88-.58-1-.43-.11-.88.14-1,.58l-.96,3.58c-.12.43.14.88.58,1Z"/>
    <path class="cls-1" d="m255.16,68.58c-.43-.11-.88.14-1,.58l-1.98,7.37c-.12.43.14.88.58,1,.07.02.14.03.21.03.36,0,.69-.24.79-.6l1.98-7.37c.12-.43-.14-.88-.58-1Z"/>
    <path class="cls-1" d="m259.11,53.83c-.43-.11-.88.14-1,.58l-1.98,7.37c-.12.43.14.88.58,1,.07.02.14.03.21.03.36,0,.69-.24.79-.6l1.98-7.37c.12-.43-.14-.88-.58-1Z"/>
    <path class="cls-1" d="m251.21,83.32c-.43-.11-.88.14-1,.58l-.96,3.58c-.12.43.14.88.58,1,.07.02.14.03.21.03.36,0,.69-.24.79-.6l.96-3.58c.12-.43-.14-.88-.58-1Z"/>
    <path class="cls-1" d="m220.49,43.46c-.12-.43-.57-.69-1-.58-.43.12-.69.56-.58,1l.96,3.58c.1.36.43.6.79.6.07,0,.14,0,.21-.03.43-.12.69-.56.58-1l-.96-3.58Z"/>
    <path class="cls-1" d="m227.38,69.15c-.12-.43-.57-.69-1-.58-.43.12-.69.56-.58,1l1.98,7.37c.1.36.43.6.79.6.07,0,.14,0,.21-.03.43-.12.69-.56.58-1l-1.98-7.37Z"/>
    <path class="cls-1" d="m223.43,54.41c-.12-.43-.57-.69-1-.58-.43.12-.69.56-.58,1l1.98,7.37c.1.36.43.6.79.6.07,0,.14,0,.21-.03.43-.12.69-.56.58-1l-1.98-7.37Z"/>
    <path class="cls-1" d="m231.33,83.9c-.12-.43-.56-.69-1-.58-.43.12-.69.56-.58,1l.96,3.58c.1.36.43.6.79.6.07,0,.14,0,.21-.03.43-.12.69-.56.58-1l-.96-3.58Z"/>
    <path class="cls-1" d="m185.27,67.93c.16.16.37.24.57.24s.42-.08.57-.24c.32-.32.32-.83,0-1.15l-2.62-2.62c-.32-.32-.83-.32-1.15,0-.32.32-.32.83,0,1.15l2.62,2.62Z"/>
    <path class="cls-1" d="m196.06,78.72c.16.16.37.24.57.24s.42-.08.57-.24c.32-.32.32-.83,0-1.15l-5.4-5.4c-.32-.32-.83-.32-1.15,0-.32.32-.32.83,0,1.15l5.4,5.4Z"/>
    <path class="cls-1" d="m208,88.37l-5.4-5.4c-.32-.32-.83-.32-1.15,0-.32.32-.32.83,0,1.15l5.4,5.4c.16.16.37.24.57.24s.42-.08.57-.24c.32-.32.32-.83,0-1.15Z"/>
    <path class="cls-1" d="m216.02,96.38l-2.62-2.62c-.32-.32-.83-.32-1.15,0-.32.32-.32.83,0,1.15l2.62,2.62c.16.16.37.24.57.24s.42-.08.57-.24c.32-.32.32-.83,0-1.15Z"/>
    <path class="cls-1" d="m161.95,102l3.58.96c.07.02.14.03.21.03.36,0,.69-.24.79-.6.12-.43-.14-.88-.58-1l-3.58-.96c-.43-.11-.88.14-1,.58-.12.43.14.88.58,1Z"/>
    <path class="cls-1" d="m188.06,107.32c-.43-.11-.88.14-1,.58-.12.43.14.88.58,1l7.37,1.98c.07.02.14.03.21.03.36,0,.69-.24.79-.6.12-.43-.14-.88-.58-1l-7.37-1.98Z"/>
    <path class="cls-1" d="m173.32,103.37c-.42-.12-.88.14-1,.58-.12.43.14.88.58,1l7.37,1.98c.07.02.14.03.21.03.36,0,.69-.24.79-.6.12-.43-.14-.88-.58-1l-7.37-1.98Z"/>
    <path class="cls-1" d="m202.39,112.84l3.58.96c.07.02.14.03.21.03.36,0,.69-.24.79-.6.12-.43-.14-.88-.58-1l-3.58-.96c-.43-.11-.88.14-1,.58-.12.43.14.88.58,1Z"/>
    <path class="cls-1" d="m315.8,102.99c.07,0,.14,0,.21-.03l3.58-.96c.43-.12.69-.56.57-1-.12-.43-.56-.69-1-.57l-3.58.96c-.43.12-.69.56-.57,1,.1.36.43.6.79.6Z"/>
    <path class="cls-1" d="m301.06,106.94c.07,0,.14,0,.21-.03l7.37-1.98c.43-.12.69-.56.58-1-.12-.43-.57-.69-1-.58l-7.37,1.98c-.43.12-.69.56-.58,1,.1.36.43.6.79.6Z"/>
    <path class="cls-1" d="m286.32,110.89c.07,0,.14,0,.21-.03l7.37-1.98c.43-.12.69-.56.58-1-.12-.43-.57-.69-1-.58l-7.37,1.98c-.43.12-.69.56-.58,1,.1.36.43.6.79.6Z"/>
    <path class="cls-1" d="m279.73,111.84c-.12-.43-.56-.69-1-.58l-3.58.96c-.43.12-.69.56-.58,1,.1.36.43.6.79.6.07,0,.14,0,.21-.03l3.58-.96c.43-.12.69-.56.58-1Z"/>
  </g>
  <g>
    <path class="cls-1" d="m81.64,192.48l19.78-48.16h1.81l20.9,48.16h6.06v1.58h-22.58v-1.58h5.97l-7.52-17.38h-15.46l-7.2,17.38h5.05v1.58h-12.7v-1.58h5.89Zm9.46-19.07h14.31l-7.24-17.23-7.07,17.23Z"/>
    <path class="cls-1" d="m168.78,159.91c-.49-1.48-1.09-2.32-1.78-3.95-.69-1.64-1.59-3.14-2.69-4.5-1.1-1.37-2.47-2.49-4.1-3.36-1.64-.87-3.66-1.31-6.08-1.31-3.27,0-5.85.6-7.73,1.81-1.88,1.21-3.3,2.89-4.27,5.04-.96,2.15-1.58,4-1.85,6.98-.27,2.98-.4,6.24-.4,9.78,0,4.66.27,7.78.81,10.83.54,3.05,1.38,5.47,2.52,7.26,1.14,1.79,2.62,3.05,4.44,3.76,1.81.72,3.98,1.08,6.49,1.08,2.02,0,3.84-.4,5.48-1.21,1.64-.81,3.08-1.87,4.34-3.19,1.25-1.32,2.31-2.83,3.16-4.54.85-1.7,1.48-2.74,1.88-4.58h1.08v14.25h-1.08c-.23-.54-.49-.91-.81-1.11-.31-.2-.78-.3-1.41-.3-.54,0-1.23.12-2.08.37-.85.25-1.83.52-2.92.81-1.1.29-2.3.56-3.6.81-1.3.25-2.67.37-4.1.37-3.27,0-6.43-.64-9.48-1.92-3.05-1.28-5.72-3.02-8.03-5.24-2.31-2.22-4.16-4.83-5.55-7.83-1.39-3-2.08-6.25-2.08-9.75,0-3.81.77-7.26,2.32-10.35,1.55-3.09,3.53-5.73,5.95-7.93,2.42-2.19,5.12-3.89,8.1-5.07,2.98-1.19,5.9-1.78,8.77-1.78,1.43,0,2.77.13,4,.4,1.23.27,2.37.55,3.43.84,1.05.29,2.01.57,2.86.84.85.27,1.57.4,2.15.4.63,0,1.1-.08,1.41-.24.31-.16.54-.55.67-1.18h1.08v13.71h-.87Z"/>
    <path class="cls-1" d="m265.4,147.77c-1.79,0-4.63.25-5.98.74-1.34.49-2.09.55-3.1,1.45-1.01.9-1.89,1.97-2.65,3.23-.76,1.25-1.48,2.67-2.15,4.23h-.87v-11.22h36.09l-26.69,46.28h12.16c1.79,0,3.52-.25,5.18-.74,1.66-.49,2.73-.68,4.15-1.82s2.64-2.62,3.7-4.44c1.05-1.81,1.87-4.02,2.45-6.62h.87v15.19h-40.39l26.59-46.28h-9.34Z"/>
    <path class="cls-1" d="m297.16,159.91c1.55-3.09,3.53-5.73,5.95-7.93,2.42-2.19,5.13-3.89,8.13-5.07,3-1.19,5.94-1.78,8.8-1.78,3.09,0,6.15.58,9.17,1.75,3.02,1.17,5.71,2.82,8.07,4.97,2.35,2.15,4.26,4.76,5.71,7.83,1.46,3.07,2.18,6.53,2.18,10.38,0,3.36-.68,6.55-2.05,9.58-1.37,3.02-3.2,5.68-5.51,7.96-2.31,2.28-4.97,4.09-8,5.41-3.02,1.32-6.22,1.98-9.58,1.98s-6.5-.64-9.54-1.92c-3.05-1.28-5.72-3.02-8.03-5.24-2.31-2.22-4.16-4.83-5.55-7.83-1.39-3-2.08-6.25-2.08-9.75,0-3.81.77-7.26,2.32-10.35Zm9.44,21.94c.54,3.07,1.38,5.51,2.52,7.33,1.14,1.81,2.62,3.08,4.44,3.8,1.81.72,3.98,1.08,6.48,1.08,3.32,0,5.91-.62,7.8-1.85,1.88-1.23,3.29-2.93,4.23-5.11.94-2.17,1.53-4.75,1.78-7.73.25-2.98.37-6.22.37-9.71,0-3.14-.1-6.13-.3-8.97-.2-2.84-.77-5.35-1.71-7.53-.94-2.17-2.36-3.9-4.27-5.18-1.91-1.28-4.54-1.92-7.9-1.92-3.14,0-5.64.59-7.53,1.78-1.88,1.19-3.32,2.86-4.3,5.01-.99,2.15-1.64,4.7-1.95,7.66-.31,2.96-.47,6.21-.47,9.75,0,4.66.27,8.53.81,11.59Z"/>
    <path class="cls-1" d="m364.27,146.2l21.11,30.72h.13v-29.15h-4.91v-1.58h13.44v1.58h-6.18v46.28h-1.81l-28.97-41.81h-.13v40.24h4.91v1.58h-13.44v-1.58h6.18v-44.7h-6.18v-1.58h15.86Z"/>
    <path class="cls-1" d="m440.95,179.33c-.42,2.48-1.3,4.3-1.95,5.41-2.28,3.92-5.71,5.93-7.6,6.69-1.3.52-2.64.78-2.64.78-.93.17-1.91.26-2.94.26h-11.02v-44.7h10.69c1.31,0,3.37.2,5.58,1.24,3.55,1.68,5.32,4.52,5.98,5.75.62,1.15.95,2.19,1.14,2.92h.87v-11.49h-40.19v1.58h6.18v44.7h-6.18v1.58h42.95v-14.72h-.87Z"/>
    <path class="cls-1" d="m428.72,158.83c-.02.19-.05.45-.09.78-.09.65-.36,2.49-1.12,4.06-.27.56-1.2,2.49-3.22,3.63-1.34.76-2.8.82-5.72.96-1.56.07-2.85.04-3.76,0v1.4c.91-.04,2.21-.07,3.76,0,2.93.13,4.39.2,5.72.96,2.02,1.14,2.94,3.07,3.22,3.63.75,1.57,1.02,3.4,1.12,4.06.05.32.08.59.09.78h.87v-20.24h-.87Z"/>
    <path class="cls-1" d="m69.18,158.83c-.02.19-.05.45-.09.78-.09.65-.36,2.49-1.12,4.06-.27.56-1.2,2.49-3.22,3.63-1.34.76-2.8.82-5.72.96-1.56.07-2.85.04-3.76,0v1.4c.91-.04,2.21-.07,3.76,0,2.93.13,4.39.2,5.72.96,2.02,1.14,2.94,3.07,3.22,3.63.75,1.57,1.02,3.4,1.12,4.06.05.32.08.59.09.78h.87v-20.24h-.87Z"/>
    <path class="cls-1" d="m205.51,158.83c-.02.19-.05.45-.09.78-.09.65-.36,2.49-1.12,4.06-.27.56-1.2,2.49-3.22,3.63-1.34.76-2.8.82-5.72.96-1.56.07-2.85.04-3.76,0v1.4c.91-.04,2.21-.07,3.76,0,2.93.13,4.39.2,5.72.96,2.02,1.14,2.94,3.07,3.22,3.63.75,1.57,1.02,3.4,1.12,4.06.05.32.08.59.09.78h.87v-20.24h-.87Z"/>
    <path class="cls-1" d="m218.09,179.33c-.42,2.48-1.3,4.3-1.95,5.41-2.28,3.92-5.71,5.93-7.6,6.69-1.3.52-2.64.78-2.64.78-.93.17-1.91.26-2.94.26h-11.02v-44.7h10.69c1.31,0,3.37.2,5.58,1.24,3.55,1.68,5.32,4.52,5.98,5.75.62,1.15.95,2.19,1.14,2.92h.87v-11.49h-40.19v1.58h6.18v44.7h-6.18v1.58h42.95v-14.72h-.87Z"/>
    <path class="cls-1" d="m39.72,146.2v1.58h6.18v44.7h-6.18v1.58h22.18v-1.58h-6.25v-44.7h10.15c1.79,0,3.35.25,4.67.74,1.74.65,2.84,1.59,3.46,2.12,2.79,2.36,4.06,5.33,4.64,7.06h.87v-11.49h-39.72Z"/>
  </g>
  <g>
    <path class="cls-1" d="m186.36,228.12v1.75h-6.88v-1.75h2.38v-7.83h-1.86v-1.78h3.91v9.61h2.45Zm-2.45-14.29v2.46h-2.73v-2.46h2.73Z"/>
    <path class="cls-1" d="m206.5,220.35v9.52h-2.05v-9.52h-5.48v-1.82h12.97v1.82h-5.44Z"/>
    <path class="cls-1" d="m224.45,220.07l-7.33,9.8h-3.32v-11.34h2.03v9.72l7.33-9.72h3.32v11.34h-2.03v-9.8Z"/>
    <path class="cls-1" d="m251.84,226.15c-.1.71-.34,1.34-.71,1.87s-.84.98-1.42,1.34-1.23.62-1.98.8-1.54.27-2.4.27c-1.05,0-1.99-.13-2.83-.37-.84-.25-1.55-.63-2.15-1.15-.6-.51-1.05-1.16-1.38-1.95-.32-.78-.49-1.7-.5-2.76,0-1.05.16-1.98.48-2.77.32-.79.77-1.45,1.36-1.97.59-.52,1.31-.91,2.15-1.18.84-.26,1.78-.4,2.82-.4.86,0,1.66.09,2.41.28.75.19,1.42.46,2,.81.58.36,1.06.8,1.44,1.34.38.54.62,1.16.72,1.87h-2.18c-.09-.41-.26-.78-.51-1.09-.25-.31-.58-.58-.96-.79-.39-.21-.83-.38-1.33-.49-.5-.11-1.04-.17-1.61-.17-1.54.01-2.71.39-3.49,1.11s-1.19,1.87-1.22,3.42c.03,1.54.45,2.67,1.25,3.4s1.98,1.09,3.52,1.09c1.15,0,2.12-.21,2.9-.62.79-.41,1.27-1.05,1.44-1.9h2.16Z"/>
    <path class="cls-1" d="m259.39,225.7l-2.86,4.17h-2.49l3.21-4.37c-.77-.2-1.38-.57-1.81-1.12-.44-.55-.66-1.3-.68-2.26,0-.61.1-1.15.29-1.59.2-.45.47-.82.83-1.12.36-.3.78-.52,1.28-.66s1.04-.21,1.64-.21h7.97v11.34h-2.03v-4.17h-5.35Zm-2.58-3.55c0,.61.17,1.07.51,1.37.34.3.83.45,1.47.45h5.94v-3.68h-5.94c-.63,0-1.11.15-1.46.45s-.52.77-.52,1.41Z"/>
    <path class="cls-1" d="m282.75,226.11c-.33,1.43-1.07,2.48-2.22,3.16s-2.58,1.02-4.31,1.02c-1.05,0-1.99-.12-2.83-.36-.84-.24-1.55-.61-2.14-1.11s-1.04-1.13-1.36-1.9-.49-1.68-.5-2.74c0-1.05.16-1.97.48-2.75.32-.78.78-1.42,1.36-1.94s1.31-.89,2.15-1.14c.84-.25,1.78-.38,2.82-.38,1.72,0,3.16.34,4.33,1.02s1.92,1.74,2.24,3.18h-2.2c-.26-.86-.77-1.48-1.53-1.87-.76-.39-1.71-.59-2.86-.59-1.4.01-2.48.31-3.25.88-.77.57-1.24,1.5-1.4,2.78h6.64v1.76h-6.61c.19,1.2.67,2.07,1.45,2.62.78.55,1.85.82,3.22.82,1.16,0,2.11-.2,2.84-.59.73-.39,1.24-1.01,1.53-1.85h2.16Z"/>
    <path class="cls-1" d="m302.06,218.53v11.34h-16.68v-11.34h2.03v9.52h5.3v-9.52h2.01v9.52h5.3v-9.52h2.03Z"/>
  </g>
</svg>