<svg width="594" height="204" viewBox="0 0 594 204" fill="none" xmlns="http://www.w3.org/2000/svg">
<path d="M175.054 7.91993C174.867 9.03993 173.84 10.8133 171.974 13.2399C170.294 15.4799 168.334 17.6266 166.094 19.6799C161.987 23.2266 158.627 24.9999 156.014 24.9999C154.52 24.9999 153.307 24.5333 152.374 23.5999C151.627 22.6666 149.947 22.1999 147.334 22.1999C145.654 22.1999 142.48 22.0133 137.814 21.6399C133.334 21.0799 128.854 20.7999 124.374 20.7999C121.2 20.7999 117.747 20.8933 114.014 21.0799C110.28 21.2666 106.734 21.4533 103.374 21.6399C99.4537 22.0133 95.4404 22.2933 91.3337 22.4799L73.1337 76.2399C75.5604 75.8666 78.7337 75.5866 82.6537 75.3999C86.5737 75.2133 90.9604 75.1199 95.8137 75.1199C98.2404 75.1199 101.694 75.5866 106.174 76.5199C110.654 77.4533 115.04 79.4133 119.334 82.3999C123.627 85.3866 127.36 89.5866 130.534 94.9999C133.894 100.227 135.574 107.133 135.574 115.72C135.574 126.733 132.587 136.907 126.614 146.24C120.827 155.573 113.454 163.88 104.494 171.16C95.7204 178.44 86.2004 184.507 75.9337 189.36C65.6671 194.213 56.1471 197.667 47.3737 199.72C43.6404 200.653 39.5337 201.307 35.0537 201.68C30.7604 202.24 26.187 202.52 21.3337 202.52C14.2404 202.52 8.82703 201.773 5.0937 200.28C1.36036 198.787 -0.319616 196.733 0.0537172 194.12C0.427051 190.947 2.20036 188.333 5.37369 186.28C8.36036 184.04 10.6004 182.733 12.0937 182.36C14.707 186.84 18.2537 189.827 22.7337 191.32C27.2137 192.813 32.2537 193.56 37.8537 193.56C45.3204 193.56 53.3471 191.787 61.9337 188.24C70.7071 184.507 78.7337 179.467 86.0137 173.12C93.4804 166.587 99.6404 158.933 104.494 150.16C109.347 141.387 111.774 131.96 111.774 121.88C111.774 100.6 101.507 89.9599 80.9737 89.9599C78.547 89.9599 76.4004 90.1466 74.5337 90.5199C72.667 90.8933 70.8937 91.2666 69.2137 91.6399C67.3471 92.5733 65.4804 93.5999 63.6137 94.7199C61.747 95.6533 60.347 96.1199 59.4137 96.1199C57.9204 96.1199 56.7071 96.0266 55.7737 95.8399C54.8404 95.6533 54.3737 94.8133 54.3737 93.3199C54.3737 91.8266 54.6537 90.5199 55.2137 89.3999C55.9604 88.2799 56.5204 86.9733 56.8937 85.4799C57.4537 84.3599 58.2004 82.5866 59.1337 80.1599C60.067 77.5466 61.0937 74.5599 62.2137 71.1999C63.5204 67.6533 64.827 63.9199 66.1337 59.9999C67.627 55.8933 69.1204 51.7866 70.6137 47.6799C73.9737 38.3466 77.6137 27.9866 81.5337 16.5999C81.347 14.9199 81.7204 13.3333 82.6537 11.8399C83.5871 10.3466 84.8004 9.31993 86.2937 8.75992C87.6004 8.19993 88.8137 7.8266 89.9337 7.63994C91.0537 7.2666 92.7337 6.98659 94.9737 6.79993C99.267 6.42659 103.187 6.14659 106.734 5.95992C110.467 5.77326 114.014 5.5866 117.374 5.39993C120.92 5.21327 124.56 5.11994 128.294 5.11994C132.214 4.93326 136.414 4.83992 140.894 4.83992H159.374H169.734C173.28 4.83992 175.054 5.86659 175.054 7.91993Z" fill="url(#paint0_linear_150_60116)"/>
<path d="M307.982 41.5199C307.982 56.4533 304.341 72.6933 297.061 90.2399C289.968 107.787 280.635 125.427 269.061 143.16C255.435 164.067 241.715 179.28 227.902 188.8C214.275 198.32 201.208 203.08 188.702 203.08C182.168 203.08 176.942 201.867 173.022 199.44C169.102 197.2 166.022 194.12 163.782 190.2C161.728 186.093 160.328 181.333 159.582 175.92C158.835 170.32 158.462 164.253 158.462 157.72C158.462 150.627 160.048 141.667 163.222 130.84C166.582 120.013 171.248 108.627 177.222 96.6799C183.382 84.5466 190.661 72.5066 199.061 60.5599C207.461 48.4266 216.795 37.6933 227.061 28.3599C236.021 19.9599 243.768 14.1733 250.302 10.9999C257.022 7.82659 262.155 5.95992 265.702 5.39993C272.422 2.41326 279.328 0.919922 286.422 0.919922C290.715 0.919922 294.262 2.13326 297.061 4.55993C299.862 6.98659 302.008 10.1599 303.501 14.0799C305.181 17.8133 306.302 22.1066 306.862 26.9599C307.608 31.8133 307.982 36.6666 307.982 41.5199ZM284.742 49.0799C284.742 40.4933 283.715 33.2133 281.662 27.2399C279.608 21.2666 275.408 18.2799 269.061 18.2799C256.928 18.2799 245.728 22.7599 235.462 31.7199C225.382 40.6799 214.928 54.4933 204.102 73.1599C201.115 78.3866 198.222 84.6399 195.422 91.9199C192.808 99.1999 190.475 106.667 188.422 114.32C186.368 121.787 184.688 128.973 183.382 135.88C182.262 142.6 181.702 148.107 181.702 152.4C181.702 163.973 183.288 172.747 186.462 178.72C189.822 184.693 195.795 187.68 204.382 187.68C207.368 187.68 210.915 186.933 215.022 185.44C219.128 183.947 223.328 181.707 227.621 178.72C231.915 175.733 236.208 172.093 240.501 167.8C244.795 163.32 248.808 158.187 252.542 152.4C256.648 146.053 260.568 138.4 264.302 129.44C268.222 120.48 271.675 111.24 274.662 101.72C277.648 92.1999 280.075 82.8666 281.941 73.7199C283.808 64.3866 284.742 56.1733 284.742 49.0799Z" fill="url(#paint1_linear_150_60116)"/>
<path d="M450.989 41.5199C450.989 56.4533 447.349 72.6933 440.069 90.2399C432.976 107.787 423.643 125.427 412.069 143.16C398.443 164.067 384.723 179.28 370.909 188.8C357.283 198.32 344.216 203.08 331.709 203.08C325.176 203.08 319.949 201.867 316.029 199.44C312.109 197.2 309.029 194.12 306.789 190.2C304.736 186.093 303.336 181.333 302.589 175.92C301.843 170.32 301.469 164.253 301.469 157.72C301.469 150.627 303.056 141.667 306.229 130.84C309.589 120.013 314.256 108.627 320.229 96.6799C326.389 84.5466 333.669 72.5066 342.069 60.5599C350.469 48.4266 359.803 37.6933 370.069 28.3599C379.029 19.9599 386.776 14.1733 393.309 10.9999C400.029 7.82659 405.163 5.95992 408.709 5.39993C415.429 2.41326 422.336 0.919922 429.429 0.919922C433.723 0.919922 437.269 2.13326 440.069 4.55993C442.869 6.98659 445.016 10.1599 446.509 14.0799C448.189 17.8133 449.309 22.1066 449.869 26.9599C450.616 31.8133 450.989 36.6666 450.989 41.5199ZM427.749 49.0799C427.749 40.4933 426.723 33.2133 424.669 27.2399C422.616 21.2666 418.416 18.2799 412.069 18.2799C399.936 18.2799 388.736 22.7599 378.469 31.7199C368.389 40.6799 357.936 54.4933 347.109 73.1599C344.123 78.3866 341.229 84.6399 338.429 91.9199C335.816 99.1999 333.483 106.667 331.429 114.32C329.376 121.787 327.696 128.973 326.389 135.88C325.269 142.6 324.709 148.107 324.709 152.4C324.709 163.973 326.296 172.747 329.469 178.72C332.829 184.693 338.803 187.68 347.389 187.68C350.376 187.68 353.923 186.933 358.029 185.44C362.136 183.947 366.336 181.707 370.629 178.72C374.923 175.733 379.216 172.093 383.509 167.8C387.803 163.32 391.816 158.187 395.549 152.4C399.656 146.053 403.576 138.4 407.309 129.44C411.229 120.48 414.683 111.24 417.669 101.72C420.656 92.1999 423.083 82.8666 424.949 73.7199C426.816 64.3866 427.749 56.1733 427.749 49.0799Z" fill="url(#paint2_linear_150_60116)"/>
<path d="M593.997 41.5199C593.997 56.4533 590.357 72.6933 583.077 90.2399C575.984 107.787 566.651 125.427 555.077 143.16C541.451 164.067 527.731 179.28 513.917 188.8C500.29 198.32 487.224 203.08 474.717 203.08C468.184 203.08 462.957 201.867 459.037 199.44C455.117 197.2 452.037 194.12 449.797 190.2C447.744 186.093 446.344 181.333 445.597 175.92C444.85 170.32 444.477 164.253 444.477 157.72C444.477 150.627 446.064 141.667 449.237 130.84C452.597 120.013 457.264 108.627 463.237 96.6799C469.397 84.5466 476.677 72.5066 485.077 60.5599C493.477 48.4266 502.81 37.6933 513.077 28.3599C522.037 19.9599 529.784 14.1733 536.317 10.9999C543.037 7.82659 548.17 5.95992 551.717 5.39993C558.437 2.41326 565.344 0.919922 572.437 0.919922C576.731 0.919922 580.277 2.13326 583.077 4.55993C585.877 6.98659 588.024 10.1599 589.517 14.0799C591.197 17.8133 592.317 22.1066 592.877 26.9599C593.624 31.8133 593.997 36.6666 593.997 41.5199ZM570.757 49.0799C570.757 40.4933 569.731 33.2133 567.677 27.2399C565.624 21.2666 561.424 18.2799 555.077 18.2799C542.944 18.2799 531.744 22.7599 521.477 31.7199C511.397 40.6799 500.944 54.4933 490.117 73.1599C487.13 78.3866 484.237 84.6399 481.437 91.9199C478.824 99.1999 476.491 106.667 474.437 114.32C472.384 121.787 470.704 128.973 469.397 135.88C468.277 142.6 467.717 148.107 467.717 152.4C467.717 163.973 469.304 172.747 472.477 178.72C475.837 184.693 481.81 187.68 490.397 187.68C493.384 187.68 496.93 186.933 501.037 185.44C505.144 183.947 509.344 181.707 513.637 178.72C517.93 175.733 522.224 172.093 526.517 167.8C530.81 163.32 534.824 158.187 538.557 152.4C542.664 146.053 546.584 138.4 550.317 129.44C554.237 120.48 557.69 111.24 560.677 101.72C563.664 92.1999 566.091 82.8666 567.957 73.7199C569.824 64.3866 570.757 56.1733 570.757 49.0799Z" fill="url(#paint3_linear_150_60116)"/>
<defs>
<linearGradient id="paint0_linear_150_60116" x1="155.71" y1="15.6403" x2="199.558" y2="232.493" gradientUnits="userSpaceOnUse">
<stop stop-color="#D0B86F"/>
<stop offset="1" stop-color="#BD9436"/>
</linearGradient>
<linearGradient id="paint1_linear_150_60116" x1="155.71" y1="15.6403" x2="199.558" y2="232.493" gradientUnits="userSpaceOnUse">
<stop stop-color="#D0B86F"/>
<stop offset="1" stop-color="#BD9436"/>
</linearGradient>
<linearGradient id="paint2_linear_150_60116" x1="155.71" y1="15.6403" x2="199.558" y2="232.493" gradientUnits="userSpaceOnUse">
<stop stop-color="#D0B86F"/>
<stop offset="1" stop-color="#BD9436"/>
</linearGradient>
<linearGradient id="paint3_linear_150_60116" x1="155.71" y1="15.6403" x2="199.558" y2="232.493" gradientUnits="userSpaceOnUse">
<stop stop-color="#D0B86F"/>
<stop offset="1" stop-color="#BD9436"/>
</linearGradient>
</defs>
</svg>
