<svg width="613" height="629" viewBox="0 0 613 629" fill="none" xmlns="http://www.w3.org/2000/svg">
<g opacity="0.4">
<path d="M-104.946 110.903C-86.578 77.6484 -64.2786 44.1136 -31.6654 29.7143C11.0721 10.8588 60.6413 30.587 95.7341 63.1824C130.837 95.7676 155.546 139.697 184.236 179.286C212.935 218.864 248.58 256.12 293.444 266.607C355.645 281.142 419.009 241.074 482.439 246.573C535.32 251.163 584.46 290.138 605.423 344.157" stroke="#E5DBD1" stroke-miterlimit="10"/>
<path d="M-81.1859 138.858C-63.8155 107.402 -42.7139 75.6704 -11.867 62.0519C28.5637 44.2143 75.4522 62.8757 108.647 93.7095C141.861 124.544 165.226 166.094 192.362 203.541C219.499 240.987 253.235 276.227 295.67 286.141C354.524 299.896 414.451 261.985 474.454 267.198C524.476 271.54 570.967 308.413 590.792 359.51" stroke="#E5DBD1" stroke-miterlimit="10"/>
<path d="M-57.4256 166.812C-41.034 137.156 -21.1592 107.237 7.94047 94.4001C46.0644 77.5804 90.2723 95.1751 121.579 124.258C152.895 153.331 174.923 192.512 200.526 227.818C226.119 263.133 257.927 296.356 297.933 305.698C353.422 318.671 409.931 282.918 466.506 287.824C513.68 291.909 557.503 326.679 576.199 374.863" stroke="#E5DBD1" stroke-miterlimit="10"/>
<path d="M-33.6652 194.767C-18.2714 166.91 0.405537 138.794 27.7389 126.738C63.5561 110.936 105.083 127.464 134.492 154.785C163.911 182.097 184.612 218.9 208.652 252.073C232.693 285.246 262.573 316.453 300.158 325.233C352.282 337.425 405.374 303.829 458.52 308.449C502.836 312.287 544.011 344.954 561.567 390.216" stroke="#E5DBD1" stroke-miterlimit="10"/>
<path d="M-9.90462 222.722C4.50121 196.653 21.9796 170.362 47.5374 159.075C81.0387 144.281 119.894 159.753 147.406 185.312C174.927 210.862 194.292 245.297 216.779 276.327C239.267 307.358 267.228 336.56 302.393 344.778C351.161 356.179 400.835 324.762 450.554 329.074C492.012 332.665 530.537 363.23 546.955 405.569" stroke="#E5DBD1" stroke-miterlimit="10"/>
</g>
</svg>
