<svg width="504" height="427" viewBox="0 0 504 427" fill="none" xmlns="http://www.w3.org/2000/svg">
<g opacity="0.4">
<path d="M646.246 0.549955C656.106 37.7114 663.484 78.2326 651.006 114.218C634.644 161.365 587.729 188.101 542.003 194.512C496.278 200.938 449.992 191.358 403.918 187.905C357.845 184.467 308.615 188.192 271.102 217.341C219.095 257.756 202.972 335.796 156.199 383.274C117.202 422.852 57.6513 436.31 7.13342 416.928" stroke="#E5DBD1" stroke-miterlimit="10"/>
<path d="M611.371 0.865025C620.7 36.0129 627.681 74.3562 615.877 108.392C600.399 152.994 556.02 178.284 512.767 184.348C469.5 190.427 425.726 181.36 382.146 178.093C338.566 174.827 291.986 178.367 256.507 205.94C207.298 244.18 192.059 317.998 147.807 362.903C110.917 400.341 54.5778 413.075 6.79604 394.738" stroke="#E5DBD1" stroke-miterlimit="10"/>
<path d="M576.496 1.18032C585.281 34.3296 591.877 70.4652 580.736 102.566C566.14 144.624 524.299 168.467 483.504 174.184C442.709 179.916 401.433 171.362 360.333 168.297C319.233 165.217 275.316 168.556 241.872 194.555C195.473 230.604 181.107 300.215 139.389 342.561C104.606 377.875 51.4912 389.869 6.43206 372.577" stroke="#E5DBD1" stroke-miterlimit="10"/>
<path d="M541.62 1.49544C549.875 32.6312 556.074 66.5889 545.608 96.7404C531.895 136.253 492.591 158.651 454.268 164.02C415.945 169.404 377.168 161.378 338.56 158.485C299.953 155.592 258.701 158.73 227.277 183.154C183.689 217.013 170.194 282.417 130.997 322.19C98.3217 355.364 48.4174 366.633 6.0944 350.387" stroke="#E5DBD1" stroke-miterlimit="10"/>
<path d="M506.745 1.8108C514.47 30.9478 520.257 62.7128 510.479 90.9147C497.663 127.882 460.882 148.834 425.031 153.856C389.181 158.893 352.902 151.38 316.788 148.673C280.674 145.967 242.072 148.905 212.669 171.753C171.891 203.437 159.255 264.62 122.592 301.834C92.0237 332.868 45.3304 343.412 5.74354 328.211" stroke="#E5DBD1" stroke-miterlimit="10"/>
</g>
</svg>
