<svg width="32" height="32" viewBox="0 0 32 32" fill="none" xmlns="http://www.w3.org/2000/svg">
<g clip-path="url(#clip0_889_3360)">
<path d="M16 2.66699C8.63596 2.66699 2.66663 8.63633 2.66663 16.0003C2.66663 22.655 7.54262 28.171 13.9173 29.1723V19.8537H10.5306V16.0003H13.9173V13.063C13.9173 9.72166 15.9066 7.87633 18.9533 7.87633C20.412 7.87633 21.9373 8.13633 21.9373 8.13633V11.4163H20.2573C18.6 11.4163 18.084 12.4443 18.084 13.499V16.0003H21.7813L21.1906 19.8537H18.084V29.1723C24.4573 28.1723 29.3333 22.6537 29.3333 16.0003C29.3333 8.63633 23.364 2.66699 16 2.66699Z" fill="#D08F8A"/>
</g>
<defs>
<clipPath id="clip0_889_3360">
<rect width="32" height="32" fill="white"/>
</clipPath>
</defs>
</svg>
