<svg width="732" height="402" viewBox="0 0 732 402" fill="none" xmlns="http://www.w3.org/2000/svg">
<g opacity="0.4">
<path d="M53.0396 401.324C39.5379 365.813 28.3636 327.123 38.4567 292.931C51.6935 248.133 98.7865 223.062 146.34 217.354C193.893 211.632 243.384 221.172 292.135 224.87C340.885 228.554 392.352 225.437 429.352 197.983C480.647 159.917 491.031 85.6704 536.226 40.8252C573.908 3.44247 635.41 -8.86069 690.178 10.0604" stroke="#E5DBD1" stroke-miterlimit="10"/>
<path d="M89.7277 401.263C76.9537 367.677 66.3809 331.066 75.9281 298.726C88.4506 256.347 132.997 232.632 177.98 227.233C222.976 221.82 269.782 230.849 315.895 234.347C362.008 237.845 410.702 234.882 445.696 208.911C494.232 172.894 504.04 102.664 546.801 60.2497C582.448 24.888 640.633 13.2472 692.435 31.1478" stroke="#E5DBD1" stroke-miterlimit="10"/>
<path d="M126.416 401.202C114.382 369.526 104.4 335.022 113.414 304.521C125.222 264.56 167.221 242.201 209.648 237.111C252.073 232.008 296.208 240.525 339.696 243.81C383.185 247.108 429.095 244.312 462.081 219.825C507.846 185.871 517.091 119.643 557.402 79.6459C591.011 46.2911 645.867 35.3268 694.718 52.207" stroke="#E5DBD1" stroke-miterlimit="10"/>
<path d="M163.104 401.141C151.798 371.389 142.417 338.965 150.885 310.317C161.979 272.773 201.432 251.77 241.288 246.99C281.142 242.196 322.605 250.188 363.455 253.287C404.306 256.385 447.431 253.757 478.425 230.754C521.419 198.863 530.101 136.637 567.978 99.0705C599.551 67.7368 651.091 57.4349 696.975 73.2946" stroke="#E5DBD1" stroke-miterlimit="10"/>
<path d="M199.792 401.08C189.212 373.238 180.449 342.908 188.357 316.112C198.722 280.986 235.643 261.339 272.928 256.868C310.211 252.383 349.003 259.865 387.215 262.763C425.428 265.662 465.782 263.202 494.783 241.682C535.004 211.839 543.14 153.63 578.566 118.481C608.103 89.168 656.327 79.5285 699.245 94.3677" stroke="#E5DBD1" stroke-miterlimit="10"/>
</g>
</svg>
