<svg width="32" height="32" viewBox="0 0 32 32" fill="none" xmlns="http://www.w3.org/2000/svg">
<g clip-path="url(#clip0_889_3352)">
<path d="M16 2.66699C19.6226 2.66699 20.0746 2.68033 21.496 2.74699C22.916 2.81366 23.8826 3.03633 24.7333 3.36699C25.6133 3.70566 26.3546 4.16433 27.096 4.90433C27.774 5.57085 28.2986 6.37711 28.6333 7.26699C28.9626 8.11632 29.1866 9.08432 29.2533 10.5043C29.316 11.9257 29.3333 12.3777 29.3333 16.0003C29.3333 19.623 29.32 20.075 29.2533 21.4963C29.1866 22.9163 28.9626 23.883 28.6333 24.7337C28.2995 25.624 27.7748 26.4305 27.096 27.0963C26.4292 27.7741 25.623 28.2987 24.7333 28.6337C23.884 28.963 22.916 29.187 21.496 29.2537C20.0746 29.3163 19.6226 29.3337 16 29.3337C12.3773 29.3337 11.9253 29.3203 10.504 29.2537C9.08396 29.187 8.11729 28.963 7.26663 28.6337C6.37639 28.2996 5.57 27.7749 4.90396 27.0963C4.22583 26.4299 3.7012 25.6236 3.36663 24.7337C3.03596 23.8843 2.81329 22.9163 2.74663 21.4963C2.68396 20.075 2.66663 19.623 2.66663 16.0003C2.66663 12.3777 2.67996 11.9257 2.74663 10.5043C2.81329 9.08299 3.03596 8.11766 3.36663 7.26699C3.70027 6.37656 4.22503 5.57009 4.90396 4.90433C5.57019 4.22597 6.37653 3.7013 7.26663 3.36699C8.11729 3.03633 9.08263 2.81366 10.504 2.74699C11.9253 2.68433 12.3773 2.66699 16 2.66699ZM16 9.33366C14.2318 9.33366 12.5362 10.036 11.2859 11.2863C10.0357 12.5365 9.33329 14.2322 9.33329 16.0003C9.33329 17.7684 10.0357 19.4641 11.2859 20.7144C12.5362 21.9646 14.2318 22.667 16 22.667C17.7681 22.667 19.4638 21.9646 20.714 20.7144C21.9642 19.4641 22.6666 17.7684 22.6666 16.0003C22.6666 14.2322 21.9642 12.5365 20.714 11.2863C19.4638 10.036 17.7681 9.33366 16 9.33366ZM24.6666 9.00033C24.6666 8.5583 24.491 8.13437 24.1785 7.82181C23.8659 7.50925 23.442 7.33366 23 7.33366C22.5579 7.33366 22.134 7.50925 21.8214 7.82181C21.5089 8.13437 21.3333 8.5583 21.3333 9.00033C21.3333 9.44235 21.5089 9.86628 21.8214 10.1788C22.134 10.4914 22.5579 10.667 23 10.667C23.442 10.667 23.8659 10.4914 24.1785 10.1788C24.491 9.86628 24.6666 9.44235 24.6666 9.00033ZM16 12.0003C17.0608 12.0003 18.0782 12.4218 18.8284 13.1719C19.5785 13.922 20 14.9395 20 16.0003C20 17.0612 19.5785 18.0786 18.8284 18.8288C18.0782 19.5789 17.0608 20.0003 16 20.0003C14.9391 20.0003 13.9217 19.5789 13.1715 18.8288C12.4214 18.0786 12 17.0612 12 16.0003C12 14.9395 12.4214 13.922 13.1715 13.1719C13.9217 12.4218 14.9391 12.0003 16 12.0003Z" fill="#D08F8A"/>
</g>
<defs>
<clipPath id="clip0_889_3352">
<rect width="32" height="32" fill="white"/>
</clipPath>
</defs>
</svg>
