<?xml version="1.0" encoding="UTF-8"?>
<svg id="_Шар_1" data-name="Шар 1" xmlns="http://www.w3.org/2000/svg" xmlns:xlink="http://www.w3.org/1999/xlink" viewBox="0 0 472.56 260.04">
  <defs>
    <style>
      .cls-1 {
        fill: url(#_Градієнт_без_назви_66);
      }

      .cls-2 {
        fill: url(#_Градієнт_без_назви_66-42);
      }

      .cls-3 {
        fill: url(#_Градієнт_без_назви_66-43);
      }

      .cls-4 {
        fill: url(#_Градієнт_без_назви_66-26);
      }

      .cls-5 {
        fill: url(#_Градієнт_без_назви_66-23);
      }

      .cls-6 {
        fill: url(#_Градієнт_без_назви_66-24);
      }

      .cls-7 {
        fill: url(#_Градієнт_без_назви_66-21);
      }

      .cls-8 {
        fill: url(#_Градієнт_без_назви_66-22);
      }

      .cls-9 {
        fill: url(#_Градієнт_без_назви_66-27);
      }

      .cls-10 {
        fill: url(#_Градієнт_без_назви_66-28);
      }

      .cls-11 {
        fill: url(#_Градієнт_без_назви_66-25);
      }

      .cls-12 {
        fill: url(#_Градієнт_без_назви_66-32);
      }

      .cls-13 {
        fill: url(#_Градієнт_без_назви_66-33);
      }

      .cls-14 {
        fill: url(#_Градієнт_без_назви_66-39);
      }

      .cls-15 {
        fill: url(#_Градієнт_без_назви_66-38);
      }

      .cls-16 {
        fill: url(#_Градієнт_без_назви_66-37);
      }

      .cls-17 {
        fill: url(#_Градієнт_без_назви_66-36);
      }

      .cls-18 {
        fill: url(#_Градієнт_без_назви_66-35);
      }

      .cls-19 {
        fill: url(#_Градієнт_без_назви_66-34);
      }

      .cls-20 {
        fill: url(#_Градієнт_без_назви_66-14);
      }

      .cls-21 {
        fill: url(#_Градієнт_без_назви_66-13);
      }

      .cls-22 {
        fill: url(#_Градієнт_без_назви_66-16);
      }

      .cls-23 {
        fill: url(#_Градієнт_без_назви_66-15);
      }

      .cls-24 {
        fill: url(#_Градієнт_без_назви_66-12);
      }

      .cls-25 {
        fill: url(#_Градієнт_без_назви_66-11);
      }

      .cls-26 {
        fill: url(#_Градієнт_без_назви_66-10);
      }

      .cls-27 {
        fill: url(#_Градієнт_без_назви_66-18);
      }

      .cls-28 {
        fill: url(#_Градієнт_без_назви_66-17);
      }

      .cls-29 {
        fill: url(#_Градієнт_без_назви_66-19);
      }

      .cls-30 {
        fill: url(#_Градієнт_без_назви_66-29);
      }

      .cls-31 {
        fill: url(#_Градієнт_без_назви_66-50);
      }

      .cls-32 {
        fill: url(#_Градієнт_без_назви_66-54);
      }

      .cls-33 {
        fill: url(#_Градієнт_без_назви_66-55);
      }

      .cls-34 {
        fill: url(#_Градієнт_без_назви_66-56);
      }

      .cls-35 {
        fill: url(#_Градієнт_без_назви_66-53);
      }

      .cls-36 {
        fill: url(#_Градієнт_без_назви_66-52);
      }

      .cls-37 {
        fill: url(#_Градієнт_без_назви_66-51);
      }

      .cls-38 {
        fill: url(#_Градієнт_без_назви_66-44);
      }

      .cls-39 {
        fill: url(#_Градієнт_без_назви_66-45);
      }

      .cls-40 {
        fill: url(#_Градієнт_без_назви_66-46);
      }

      .cls-41 {
        fill: url(#_Градієнт_без_назви_66-47);
      }

      .cls-42 {
        fill: url(#_Градієнт_без_назви_66-48);
      }

      .cls-43 {
        fill: url(#_Градієнт_без_назви_66-49);
      }

      .cls-44 {
        fill: url(#_Градієнт_без_назви_66-30);
      }

      .cls-45 {
        fill: url(#_Градієнт_без_назви_66-31);
      }

      .cls-46 {
        fill: url(#_Градієнт_без_назви_66-41);
      }

      .cls-47 {
        fill: url(#_Градієнт_без_назви_66-40);
      }

      .cls-48 {
        fill: url(#_Градієнт_без_назви_66-20);
      }

      .cls-49 {
        fill: url(#_Градієнт_без_назви_66-7);
      }

      .cls-50 {
        fill: url(#_Градієнт_без_назви_66-5);
      }

      .cls-51 {
        fill: url(#_Градієнт_без_назви_66-2);
      }

      .cls-52 {
        fill: url(#_Градієнт_без_назви_66-4);
      }

      .cls-53 {
        fill: url(#_Градієнт_без_назви_66-9);
      }

      .cls-54 {
        fill: url(#_Градієнт_без_назви_66-8);
      }

      .cls-55 {
        fill: url(#_Градієнт_без_назви_66-6);
      }

      .cls-56 {
        fill: url(#_Градієнт_без_назви_66-3);
      }
    </style>
    <linearGradient id="_Градієнт_без_назви_66" data-name="Градієнт без назви 66" x1=".87" y1="169.39" x2="408.9" y2="-16.9" gradientUnits="userSpaceOnUse">
      <stop offset="0" stop-color="#c29d48"/>
      <stop offset="1" stop-color="#edd380"/>
    </linearGradient>
    <linearGradient id="_Градієнт_без_назви_66-2" data-name="Градієнт без назви 66" x1="9.25" y1="187.75" x2="417.28" y2="1.45" xlink:href="#_Градієнт_без_назви_66"/>
    <linearGradient id="_Градієнт_без_назви_66-3" data-name="Градієнт без назви 66" x1="17.63" y1="206.1" x2="425.66" y2="19.81" xlink:href="#_Градієнт_без_назви_66"/>
    <linearGradient id="_Градієнт_без_назви_66-4" data-name="Градієнт без назви 66" x1="-1.79" y1="163.57" x2="406.24" y2="-22.72" xlink:href="#_Градієнт_без_назви_66"/>
    <linearGradient id="_Градієнт_без_назви_66-5" data-name="Градієнт без назви 66" x1="7.38" y1="183.66" x2="415.41" y2="-2.64" xlink:href="#_Градієнт_без_назви_66"/>
    <linearGradient id="_Градієнт_без_назви_66-6" data-name="Градієнт без назви 66" x1="16.55" y1="203.74" x2="424.58" y2="17.45" xlink:href="#_Градієнт_без_назви_66"/>
    <linearGradient id="_Градієнт_без_назви_66-7" data-name="Градієнт без назви 66" x1="3.82" y1="175.85" x2="411.85" y2="-10.44" xlink:href="#_Градієнт_без_назви_66"/>
    <linearGradient id="_Градієнт_без_назви_66-8" data-name="Градієнт без назви 66" x1="11.32" y1="192.28" x2="419.35" y2="5.99" xlink:href="#_Градієнт_без_назви_66"/>
    <linearGradient id="_Градієнт_без_назви_66-9" data-name="Градієнт без назви 66" x1="18.82" y1="208.72" x2="426.86" y2="22.42" xlink:href="#_Градієнт_без_назви_66"/>
    <linearGradient id="_Градієнт_без_назви_66-10" data-name="Градієнт без назви 66" x1="16.18" y1="202.93" x2="424.21" y2="16.64" xlink:href="#_Градієнт_без_назви_66"/>
    <linearGradient id="_Градієнт_без_назви_66-11" data-name="Градієнт без назви 66" x1="20.01" y1="211.31" x2="428.04" y2="25.02" xlink:href="#_Градієнт_без_назви_66"/>
    <linearGradient id="_Градієнт_без_назви_66-12" data-name="Градієнт без назви 66" x1="23.84" y1="219.69" x2="431.87" y2="33.4" xlink:href="#_Градієнт_без_назви_66"/>
    <linearGradient id="_Градієнт_без_назви_66-13" data-name="Градієнт без назви 66" x1="41.92" y1="259.29" x2="449.95" y2="73" xlink:href="#_Градієнт_без_назви_66"/>
    <linearGradient id="_Градієнт_без_назви_66-14" data-name="Градієнт без назви 66" x1="38.09" y1="250.91" x2="446.12" y2="64.62" xlink:href="#_Градієнт_без_назви_66"/>
    <linearGradient id="_Градієнт_без_назви_66-15" data-name="Градієнт без назви 66" x1="34.26" y1="242.53" x2="442.29" y2="56.24" xlink:href="#_Градієнт_без_назви_66"/>
    <linearGradient id="_Градієнт_без_назви_66-16" data-name="Градієнт без назви 66" x1="26.1" y1="224.66" x2="434.13" y2="38.36" xlink:href="#_Градієнт_без_назви_66"/>
    <linearGradient id="_Градієнт_без_назви_66-17" data-name="Градієнт без назви 66" x1="26.98" y1="226.58" x2="435.01" y2="40.28" xlink:href="#_Градієнт_без_назви_66"/>
    <linearGradient id="_Градієнт_без_назви_66-18" data-name="Градієнт без назви 66" x1="27.86" y1="228.51" x2="435.89" y2="42.21" xlink:href="#_Градієнт_без_назви_66"/>
    <linearGradient id="_Градієнт_без_назви_66-19" data-name="Градієнт без назви 66" x1="11.08" y1="191.75" x2="419.11" y2="5.46" xlink:href="#_Градієнт_без_назви_66"/>
    <linearGradient id="_Градієнт_без_назви_66-20" data-name="Градієнт без назви 66" x1="16.42" y1="203.46" x2="424.45" y2="17.16" xlink:href="#_Градієнт_без_назви_66"/>
    <linearGradient id="_Градієнт_без_назви_66-21" data-name="Градієнт без назви 66" x1="21.76" y1="215.14" x2="429.79" y2="28.85" xlink:href="#_Градієнт_без_назви_66"/>
    <linearGradient id="_Градієнт_без_назви_66-22" data-name="Градієнт без назви 66" x1="17.5" y1="205.82" x2="425.53" y2="19.53" xlink:href="#_Градієнт_без_назви_66"/>
    <linearGradient id="_Градієнт_без_назви_66-23" data-name="Градієнт без назви 66" x1="19.43" y1="210.05" x2="427.47" y2="23.76" xlink:href="#_Градієнт_без_назви_66"/>
    <linearGradient id="_Градієнт_без_назви_66-24" data-name="Градієнт без назви 66" x1="21.65" y1="214.91" x2="429.68" y2="28.61" xlink:href="#_Градієнт_без_назви_66"/>
    <linearGradient id="_Градієнт_без_назви_66-25" data-name="Градієнт без назви 66" x1="23.58" y1="219.14" x2="431.61" y2="32.84" xlink:href="#_Градієнт_без_назви_66"/>
    <linearGradient id="_Градієнт_без_назви_66-26" data-name="Градієнт без назви 66" x1="3.58" y1="175.32" x2="411.61" y2="-10.97" xlink:href="#_Градієнт_без_назви_66"/>
    <linearGradient id="_Градієнт_без_назви_66-27" data-name="Градієнт без назви 66" x1="12.73" y1="195.36" x2="420.76" y2="9.07" xlink:href="#_Градієнт_без_назви_66"/>
    <linearGradient id="_Градієнт_без_назви_66-28" data-name="Градієнт без назви 66" x1="7.84" y1="184.65" x2="415.87" y2="-1.64" xlink:href="#_Градієнт_без_назви_66"/>
    <linearGradient id="_Градієнт_без_назви_66-29" data-name="Градієнт без назви 66" x1="16.99" y1="204.69" x2="425.02" y2="18.4" xlink:href="#_Градієнт_без_назви_66"/>
    <linearGradient id="_Градієнт_без_назви_66-30" data-name="Градієнт без назви 66" x1="-3.52" y1="159.77" x2="404.51" y2="-26.53" xlink:href="#_Градієнт_без_назви_66"/>
    <linearGradient id="_Градієнт_без_назви_66-31" data-name="Градієнт без назви 66" x1="8.17" y1="185.39" x2="416.21" y2="-.9" xlink:href="#_Градієнт_без_назви_66"/>
    <linearGradient id="_Градієнт_без_назви_66-32" data-name="Градієнт без назви 66" x1="1.92" y1="171.7" x2="409.95" y2="-14.59" xlink:href="#_Градієнт_без_назви_66"/>
    <linearGradient id="_Градієнт_без_назви_66-33" data-name="Градієнт без назви 66" x1="13.62" y1="197.32" x2="421.65" y2="11.03" xlink:href="#_Градієнт_без_назви_66"/>
    <linearGradient id="_Градієнт_без_назви_66-34" data-name="Градієнт без назви 66" x1="-1.9" y1="163.33" x2="406.13" y2="-22.96" xlink:href="#_Градієнт_без_назви_66"/>
    <linearGradient id="_Градієнт_без_назви_66-35" data-name="Градієнт без назви 66" x1="3.28" y1="174.67" x2="411.31" y2="-11.63" xlink:href="#_Градієнт_без_назви_66"/>
    <linearGradient id="_Градієнт_без_назви_66-36" data-name="Градієнт без назви 66" x1="9.22" y1="187.68" x2="417.25" y2="1.38" xlink:href="#_Градієнт_без_назви_66"/>
    <linearGradient id="_Градієнт_без_назви_66-37" data-name="Градієнт без назви 66" x1="14.39" y1="199.01" x2="422.42" y2="12.72" xlink:href="#_Градієнт_без_назви_66"/>
    <linearGradient id="_Градієнт_без_назви_66-38" data-name="Градієнт без назви 66" x1="8.02" y1="185.06" x2="416.05" y2="-1.24" xlink:href="#_Градієнт_без_назви_66"/>
    <linearGradient id="_Градієнт_без_назви_66-39" data-name="Градієнт без назви 66" x1="15.57" y1="201.6" x2="423.61" y2="15.31" xlink:href="#_Градієнт_без_назви_66"/>
    <linearGradient id="_Градієнт_без_назви_66-40" data-name="Градієнт без назви 66" x1="11.54" y1="192.76" x2="419.57" y2="6.47" xlink:href="#_Градієнт_без_назви_66"/>
    <linearGradient id="_Градієнт_без_назви_66-41" data-name="Градієнт без назви 66" x1="19.09" y1="209.3" x2="427.12" y2="23.01" xlink:href="#_Градієнт_без_назви_66"/>
    <linearGradient id="_Градієнт_без_назви_66-42" data-name="Градієнт без назви 66" x1="34.52" y1="243.1" x2="442.55" y2="56.81" xlink:href="#_Градієнт_без_назви_66"/>
    <linearGradient id="_Градієнт_без_назви_66-43" data-name="Градієнт без назви 66" x1="33.61" y1="241.1" x2="441.64" y2="54.81" xlink:href="#_Градієнт_без_назви_66"/>
    <linearGradient id="_Градієнт_без_назви_66-44" data-name="Градієнт без назви 66" x1="32.56" y1="238.8" x2="440.59" y2="52.51" xlink:href="#_Градієнт_без_назви_66"/>
    <linearGradient id="_Градієнт_без_назви_66-45" data-name="Градієнт без назви 66" x1="31.64" y1="236.79" x2="439.67" y2="50.5" xlink:href="#_Градієнт_без_назви_66"/>
    <linearGradient id="_Градієнт_без_назви_66-46" data-name="Градієнт без назви 66" x1="25.21" y1="222.71" x2="433.25" y2="36.42" xlink:href="#_Градієнт_без_назви_66"/>
    <linearGradient id="_Градієнт_без_назви_66-47" data-name="Градієнт без назви 66" x1="32.92" y1="239.59" x2="440.95" y2="53.3" xlink:href="#_Градієнт_без_назви_66"/>
    <linearGradient id="_Градієнт_без_назви_66-48" data-name="Градієнт без назви 66" x1="52.1" y1="281.6" x2="460.13" y2="95.31" xlink:href="#_Градієнт_без_назви_66"/>
    <linearGradient id="_Градієнт_без_назви_66-49" data-name="Градієнт без назви 66" x1="60.8" y1="300.65" x2="468.83" y2="114.36" xlink:href="#_Градієнт_без_назви_66"/>
    <linearGradient id="_Градієнт_без_назви_66-50" data-name="Градієнт без назви 66" x1="69.1" y1="318.82" x2="477.13" y2="132.53" xlink:href="#_Градієнт_без_назви_66"/>
    <linearGradient id="_Градієнт_без_назви_66-51" data-name="Градієнт без назви 66" x1="78.1" y1="338.55" x2="486.13" y2="152.26" xlink:href="#_Градієнт_без_назви_66"/>
    <linearGradient id="_Градієнт_без_назви_66-52" data-name="Градієнт без назви 66" x1="79.18" y1="340.91" x2="487.21" y2="154.62" xlink:href="#_Градієнт_без_назви_66"/>
    <linearGradient id="_Градієнт_без_назви_66-53" data-name="Градієнт без назви 66" x1="17.16" y1="205.07" x2="425.19" y2="18.78" xlink:href="#_Градієнт_без_назви_66"/>
    <linearGradient id="_Градієнт_без_назви_66-54" data-name="Градієнт без назви 66" x1="40.68" y1="256.58" x2="448.71" y2="70.29" xlink:href="#_Градієнт_без_назви_66"/>
    <linearGradient id="_Градієнт_без_назви_66-55" data-name="Градієнт без назви 66" x1="39.66" y1="254.35" x2="447.69" y2="68.06" xlink:href="#_Градієнт_без_назви_66"/>
    <linearGradient id="_Градієнт_без_назви_66-56" data-name="Градієнт без назви 66" x1="14.36" y1="198.94" x2="422.39" y2="12.64" xlink:href="#_Градієнт_без_назви_66"/>
  </defs>
  <g>
    <g>
      <polygon class="cls-1" points="236.28 50.82 233.86 61.91 236.28 73 238.7 61.91 236.28 50.82"/>
      <polygon class="cls-51" points="233.86 84.09 236.28 95.18 238.7 84.09 236.28 73 233.86 84.09"/>
    </g>
    <polygon class="cls-56" points="236.28 95.18 233.86 106.27 236.28 117.36 238.7 106.27 236.28 95.18"/>
    <g>
      <polygon class="cls-52" points="193.44 62.3 196.89 73.11 204.53 81.51 201.08 70.7 193.44 62.3"/>
      <polygon class="cls-50" points="204.53 81.51 207.98 92.32 215.62 100.72 212.17 89.9 204.53 81.51"/>
      <polygon class="cls-55" points="215.62 100.72 219.07 111.53 226.71 119.93 223.26 109.11 215.62 100.72"/>
      <polygon class="cls-49" points="162.08 93.66 170.48 101.3 181.29 104.75 172.89 97.11 162.08 93.66"/>
      <polygon class="cls-54" points="181.29 104.75 189.68 112.39 200.5 115.84 192.1 108.2 181.29 104.75"/>
      <polygon class="cls-53" points="200.5 115.84 208.89 123.48 219.71 126.93 211.31 119.29 200.5 115.84"/>
      <polygon class="cls-26" points="150.6 136.5 161.69 138.92 172.78 136.5 161.69 134.08 150.6 136.5"/>
      <polygon class="cls-25" points="172.78 136.5 183.87 138.92 194.96 136.5 183.87 134.08 172.78 136.5"/>
      <polygon class="cls-24" points="194.96 136.5 206.05 138.92 217.14 136.5 206.05 134.08 194.96 136.5"/>
      <polygon class="cls-21" points="310.87 134.08 299.78 136.5 310.87 138.92 321.96 136.5 310.87 134.08"/>
      <polygon class="cls-20" points="277.6 136.5 288.69 138.92 299.78 136.5 288.69 134.08 277.6 136.5"/>
      <polygon class="cls-23" points="255.42 136.5 266.51 138.92 277.6 136.5 266.51 134.08 255.42 136.5"/>
      <polygon class="cls-22" points="310.48 93.66 299.66 97.11 291.27 104.75 302.08 101.3 310.48 93.66"/>
      <polygon class="cls-28" points="282.88 112.39 291.27 104.75 280.46 108.2 272.06 115.84 282.88 112.39"/>
      <polygon class="cls-27" points="272.09 115.84 261.27 119.29 252.88 126.93 263.69 123.48 272.09 115.84"/>
      <polygon class="cls-29" points="279.12 62.3 271.48 70.7 268.03 81.51 275.67 73.11 279.12 62.3"/>
      <polygon class="cls-48" points="264.58 92.32 268.03 81.51 260.39 89.9 256.94 100.72 264.58 92.32"/>
      <polygon class="cls-7" points="256.94 100.69 249.3 109.09 245.85 119.9 253.49 111.51 256.94 100.69"/>
    </g>
    <path class="cls-8" d="m291.21,82.39c.21,0,.42-.08.57-.24l2.62-2.62c.32-.32.32-.83,0-1.15-.32-.32-.83-.32-1.15,0l-2.62,2.62c-.32.32-.32.83,0,1.15.16.16.37.24.57.24Z"/>
    <path class="cls-5" d="m280.41,93.18c.21,0,.42-.08.57-.24l5.4-5.4c.32-.32.32-.83,0-1.15-.32-.32-.83-.32-1.15,0l-5.4,5.4c-.32.32-.32.83,0,1.15.16.16.37.24.57.24Z"/>
    <path class="cls-6" d="m269.62,103.97c.21,0,.42-.08.57-.24l5.4-5.4c.32-.32.32-.83,0-1.15-.32-.32-.83-.32-1.15,0l-5.4,5.4c-.32.32-.32.83,0,1.15.16.16.37.24.57.24Z"/>
    <path class="cls-11" d="m264.8,107.98c-.32-.32-.83-.32-1.15,0l-2.62,2.62c-.32.32-.32.83,0,1.15.16.16.37.24.57.24s.42-.08.57-.24l2.62-2.62c.32-.32.32-.83,0-1.15Z"/>
    <path class="cls-4" d="m256.17,62.25c.07.02.14.03.21.03.36,0,.69-.24.79-.6l.96-3.58c.12-.43-.14-.88-.58-1-.43-.11-.88.14-1,.58l-.96,3.58c-.12.43.14.88.58,1Z"/>
    <path class="cls-9" d="m250.67,82.8c-.43-.11-.88.14-1,.58l-1.98,7.37c-.12.43.14.88.58,1,.07.02.14.03.21.03.36,0,.69-.24.79-.6l1.98-7.37c.12-.43-.14-.88-.58-1Z"/>
    <path class="cls-10" d="m254.62,68.05c-.43-.11-.88.14-1,.58l-1.98,7.37c-.12.43.14.88.58,1,.07.02.14.03.21.03.36,0,.69-.24.79-.6l1.98-7.37c.12-.43-.14-.88-.58-1Z"/>
    <path class="cls-30" d="m246.72,97.54c-.43-.11-.88.14-1,.58l-.96,3.58c-.12.43.14.88.58,1,.07.02.14.03.21.03.36,0,.69-.24.79-.6l.96-3.58c.12-.43-.14-.88-.58-1Z"/>
    <path class="cls-44" d="m216,57.68c-.12-.43-.57-.69-1-.58-.43.12-.69.56-.58,1l.96,3.58c.1.36.43.6.79.6.07,0,.14,0,.21-.03.43-.12.69-.56.58-1l-.96-3.58Z"/>
    <path class="cls-45" d="m222.89,83.37c-.12-.43-.57-.69-1-.58-.43.12-.69.56-.58,1l1.98,7.37c.1.36.43.6.79.6.07,0,.14,0,.21-.03.43-.12.69-.56.58-1l-1.98-7.37Z"/>
    <path class="cls-12" d="m218.94,68.63c-.12-.43-.57-.69-1-.58-.43.12-.69.56-.58,1l1.98,7.37c.1.36.43.6.79.6.07,0,.14,0,.21-.03.43-.12.69-.56.58-1l-1.98-7.37Z"/>
    <path class="cls-13" d="m226.84,98.12c-.12-.43-.56-.69-1-.58-.43.12-.69.56-.58,1l.96,3.58c.1.36.43.6.79.6.07,0,.14,0,.21-.03.43-.12.69-.56.58-1l-.96-3.58Z"/>
    <path class="cls-19" d="m180.78,82.15c.16.16.37.24.57.24s.42-.08.57-.24c.32-.32.32-.83,0-1.15l-2.62-2.62c-.32-.32-.83-.32-1.15,0-.32.32-.32.83,0,1.15l2.62,2.62Z"/>
    <path class="cls-18" d="m191.57,92.94c.16.16.37.24.57.24s.42-.08.57-.24c.32-.32.32-.83,0-1.15l-5.4-5.4c-.32-.32-.83-.32-1.15,0-.32.32-.32.83,0,1.15l5.4,5.4Z"/>
    <path class="cls-17" d="m203.51,102.59l-5.4-5.4c-.32-.32-.83-.32-1.15,0-.32.32-.32.83,0,1.15l5.4,5.4c.16.16.37.24.57.24s.42-.08.57-.24c.32-.32.32-.83,0-1.15Z"/>
    <path class="cls-16" d="m211.53,110.6l-2.62-2.62c-.32-.32-.83-.32-1.15,0-.32.32-.32.83,0,1.15l2.62,2.62c.16.16.37.24.57.24s.42-.08.57-.24c.32-.32.32-.83,0-1.15Z"/>
    <path class="cls-15" d="m157.46,116.22l3.58.96c.07.02.14.03.21.03.36,0,.69-.24.79-.6.12-.43-.14-.88-.58-1l-3.58-.96c-.43-.11-.88.14-1,.58-.12.43.14.88.58,1Z"/>
    <path class="cls-14" d="m183.57,121.54c-.43-.11-.88.14-1,.58-.12.43.14.88.58,1l7.37,1.98c.07.02.14.03.21.03.36,0,.69-.24.79-.6.12-.43-.14-.88-.58-1l-7.37-1.98Z"/>
    <path class="cls-47" d="m168.83,117.58c-.42-.12-.88.14-1,.58-.12.43.14.88.58,1l7.37,1.98c.07.02.14.03.21.03.36,0,.69-.24.79-.6.12-.43-.14-.88-.58-1l-7.37-1.98Z"/>
    <path class="cls-46" d="m197.9,127.06l3.58.96c.07.02.14.03.21.03.36,0,.69-.24.79-.6.12-.43-.14-.88-.58-1l-3.58-.96c-.43-.11-.88.14-1,.58-.12.43.14.88.58,1Z"/>
    <path class="cls-2" d="m311.31,117.21c.07,0,.14,0,.21-.03l3.58-.96c.43-.12.69-.56.57-1-.12-.43-.56-.69-1-.57l-3.58.96c-.43.12-.69.56-.57,1,.1.36.43.6.79.6Z"/>
    <path class="cls-3" d="m296.57,121.16c.07,0,.14,0,.21-.03l7.37-1.98c.43-.12.69-.56.58-1-.12-.43-.57-.69-1-.58l-7.37,1.98c-.43.12-.69.56-.58,1,.1.36.43.6.79.6Z"/>
    <path class="cls-38" d="m281.82,125.11c.07,0,.14,0,.21-.03l7.37-1.98c.43-.12.69-.56.58-1-.12-.43-.57-.69-1-.58l-7.37,1.98c-.43.12-.69.56-.58,1,.1.36.43.6.79.6Z"/>
    <path class="cls-39" d="m275.24,126.06c-.12-.43-.56-.69-1-.58l-3.58.96c-.43.12-.69.56-.58,1,.1.36.43.6.79.6.07,0,.14,0,.21-.03l3.58-.96c.43-.12.69-.56.58-1Z"/>
  </g>
  <g>
    <path class="cls-40" d="m77.15,206.7l19.78-48.16h1.81l20.9,48.16h6.06v1.58h-22.58v-1.58h5.97l-7.52-17.38h-15.46l-7.2,17.38h5.05v1.58h-12.7v-1.58h5.89Zm9.46-19.07h14.31l-7.24-17.23-7.07,17.23Z"/>
    <path class="cls-41" d="m164.29,174.13c-.49-1.48-1.09-2.32-1.78-3.95-.69-1.64-1.59-3.14-2.69-4.5-1.1-1.37-2.47-2.49-4.1-3.36-1.64-.87-3.66-1.31-6.08-1.31-3.27,0-5.85.6-7.73,1.81-1.88,1.21-3.3,2.89-4.27,5.04-.96,2.15-1.58,4-1.85,6.98-.27,2.98-.4,6.24-.4,9.78,0,4.66.27,7.78.81,10.83.54,3.05,1.38,5.47,2.52,7.26,1.14,1.79,2.62,3.05,4.44,3.76,1.81.72,3.98,1.08,6.49,1.08,2.02,0,3.84-.4,5.48-1.21,1.64-.81,3.08-1.87,4.34-3.19,1.25-1.32,2.31-2.83,3.16-4.54.85-1.7,1.48-2.74,1.88-4.58h1.08v14.25h-1.08c-.23-.54-.49-.91-.81-1.11-.31-.2-.78-.3-1.41-.3-.54,0-1.23.12-2.08.37-.85.25-1.83.52-2.92.81-1.1.29-2.3.56-3.6.81-1.3.25-2.67.37-4.1.37-3.27,0-6.43-.64-9.48-1.92-3.05-1.28-5.72-3.02-8.03-5.24-2.31-2.22-4.16-4.83-5.55-7.83-1.39-3-2.08-6.25-2.08-9.75,0-3.81.77-7.26,2.32-10.35,1.55-3.09,3.53-5.73,5.95-7.93,2.42-2.19,5.12-3.89,8.1-5.07,2.98-1.19,5.9-1.78,8.77-1.78,1.43,0,2.77.13,4,.4,1.23.27,2.37.55,3.43.84,1.05.29,2.01.57,2.86.84.85.27,1.57.4,2.15.4.63,0,1.1-.08,1.41-.24.31-.16.54-.55.67-1.18h1.08v13.71h-.87Z"/>
    <path class="cls-42" d="m260.91,161.99c-1.79,0-4.63.25-5.98.74-1.34.49-2.09.55-3.1,1.45-1.01.9-1.89,1.97-2.65,3.23-.76,1.25-1.48,2.67-2.15,4.23h-.87v-11.22h36.09l-26.69,46.28h12.16c1.79,0,3.52-.25,5.18-.74,1.66-.49,2.73-.68,4.15-1.82s2.64-2.62,3.7-4.44c1.05-1.81,1.87-4.02,2.45-6.62h.87v15.19h-40.39l26.59-46.28h-9.34Z"/>
    <path class="cls-43" d="m292.67,174.13c1.55-3.09,3.53-5.73,5.95-7.93,2.42-2.19,5.13-3.89,8.13-5.07,3-1.19,5.94-1.78,8.8-1.78,3.09,0,6.15.58,9.17,1.75,3.02,1.17,5.71,2.82,8.07,4.97,2.35,2.15,4.26,4.76,5.71,7.83,1.46,3.07,2.18,6.53,2.18,10.38,0,3.36-.68,6.55-2.05,9.58-1.37,3.02-3.2,5.68-5.51,7.96-2.31,2.28-4.97,4.09-8,5.41-3.02,1.32-6.22,1.98-9.58,1.98s-6.5-.64-9.54-1.92c-3.05-1.28-5.72-3.02-8.03-5.24-2.31-2.22-4.16-4.83-5.55-7.83-1.39-3-2.08-6.25-2.08-9.75,0-3.81.77-7.26,2.32-10.35Zm9.44,21.94c.54,3.07,1.38,5.51,2.52,7.33,1.14,1.81,2.62,3.08,4.44,3.8,1.81.72,3.98,1.08,6.48,1.08,3.32,0,5.91-.62,7.8-1.85,1.88-1.23,3.29-2.93,4.23-5.11.94-2.17,1.53-4.75,1.78-7.73.25-2.98.37-6.22.37-9.71,0-3.14-.1-6.13-.3-8.97-.2-2.84-.77-5.35-1.71-7.53-.94-2.17-2.36-3.9-4.27-5.18-1.91-1.28-4.54-1.92-7.9-1.92-3.14,0-5.64.59-7.53,1.78-1.88,1.19-3.32,2.86-4.3,5.01-.99,2.15-1.64,4.7-1.95,7.66-.31,2.96-.47,6.21-.47,9.75,0,4.66.27,8.53.81,11.59Z"/>
    <path class="cls-31" d="m359.78,160.42l21.11,30.72h.13v-29.15h-4.91v-1.58h13.44v1.58h-6.18v46.28h-1.81l-28.97-41.81h-.13v40.24h4.91v1.58h-13.44v-1.58h6.18v-44.7h-6.18v-1.58h15.86Z"/>
    <path class="cls-37" d="m436.46,193.55c-.42,2.48-1.3,4.3-1.95,5.41-2.28,3.92-5.71,5.93-7.6,6.69-1.3.52-2.64.78-2.64.78-.93.17-1.91.26-2.94.26h-11.02v-44.7h10.69c1.31,0,3.37.2,5.58,1.24,3.55,1.68,5.32,4.52,5.98,5.75.62,1.15.95,2.19,1.14,2.92h.87v-11.49h-40.19v1.58h6.18v44.7h-6.18v1.58h42.95v-14.72h-.87Z"/>
    <path class="cls-36" d="m424.22,173.05c-.02.19-.05.45-.09.78-.09.65-.36,2.49-1.12,4.06-.27.56-1.2,2.49-3.22,3.63-1.34.76-2.8.82-5.72.96-1.56.07-2.85.04-3.76,0v1.4c.91-.04,2.21-.07,3.76,0,2.93.13,4.39.2,5.72.96,2.02,1.14,2.94,3.07,3.22,3.63.75,1.57,1.02,3.4,1.12,4.06.05.32.08.59.09.78h.87v-20.24h-.87Z"/>
    <path class="cls-35" d="m64.69,173.05c-.02.19-.05.45-.09.78-.09.65-.36,2.49-1.12,4.06-.27.56-1.2,2.49-3.22,3.63-1.34.76-2.8.82-5.72.96-1.56.07-2.85.04-3.76,0v1.4c.91-.04,2.21-.07,3.76,0,2.93.13,4.39.2,5.72.96,2.02,1.14,2.94,3.07,3.22,3.63.75,1.57,1.02,3.4,1.12,4.06.05.32.08.59.09.78h.87v-20.24h-.87Z"/>
    <path class="cls-32" d="m201.02,173.05c-.02.19-.05.45-.09.78-.09.65-.36,2.49-1.12,4.06-.27.56-1.2,2.49-3.22,3.63-1.34.76-2.8.82-5.72.96-1.56.07-2.85.04-3.76,0v1.4c.91-.04,2.21-.07,3.76,0,2.93.13,4.39.2,5.72.96,2.02,1.14,2.94,3.07,3.22,3.63.75,1.57,1.02,3.4,1.12,4.06.05.32.08.59.09.78h.87v-20.24h-.87Z"/>
    <path class="cls-33" d="m213.6,193.55c-.42,2.48-1.3,4.3-1.95,5.41-2.28,3.92-5.71,5.93-7.6,6.69-1.3.52-2.64.78-2.64.78-.93.17-1.91.26-2.94.26h-11.02v-44.7h10.69c1.31,0,3.37.2,5.58,1.24,3.55,1.68,5.32,4.52,5.98,5.75.62,1.15.95,2.19,1.14,2.92h.87v-11.49h-40.19v1.58h6.18v44.7h-6.18v1.58h42.95v-14.72h-.87Z"/>
    <path class="cls-34" d="m35.23,160.42v1.58h6.18v44.7h-6.18v1.58h22.18v-1.58h-6.25v-44.7h10.15c1.79,0,3.35.25,4.67.74,1.74.65,2.84,1.59,3.46,2.12,2.79,2.36,4.06,5.33,4.64,7.06h.87v-11.49h-39.72Z"/>
  </g>
</svg>