<?xml version="1.0" encoding="UTF-8"?>
<svg id="_Шар_1" data-name="Шар 1" xmlns="http://www.w3.org/2000/svg" viewBox="0 0 472.56 260.04">
  <g>
    <g>
      <polygon points="236.28 50.82 233.86 61.91 236.28 73 238.7 61.91 236.28 50.82"/>
      <polygon points="233.86 84.09 236.28 95.18 238.7 84.09 236.28 73 233.86 84.09"/>
    </g>
    <polygon points="236.28 95.18 233.86 106.27 236.28 117.36 238.7 106.27 236.28 95.18"/>
    <g>
      <polygon points="193.44 62.3 196.89 73.11 204.53 81.51 201.08 70.7 193.44 62.3"/>
      <polygon points="204.53 81.51 207.98 92.32 215.62 100.72 212.17 89.9 204.53 81.51"/>
      <polygon points="215.62 100.72 219.07 111.53 226.71 119.93 223.26 109.11 215.62 100.72"/>
      <polygon points="162.08 93.66 170.48 101.3 181.29 104.75 172.89 97.11 162.08 93.66"/>
      <polygon points="181.29 104.75 189.68 112.39 200.5 115.84 192.1 108.2 181.29 104.75"/>
      <polygon points="200.5 115.84 208.89 123.48 219.71 126.93 211.31 119.29 200.5 115.84"/>
      <polygon points="150.6 136.5 161.69 138.92 172.78 136.5 161.69 134.08 150.6 136.5"/>
      <polygon points="172.78 136.5 183.87 138.92 194.96 136.5 183.87 134.08 172.78 136.5"/>
      <polygon points="194.96 136.5 206.05 138.92 217.14 136.5 206.05 134.08 194.96 136.5"/>
      <polygon points="310.87 134.08 299.78 136.5 310.87 138.92 321.96 136.5 310.87 134.08"/>
      <polygon points="277.6 136.5 288.69 138.92 299.78 136.5 288.69 134.08 277.6 136.5"/>
      <polygon points="255.42 136.5 266.51 138.92 277.6 136.5 266.51 134.08 255.42 136.5"/>
      <polygon points="310.48 93.66 299.66 97.11 291.27 104.75 302.08 101.3 310.48 93.66"/>
      <polygon points="282.88 112.39 291.27 104.75 280.46 108.2 272.06 115.84 282.88 112.39"/>
      <polygon points="272.09 115.84 261.27 119.29 252.88 126.93 263.69 123.48 272.09 115.84"/>
      <polygon points="279.12 62.3 271.48 70.7 268.03 81.51 275.67 73.11 279.12 62.3"/>
      <polygon points="264.58 92.32 268.03 81.51 260.39 89.9 256.94 100.72 264.58 92.32"/>
      <polygon points="256.94 100.69 249.3 109.09 245.85 119.9 253.49 111.51 256.94 100.69"/>
    </g>
    <path d="m291.21,82.39c.21,0,.42-.08.57-.24l2.62-2.62c.32-.32.32-.83,0-1.15-.32-.32-.83-.32-1.15,0l-2.62,2.62c-.32.32-.32.83,0,1.15.16.16.37.24.57.24Z"/>
    <path d="m280.41,93.18c.21,0,.42-.08.57-.24l5.4-5.4c.32-.32.32-.83,0-1.15-.32-.32-.83-.32-1.15,0l-5.4,5.4c-.32.32-.32.83,0,1.15.16.16.37.24.57.24Z"/>
    <path d="m269.62,103.97c.21,0,.42-.08.57-.24l5.4-5.4c.32-.32.32-.83,0-1.15-.32-.32-.83-.32-1.15,0l-5.4,5.4c-.32.32-.32.83,0,1.15.16.16.37.24.57.24Z"/>
    <path d="m264.8,107.98c-.32-.32-.83-.32-1.15,0l-2.62,2.62c-.32.32-.32.83,0,1.15.16.16.37.24.57.24s.42-.08.57-.24l2.62-2.62c.32-.32.32-.83,0-1.15Z"/>
    <path d="m256.17,62.25c.07.02.14.03.21.03.36,0,.69-.24.79-.6l.96-3.58c.12-.43-.14-.88-.58-1-.43-.11-.88.14-1,.58l-.96,3.58c-.12.43.14.88.58,1Z"/>
    <path d="m250.67,82.8c-.43-.11-.88.14-1,.58l-1.98,7.37c-.12.43.14.88.58,1,.07.02.14.03.21.03.36,0,.69-.24.79-.6l1.98-7.37c.12-.43-.14-.88-.58-1Z"/>
    <path d="m254.62,68.05c-.43-.11-.88.14-1,.58l-1.98,7.37c-.12.43.14.88.58,1,.07.02.14.03.21.03.36,0,.69-.24.79-.6l1.98-7.37c.12-.43-.14-.88-.58-1Z"/>
    <path d="m246.72,97.54c-.43-.11-.88.14-1,.58l-.96,3.58c-.12.43.14.88.58,1,.07.02.14.03.21.03.36,0,.69-.24.79-.6l.96-3.58c.12-.43-.14-.88-.58-1Z"/>
    <path d="m216,57.68c-.12-.43-.57-.69-1-.58-.43.12-.69.56-.58,1l.96,3.58c.1.36.43.6.79.6.07,0,.14,0,.21-.03.43-.12.69-.56.58-1l-.96-3.58Z"/>
    <path d="m222.89,83.37c-.12-.43-.57-.69-1-.58-.43.12-.69.56-.58,1l1.98,7.37c.1.36.43.6.79.6.07,0,.14,0,.21-.03.43-.12.69-.56.58-1l-1.98-7.37Z"/>
    <path d="m218.94,68.63c-.12-.43-.57-.69-1-.58-.43.12-.69.56-.58,1l1.98,7.37c.1.36.43.6.79.6.07,0,.14,0,.21-.03.43-.12.69-.56.58-1l-1.98-7.37Z"/>
    <path d="m226.84,98.12c-.12-.43-.56-.69-1-.58-.43.12-.69.56-.58,1l.96,3.58c.1.36.43.6.79.6.07,0,.14,0,.21-.03.43-.12.69-.56.58-1l-.96-3.58Z"/>
    <path d="m180.78,82.15c.16.16.37.24.57.24s.42-.08.57-.24c.32-.32.32-.83,0-1.15l-2.62-2.62c-.32-.32-.83-.32-1.15,0-.32.32-.32.83,0,1.15l2.62,2.62Z"/>
    <path d="m191.57,92.94c.16.16.37.24.57.24s.42-.08.57-.24c.32-.32.32-.83,0-1.15l-5.4-5.4c-.32-.32-.83-.32-1.15,0-.32.32-.32.83,0,1.15l5.4,5.4Z"/>
    <path d="m203.51,102.59l-5.4-5.4c-.32-.32-.83-.32-1.15,0-.32.32-.32.83,0,1.15l5.4,5.4c.16.16.37.24.57.24s.42-.08.57-.24c.32-.32.32-.83,0-1.15Z"/>
    <path d="m211.53,110.6l-2.62-2.62c-.32-.32-.83-.32-1.15,0-.32.32-.32.83,0,1.15l2.62,2.62c.16.16.37.24.57.24s.42-.08.57-.24c.32-.32.32-.83,0-1.15Z"/>
    <path d="m157.46,116.22l3.58.96c.07.02.14.03.21.03.36,0,.69-.24.79-.6.12-.43-.14-.88-.58-1l-3.58-.96c-.43-.11-.88.14-1,.58-.12.43.14.88.58,1Z"/>
    <path d="m183.57,121.54c-.43-.11-.88.14-1,.58-.12.43.14.88.58,1l7.37,1.98c.07.02.14.03.21.03.36,0,.69-.24.79-.6.12-.43-.14-.88-.58-1l-7.37-1.98Z"/>
    <path d="m168.83,117.58c-.42-.12-.88.14-1,.58-.12.43.14.88.58,1l7.37,1.98c.07.02.14.03.21.03.36,0,.69-.24.79-.6.12-.43-.14-.88-.58-1l-7.37-1.98Z"/>
    <path d="m197.9,127.06l3.58.96c.07.02.14.03.21.03.36,0,.69-.24.79-.6.12-.43-.14-.88-.58-1l-3.58-.96c-.43-.11-.88.14-1,.58-.12.43.14.88.58,1Z"/>
    <path d="m311.31,117.21c.07,0,.14,0,.21-.03l3.58-.96c.43-.12.69-.56.57-1-.12-.43-.56-.69-1-.57l-3.58.96c-.43.12-.69.56-.57,1,.1.36.43.6.79.6Z"/>
    <path d="m296.57,121.16c.07,0,.14,0,.21-.03l7.37-1.98c.43-.12.69-.56.58-1-.12-.43-.57-.69-1-.58l-7.37,1.98c-.43.12-.69.56-.58,1,.1.36.43.6.79.6Z"/>
    <path d="m281.82,125.11c.07,0,.14,0,.21-.03l7.37-1.98c.43-.12.69-.56.58-1-.12-.43-.57-.69-1-.58l-7.37,1.98c-.43.12-.69.56-.58,1,.1.36.43.6.79.6Z"/>
    <path d="m275.24,126.06c-.12-.43-.56-.69-1-.58l-3.58.96c-.43.12-.69.56-.58,1,.1.36.43.6.79.6.07,0,.14,0,.21-.03l3.58-.96c.43-.12.69-.56.58-1Z"/>
  </g>
  <g>
    <path d="m77.15,206.7l19.78-48.16h1.81l20.9,48.16h6.06v1.58h-22.58v-1.58h5.97l-7.52-17.38h-15.46l-7.2,17.38h5.05v1.58h-12.7v-1.58h5.89Zm9.46-19.07h14.31l-7.24-17.23-7.07,17.23Z"/>
    <path d="m164.29,174.13c-.49-1.48-1.09-2.32-1.78-3.95-.69-1.64-1.59-3.14-2.69-4.5-1.1-1.37-2.47-2.49-4.1-3.36-1.64-.87-3.66-1.31-6.08-1.31-3.27,0-5.85.6-7.73,1.81-1.88,1.21-3.3,2.89-4.27,5.04-.96,2.15-1.58,4-1.85,6.98-.27,2.98-.4,6.24-.4,9.78,0,4.66.27,7.78.81,10.83.54,3.05,1.38,5.47,2.52,7.26,1.14,1.79,2.62,3.05,4.44,3.76,1.81.72,3.98,1.08,6.49,1.08,2.02,0,3.84-.4,5.48-1.21,1.64-.81,3.08-1.87,4.34-3.19,1.25-1.32,2.31-2.83,3.16-4.54.85-1.7,1.48-2.74,1.88-4.58h1.08v14.25h-1.08c-.23-.54-.49-.91-.81-1.11-.31-.2-.78-.3-1.41-.3-.54,0-1.23.12-2.08.37-.85.25-1.83.52-2.92.81-1.1.29-2.3.56-3.6.81-1.3.25-2.67.37-4.1.37-3.27,0-6.43-.64-9.48-1.92-3.05-1.28-5.72-3.02-8.03-5.24-2.31-2.22-4.16-4.83-5.55-7.83-1.39-3-2.08-6.25-2.08-9.75,0-3.81.77-7.26,2.32-10.35,1.55-3.09,3.53-5.73,5.95-7.93,2.42-2.19,5.12-3.89,8.1-5.07,2.98-1.19,5.9-1.78,8.77-1.78,1.43,0,2.77.13,4,.4,1.23.27,2.37.55,3.43.84,1.05.29,2.01.57,2.86.84.85.27,1.57.4,2.15.4.63,0,1.1-.08,1.41-.24.31-.16.54-.55.67-1.18h1.08v13.71h-.87Z"/>
    <path d="m260.91,161.99c-1.79,0-4.63.25-5.98.74-1.34.49-2.09.55-3.1,1.45-1.01.9-1.89,1.97-2.65,3.23-.76,1.25-1.48,2.67-2.15,4.23h-.87v-11.22h36.09l-26.69,46.28h12.16c1.79,0,3.52-.25,5.18-.74,1.66-.49,2.73-.68,4.15-1.82s2.64-2.62,3.7-4.44c1.05-1.81,1.87-4.02,2.45-6.62h.87v15.19h-40.39l26.59-46.28h-9.34Z"/>
    <path d="m292.67,174.13c1.55-3.09,3.53-5.73,5.95-7.93,2.42-2.19,5.13-3.89,8.13-5.07,3-1.19,5.94-1.78,8.8-1.78,3.09,0,6.15.58,9.17,1.75,3.02,1.17,5.71,2.82,8.07,4.97,2.35,2.15,4.26,4.76,5.71,7.83,1.46,3.07,2.18,6.53,2.18,10.38,0,3.36-.68,6.55-2.05,9.58-1.37,3.02-3.2,5.68-5.51,7.96-2.31,2.28-4.97,4.09-8,5.41-3.02,1.32-6.22,1.98-9.58,1.98s-6.5-.64-9.54-1.92c-3.05-1.28-5.72-3.02-8.03-5.24-2.31-2.22-4.16-4.83-5.55-7.83-1.39-3-2.08-6.25-2.08-9.75,0-3.81.77-7.26,2.32-10.35Zm9.44,21.94c.54,3.07,1.38,5.51,2.52,7.33,1.14,1.81,2.62,3.08,4.44,3.8,1.81.72,3.98,1.08,6.48,1.08,3.32,0,5.91-.62,7.8-1.85,1.88-1.23,3.29-2.93,4.23-5.11.94-2.17,1.53-4.75,1.78-7.73.25-2.98.37-6.22.37-9.71,0-3.14-.1-6.13-.3-8.97-.2-2.84-.77-5.35-1.71-7.53-.94-2.17-2.36-3.9-4.27-5.18-1.91-1.28-4.54-1.92-7.9-1.92-3.14,0-5.64.59-7.53,1.78-1.88,1.19-3.32,2.86-4.3,5.01-.99,2.15-1.64,4.7-1.95,7.66-.31,2.96-.47,6.21-.47,9.75,0,4.66.27,8.53.81,11.59Z"/>
    <path d="m359.78,160.42l21.11,30.72h.13v-29.15h-4.91v-1.58h13.44v1.58h-6.18v46.28h-1.81l-28.97-41.81h-.13v40.24h4.91v1.58h-13.44v-1.58h6.18v-44.7h-6.18v-1.58h15.86Z"/>
    <path d="m436.46,193.55c-.42,2.48-1.3,4.3-1.95,5.41-2.28,3.92-5.71,5.93-7.6,6.69-1.3.52-2.64.78-2.64.78-.93.17-1.91.26-2.94.26h-11.02v-44.7h10.69c1.31,0,3.37.2,5.58,1.24,3.55,1.68,5.32,4.52,5.98,5.75.62,1.15.95,2.19,1.14,2.92h.87v-11.49h-40.19v1.58h6.18v44.7h-6.18v1.58h42.95v-14.72h-.87Z"/>
    <path d="m424.22,173.05c-.02.19-.05.45-.09.78-.09.65-.36,2.49-1.12,4.06-.27.56-1.2,2.49-3.22,3.63-1.34.76-2.8.82-5.72.96-1.56.07-2.85.04-3.76,0v1.4c.91-.04,2.21-.07,3.76,0,2.93.13,4.39.2,5.72.96,2.02,1.14,2.94,3.07,3.22,3.63.75,1.57,1.02,3.4,1.12,4.06.05.32.08.59.09.78h.87v-20.24h-.87Z"/>
    <path d="m64.69,173.05c-.02.19-.05.45-.09.78-.09.65-.36,2.49-1.12,4.06-.27.56-1.2,2.49-3.22,3.63-1.34.76-2.8.82-5.72.96-1.56.07-2.85.04-3.76,0v1.4c.91-.04,2.21-.07,3.76,0,2.93.13,4.39.2,5.72.96,2.02,1.14,2.94,3.07,3.22,3.63.75,1.57,1.02,3.4,1.12,4.06.05.32.08.59.09.78h.87v-20.24h-.87Z"/>
    <path d="m201.02,173.05c-.02.19-.05.45-.09.78-.09.65-.36,2.49-1.12,4.06-.27.56-1.2,2.49-3.22,3.63-1.34.76-2.8.82-5.72.96-1.56.07-2.85.04-3.76,0v1.4c.91-.04,2.21-.07,3.76,0,2.93.13,4.39.2,5.72.96,2.02,1.14,2.94,3.07,3.22,3.63.75,1.57,1.02,3.4,1.12,4.06.05.32.08.59.09.78h.87v-20.24h-.87Z"/>
    <path d="m213.6,193.55c-.42,2.48-1.3,4.3-1.95,5.41-2.28,3.92-5.71,5.93-7.6,6.69-1.3.52-2.64.78-2.64.78-.93.17-1.91.26-2.94.26h-11.02v-44.7h10.69c1.31,0,3.37.2,5.58,1.24,3.55,1.68,5.32,4.52,5.98,5.75.62,1.15.95,2.19,1.14,2.92h.87v-11.49h-40.19v1.58h6.18v44.7h-6.18v1.58h42.95v-14.72h-.87Z"/>
    <path d="m35.23,160.42v1.58h6.18v44.7h-6.18v1.58h22.18v-1.58h-6.25v-44.7h10.15c1.79,0,3.35.25,4.67.74,1.74.65,2.84,1.59,3.46,2.12,2.79,2.36,4.06,5.33,4.64,7.06h.87v-11.49h-39.72Z"/>
  </g>
</svg>