<svg width="83" height="76" viewBox="0 0 83 76" fill="none" xmlns="http://www.w3.org/2000/svg">
<path d="M41.7728 75.2959C40.1322 75.2959 38.7187 74.266 37.4894 73.3468C36.5813 72.6787 35.7246 72.0446 34.9493 71.8999C34.174 71.7552 33.0218 72.0403 31.951 72.3254C30.4046 72.751 28.8027 73.1766 27.3335 72.5723C25.8643 71.968 24.9733 70.5423 24.1423 69.1677C23.5555 68.1932 22.9987 67.2697 22.3262 66.8313C21.6537 66.393 20.5143 66.2398 19.422 66.0951C17.8243 65.8866 16.1752 65.6695 15.0315 64.5545C13.8879 63.4395 13.6266 61.7969 13.3867 60.2137C13.2239 59.1285 13.0569 58.0093 12.5943 57.3369C12.1317 56.6645 11.2022 56.141 10.2127 55.575C8.80776 54.775 7.35569 53.9451 6.72603 52.4641C6.09637 50.9831 6.50758 49.417 6.89308 47.8765C7.16294 46.804 7.44136 45.6976 7.27431 44.8975C7.10725 44.0974 6.46046 43.2931 5.77512 42.4037C4.8242 41.1823 3.75335 39.7949 3.7405 38.148C3.72765 36.501 4.7728 35.1094 5.69802 33.8923C6.37479 32.9901 7.00874 32.1389 7.15437 31.3729C7.30001 30.6069 7.01302 29.4536 6.72603 28.3939C6.29769 26.8576 5.86935 25.266 6.47759 23.8063C7.08584 22.3466 8.52078 21.4614 9.90431 20.6358C10.8852 20.0528 11.8147 19.5038 12.2559 18.8356C12.6971 18.1675 12.8556 17.0312 12.9969 15.946C13.2068 14.3629 13.4253 12.7202 14.5475 11.5882C15.6698 10.4562 17.3189 10.2093 18.9123 9.97102C20.0003 9.80931 21.1268 9.64333 21.8036 9.18372C22.4804 8.7241 23.0072 7.80487 23.5769 6.81755C24.3822 5.42594 25.2175 3.98326 26.7081 3.35342C28.1987 2.72358 29.775 3.13638 31.3299 3.52365C32.405 3.7875 33.5187 4.06412 34.3282 3.89815C35.1378 3.73218 35.9431 3.09382 36.8383 2.40866C38.0719 1.46815 39.4683 0.399968 41.1217 0.387201C42.7751 0.374434 44.1758 1.41708 45.4051 2.33631C46.3132 3.00445 47.1699 3.63855 47.9452 3.78325C48.7205 3.92794 49.8727 3.63855 50.9435 3.35768C52.4898 2.93211 54.0918 2.50654 55.561 3.11085C57.0303 3.71515 57.9212 5.14081 58.7522 6.5154C59.339 7.48995 59.8916 8.40918 60.5683 8.84752C61.2451 9.28586 62.3802 9.44332 63.4725 9.58801C65.0659 9.79654 66.7193 10.0136 67.863 11.1286C69.0066 12.2436 69.2508 13.8777 69.4864 15.4609C69.6491 16.5418 69.8162 17.6611 70.2788 18.3335C70.7414 19.0059 71.6709 19.5293 72.6604 20.0953C74.0653 20.8996 75.5174 21.7295 76.1471 23.2062C76.7767 24.683 76.3655 26.2533 75.98 27.7981C75.7102 28.8663 75.4317 29.9728 75.5988 30.7771C75.7658 31.5814 76.4126 32.3815 77.098 33.2752C78.0446 34.4966 79.1197 35.8839 79.1326 37.5309C79.1454 39.1778 78.1003 40.5652 77.1751 41.7866C76.4983 42.6845 75.8643 43.5399 75.7187 44.306C75.5731 45.072 75.8601 46.221 76.1471 47.2849C76.5754 48.8212 77.0037 50.4086 76.3955 51.8726C75.7872 53.3365 74.3523 54.2132 72.9688 55.0388C71.9879 55.6218 71.0584 56.1751 70.6172 56.8432C70.176 57.5114 70.0175 58.6434 69.8762 59.7286C69.6663 61.316 69.4478 62.9544 68.3256 64.0907C67.2033 65.2269 65.5542 65.4695 63.9608 65.7078C62.8728 65.8696 61.7463 66.0355 61.0695 66.4909C60.3927 66.9462 59.8659 67.874 59.2962 68.857C58.4909 70.2529 57.6556 71.6956 56.165 72.3254C54.6744 72.9553 53.0981 72.5425 51.5432 72.1552C50.4681 71.8871 49.3544 71.6105 48.5448 71.7807C47.7353 71.9509 46.93 72.585 46.0348 73.2702C44.8097 74.215 43.4133 75.2789 41.7728 75.2959ZM34.3754 69.7295C34.6928 69.7245 35.01 69.7516 35.322 69.8103C36.577 70.0444 37.6779 70.853 38.7487 71.636C39.8196 72.4191 40.8304 73.1766 41.7471 73.1681C42.6637 73.1596 43.6703 72.3935 44.7455 71.5849C45.8206 70.7764 46.8872 69.9593 48.1293 69.6997C49.3715 69.4401 50.7808 69.772 52.0915 70.0955C53.4022 70.4189 54.5544 70.7083 55.3554 70.3678C56.1564 70.0274 56.8032 68.9422 57.4629 67.8144C58.1225 66.6866 58.8164 65.478 59.8873 64.7503C60.9581 64.0226 62.3417 63.814 63.6695 63.6183C64.9974 63.4225 66.201 63.2438 66.8221 62.6139C67.4432 61.9841 67.606 60.7627 67.7773 59.469C67.9486 58.1753 68.1328 56.7794 68.8524 55.6899C69.572 54.6005 70.75 53.9111 71.8936 53.2301C73.0373 52.5492 74.1039 51.9194 74.4637 51.1023C74.8235 50.2852 74.4637 49.1191 74.1296 47.8637C73.7955 46.6083 73.4185 45.2294 73.6627 43.9357C73.9068 42.642 74.7164 41.5993 75.5045 40.5312C76.2927 39.463 77.0508 38.4586 77.0423 37.5522C77.0337 36.6457 76.267 35.6456 75.4531 34.5945C74.6393 33.5433 73.8126 32.4666 73.5556 31.2282C73.2986 29.9898 73.6241 28.5982 73.9539 27.2959C74.2838 25.9937 74.5665 24.8447 74.2281 24.0531C73.8897 23.2616 72.7932 22.6104 71.6581 21.9551C70.5229 21.2997 69.3022 20.6103 68.574 19.5463C67.8458 18.4824 67.6317 17.1078 67.4346 15.7886C67.2376 14.4693 67.0534 13.2734 66.4237 12.6564C65.7941 12.0393 64.5605 11.8818 63.254 11.7073C61.9476 11.5329 60.5469 11.3541 59.4547 10.6392C58.3624 9.92421 57.6642 8.75815 56.9788 7.61763C56.2935 6.4771 55.6553 5.42169 54.8372 5.08974C54.019 4.7578 52.8368 5.08974 51.5775 5.41743C50.3182 5.74512 48.9261 6.12388 47.6239 5.8813C46.3218 5.63873 45.268 4.8344 44.1972 4.05135C43.1263 3.26831 42.1155 2.51505 41.1988 2.52356C40.2822 2.53207 39.2756 3.29384 38.2004 4.10242C37.1253 4.911 36.0587 5.73235 34.8165 5.99195C33.5744 6.25154 32.1651 5.9196 30.8544 5.59617C29.5437 5.27274 28.3915 4.98335 27.5905 5.31955C26.7895 5.65575 26.1427 6.74521 25.4787 7.87297C24.8148 9.00073 24.1295 10.2136 23.0586 10.9371C21.9878 11.6605 20.6042 11.8733 19.2764 12.0733C17.9485 12.2734 16.7449 12.4478 16.1238 13.0734C15.5027 13.699 15.3399 14.9246 15.1686 16.2226C14.9973 17.5206 14.8131 18.9122 14.0935 19.9974C13.3739 21.0826 12.1959 21.7806 11.0523 22.4572C9.9086 23.1339 8.84203 23.7722 8.50364 24.5851C8.16525 25.3979 8.50364 26.5682 8.83775 27.8237C9.17185 29.0791 9.54879 30.4579 9.30464 31.7517C9.06048 33.0454 8.25092 34.088 7.46278 35.1562C6.67463 36.2244 5.91647 37.2287 5.92504 38.1352C5.9336 39.0417 6.70033 40.046 7.51418 41.1142C8.32802 42.1824 9.15472 43.242 9.41172 44.4762C9.66873 45.7103 9.34319 47.1105 9.01337 48.4127C8.68355 49.7149 8.40084 50.8597 8.73923 51.6555C9.07762 52.4514 10.1742 53.0982 11.3093 53.7536C12.4444 54.409 13.6651 55.0984 14.3933 56.1623C15.1215 57.2262 15.3357 58.6008 15.5327 59.9201C15.7297 61.2394 15.9096 62.431 16.5436 63.048C17.1775 63.6651 18.4069 63.8268 19.709 63.997C21.0112 64.1673 22.4204 64.3545 23.5127 65.0652C24.6049 65.7759 25.3031 66.9505 25.9885 68.0868C26.6738 69.223 27.312 70.2827 28.1302 70.6189C28.9483 70.9551 30.1305 70.6189 31.3898 70.2912C32.3577 69.9816 33.3606 69.7929 34.3754 69.7295Z" fill="url(#paint0_linear_0_4)"/>
<path d="M41.7257 69.8784C41.2626 69.844 40.818 69.6835 40.4406 69.4145L40.6077 69.1422C40.9315 69.3789 41.313 69.5258 41.7128 69.5677L41.7257 69.8784ZM42.0384 69.8401L41.9613 69.5294C42.3519 69.4085 42.7185 69.2213 43.045 68.9762L43.2291 69.2401C42.8688 69.5048 42.4662 69.7076 42.0384 69.8401ZM39.3826 68.6783L39.2242 68.5592C38.9329 68.3464 38.6459 68.1336 38.3675 67.9293L38.5474 67.6697C38.8472 67.874 39.1385 68.0953 39.4298 68.2996L39.5925 68.423L39.3826 68.6783ZM44.2657 68.4698L44.073 68.2187C44.4371 67.9378 44.7669 67.691 45.1138 67.4569L45.2937 67.7165C44.9553 67.9506 44.6298 68.1974 44.2657 68.4698ZM29.8221 67.6442C29.6639 67.6404 29.5076 67.6102 29.3595 67.5548C29.0726 67.4204 28.8227 67.2189 28.6313 66.9675L28.8755 66.7632C29.0348 66.9729 29.2417 67.142 29.4794 67.2569C29.5934 67.2987 29.7135 67.3217 29.835 67.325L29.8221 67.6442ZM53.8948 67.3973L53.8177 67.0867C53.8562 67.0784 53.8936 67.0656 53.9291 67.0484C54.2376 66.8779 54.4972 66.6318 54.6829 66.3334L54.9442 66.5207C54.7255 66.8678 54.418 67.1512 54.0533 67.342L53.8948 67.3973ZM52.5498 67.3505C52.1643 67.2782 51.7574 67.176 51.3248 67.0697L51.3633 66.7505C51.8302 66.8654 52.22 66.9675 52.6098 67.0356L52.5498 67.3505ZM31.1328 67.4739L31.06 67.1633C31.3598 67.0952 31.6682 67.0143 31.9895 66.9292L32.3022 66.8441L32.3836 67.1548L32.0795 67.2356C31.7496 67.325 31.4327 67.4059 31.1328 67.4739ZM37.2709 67.2782C36.9005 67.0919 36.5095 66.949 36.1058 66.8526L36.1787 66.542C36.6086 66.6466 37.0242 66.8024 37.4166 67.0058L37.2709 67.2782ZM46.3774 67.0824L46.2404 66.7973C46.6168 66.6076 47.0153 66.4646 47.4269 66.3717H47.4911L47.5554 66.6866H47.4911C47.1024 66.7734 46.7256 66.9063 46.3689 67.0824H46.3774ZM50.044 66.776C49.632 66.6896 49.2138 66.6355 48.7933 66.6143V66.2951C49.2252 66.3186 49.6547 66.3741 50.0783 66.4611L50.044 66.776ZM33.6215 66.8654L33.5615 66.5505C33.9851 66.4672 34.4149 66.4188 34.8465 66.4058V66.7207C34.435 66.7365 34.0253 66.7849 33.6215 66.8654ZM27.886 65.8993C27.7832 65.7376 27.6847 65.5717 27.5862 65.4057C27.4877 65.2397 27.3463 65.0056 27.2221 64.8099L27.4962 64.6397C27.6204 64.8397 27.7404 65.0439 27.8603 65.2397C27.9802 65.4355 28.0573 65.5717 28.1601 65.7334L27.886 65.8993ZM55.6381 65.427L55.3597 65.2652L55.5096 65.0056C55.6724 64.7248 55.8352 64.4396 56.0108 64.1545L56.2849 64.3247C56.1136 64.6014 55.9508 64.8822 55.7881 65.1759L55.6381 65.427ZM26.511 63.7672C26.2588 63.4344 25.9716 63.1291 25.6544 62.8565L25.8642 62.6139C26.1964 62.9002 26.4966 63.2213 26.7595 63.5715L26.511 63.7672ZM57.0003 63.2906L56.7475 63.0948C57.0206 62.7501 57.3309 62.4362 57.6728 62.1586L57.8741 62.4097C57.5504 62.6698 57.2573 62.9653 57.0003 63.2906ZM24.6221 62.1841C24.2432 62.0037 23.8471 61.8611 23.4398 61.7586L23.5212 61.4521C23.9474 61.5517 24.3622 61.6943 24.7591 61.8777L24.6221 62.1841ZM58.9364 61.7798L58.8121 61.4862C59.215 61.3169 59.6321 61.183 60.0586 61.0862L60.1314 61.3968C59.7223 61.4887 59.3224 61.6168 58.9364 61.7798ZM22.1977 61.5373L21.5252 61.4436L20.9169 61.3628L20.964 61.0479L21.5423 61.1245L22.2405 61.2223L22.1977 61.5373ZM61.3822 61.1628L61.3308 60.8436L61.7206 60.7883C62.0375 60.7414 62.3245 60.6989 62.5772 60.6478L62.6329 60.9627C62.3545 61.0138 62.0675 61.0564 61.7762 61.0989L61.3822 61.1628ZM19.6405 61.1074C19.3431 61.0278 19.0678 60.8823 18.8352 60.6819C18.7185 60.5561 18.623 60.4124 18.5525 60.2563L18.8438 60.1201C18.8976 60.2382 18.9715 60.3462 19.0622 60.4393C19.2564 60.6036 19.4868 60.7202 19.7347 60.7797L19.6405 61.1074ZM63.9308 60.6393L63.8066 60.3457C63.9651 60.286 64.1106 60.1964 64.2349 60.0818C64.3768 59.9185 64.4819 59.727 64.5433 59.5201L64.8474 59.6222C64.7719 59.8763 64.6402 60.1103 64.4619 60.3074C64.3088 60.4519 64.1282 60.5647 63.9308 60.6393ZM18.1884 59.0221C18.1327 58.7157 18.0813 58.3923 18.0342 58.0731L17.9871 57.7582L18.3041 57.7071L18.3512 58.0135C18.3983 58.3412 18.4497 58.6604 18.5054 58.9626L18.1884 59.0221ZM65.1173 58.3497L64.8003 58.3029C64.8303 58.0774 64.8646 57.8518 64.8903 57.6263C64.916 57.4007 64.946 57.2347 64.9717 57.0347L65.2929 57.0815C65.2629 57.2773 65.2372 57.4688 65.2115 57.6603C65.1858 57.8518 65.1516 58.1157 65.1173 58.3412V58.3497ZM17.7601 56.5028C17.6702 56.0957 17.5456 55.6971 17.3874 55.3112L17.6872 55.1878C17.8496 55.5909 17.9786 56.0065 18.0727 56.4304L17.7601 56.5028ZM65.5199 55.8304L65.2072 55.758C65.309 55.3323 65.4525 54.9175 65.6356 54.5196L65.9269 54.6515C65.7554 55.0314 65.6192 55.4259 65.5199 55.8304ZM16.7792 54.2558C16.5293 53.9285 16.2418 53.6315 15.9225 53.3706L16.1281 53.1237C16.4711 53.3987 16.7802 53.713 17.049 54.06L16.7792 54.2558ZM66.5608 53.6217L66.3166 53.4174C66.598 53.0819 66.9154 52.7779 67.2633 52.5109L67.4603 52.762C67.1321 53.0114 66.8306 53.2937 66.5608 53.6046V53.6217ZM14.8773 52.6301C14.5689 52.4386 14.252 52.2598 13.9393 52.0811L13.7765 51.9832L13.935 51.7066L14.0978 51.8002C14.4147 51.9832 14.736 52.1662 15.0487 52.3577L14.8773 52.6301ZM68.5055 52.0258L68.3341 51.7577L69.0195 51.3321L69.4478 51.0853L69.6149 51.3576L69.2336 51.5874L69.118 51.4725L69.1994 51.6087C68.9595 51.7492 68.7282 51.8853 68.5055 52.0258ZM12.6714 51.3066C12.2805 51.0795 11.9603 50.7496 11.7462 50.3533L11.8832 50.2682L12.0332 50.2086C12.2256 50.5604 12.5096 50.8544 12.8556 51.0597L12.6714 51.3066ZM70.6814 50.6427L70.4801 50.3916C70.729 50.2213 70.9308 49.9915 71.0669 49.7235C71.0984 49.6429 71.1186 49.5584 71.1269 49.4724L71.4439 49.5107C71.434 49.6262 71.4066 49.7395 71.3625 49.8469C71.2056 50.1642 70.9715 50.4378 70.6814 50.6427ZM12.0374 49.0298L11.7205 48.9744C11.7847 48.5872 11.8918 48.1574 12.0032 47.6977L12.3159 47.7743C12.2002 48.2467 12.1017 48.651 12.0374 49.0298ZM70.9984 48.2637C70.9213 47.9276 70.8271 47.5701 70.7328 47.2211L70.6814 47.0339L70.9898 46.9487L71.0412 47.1402C71.1398 47.4935 71.234 47.8509 71.3111 48.1957L70.9984 48.2637ZM12.6114 46.5615L12.2944 46.4976C12.3814 46.0877 12.4415 45.6726 12.4743 45.255L12.7913 45.2763C12.7582 45.7037 12.6981 46.1287 12.6114 46.5487V46.5615ZM70.3773 45.7954C70.2897 45.3746 70.2339 44.9478 70.2103 44.5187H70.5315C70.5529 44.9366 70.6073 45.3521 70.6943 45.7614L70.3773 45.7954ZM12.4229 44.0166C12.4229 43.9612 12.4229 43.9059 12.3887 43.8506C12.3151 43.5032 12.203 43.1649 12.0546 42.842L12.3458 42.7101C12.5053 43.0547 12.626 43.4158 12.7057 43.7868C12.7057 43.8463 12.7057 43.9059 12.7399 43.9655L12.4229 44.0166ZM70.6257 43.2591L70.313 43.1952C70.4027 42.7661 70.5466 42.35 70.7414 41.9568L71.0284 42.0972C70.8488 42.463 70.7136 42.8488 70.6257 43.2463V43.2591ZM11.4335 41.744C11.1893 41.3823 10.9152 41.0291 10.6796 40.7227L10.9366 40.5269C11.1722 40.8376 11.4506 41.1993 11.6991 41.5653L11.4335 41.744ZM71.6795 41.0035L71.4139 40.8248C71.6409 40.4971 71.8808 40.1737 72.1164 39.8545L72.1721 39.7864L72.4291 39.9737L72.3777 40.046C72.1421 40.3609 71.9022 40.6801 71.6795 41.0035ZM9.90431 39.6928C9.63601 39.3398 9.421 38.9499 9.26608 38.5352L9.57449 38.4374C9.71794 38.8224 9.91863 39.1839 10.1699 39.5098L9.90431 39.6928ZM73.1744 38.9353L72.9045 38.765C73.1402 38.4371 73.3023 38.0626 73.38 37.6671L73.7012 37.7011C73.6211 38.1466 73.441 38.5684 73.1744 38.9353ZM9.75011 37.3351L9.46312 37.1904C9.6722 36.8096 9.90839 36.4441 10.1699 36.0967L10.4312 36.284C10.1787 36.6174 9.95106 36.9687 9.75011 37.3351ZM73.003 36.5648C72.7974 36.2286 72.5276 35.8712 72.2706 35.535L72.5276 35.3392C72.7889 35.6839 73.063 36.0499 73.2772 36.3989L73.003 36.5648ZM11.1936 35.2541L10.9323 35.0668C11.1829 34.7294 11.4146 34.3785 11.6262 34.0157L11.9047 34.1731C11.6869 34.5456 11.4495 34.9064 11.1936 35.2541ZM71.491 34.5136C71.2328 34.1655 70.9967 33.8016 70.7842 33.4242L71.0669 33.2709C71.2707 33.638 71.4997 33.9906 71.7523 34.3264L71.491 34.5136ZM12.4529 32.9773L12.1445 32.8794C12.2065 32.6973 12.2552 32.511 12.2902 32.3219C12.3293 32.1067 12.355 31.8892 12.3673 31.6708H12.6885C12.677 31.905 12.6498 32.1381 12.6071 32.3687C12.5683 32.5745 12.5168 32.7778 12.4529 32.9773ZM70.2788 32.2155C70.2488 32.1049 70.2188 31.9985 70.1974 31.8878C70.1318 31.567 70.0974 31.2407 70.0946 30.9133H70.4159C70.4181 31.2206 70.4497 31.5269 70.5101 31.8283C70.5315 31.9304 70.5572 32.0325 70.5872 32.1304L70.2788 32.2155ZM12.2902 30.4239C12.2256 30.0084 12.1399 29.5965 12.0332 29.1897L12.3458 29.1131C12.4701 29.6025 12.5514 30.0068 12.6071 30.3898L12.2902 30.4239ZM70.5144 29.6621L70.1974 29.611C70.2702 29.1514 70.373 28.7174 70.463 28.3343L70.7757 28.4109C70.6857 28.794 70.5872 29.2238 70.5144 29.6706V29.6621ZM11.7076 27.9598C11.5906 27.5413 11.5061 27.1145 11.4549 26.6831L11.7762 26.6533C11.8264 27.0643 11.9065 27.4711 12.016 27.8705L11.7076 27.9598ZM71.0798 27.1853L70.7671 27.113C70.8669 26.7159 70.9229 26.3092 70.9341 25.9001H71.2554C71.2458 26.3351 71.1869 26.7676 71.0798 27.1896V27.1853ZM12.0631 25.5937L11.8276 25.3809C12.1362 25.0653 12.4846 24.7907 12.8641 24.5638L13.0398 24.8319C12.6844 25.0457 12.3565 25.3015 12.0631 25.5937ZM70.4287 24.917C70.1066 24.65 69.7611 24.4122 69.3964 24.2063L69.5592 23.934C69.9414 24.1491 70.304 24.3968 70.6429 24.6744L70.4287 24.917ZM14.132 24.1723L13.965 23.8957C14.3119 23.6914 14.6846 23.4701 15.0401 23.2147L15.2243 23.4743C14.8602 23.7297 14.4833 23.9595 14.132 24.1723ZM68.287 23.568C67.9786 23.3892 67.576 23.1424 67.1905 22.87L67.3789 22.6104C67.7242 22.8551 68.0816 23.0823 68.4498 23.2913L68.287 23.568ZM16.2352 22.6445L16.0082 22.4189C16.2404 22.1895 16.4485 21.9371 16.6292 21.6657C16.6764 21.5933 16.7235 21.521 16.7663 21.4486L17.0447 21.6061C16.9976 21.6869 16.9505 21.7636 16.8991 21.8402C16.7065 22.1304 16.484 22.4 16.2352 22.6445ZM66.1967 22.0146C66.0224 21.8294 65.8621 21.6317 65.717 21.4231C65.6185 21.2741 65.5199 21.1124 65.43 20.9465L65.717 20.7975C65.9051 21.1637 66.1461 21.5007 66.4323 21.7976L66.1967 22.0146ZM17.5587 20.4017L17.2503 20.3081C17.3694 19.9059 17.4624 19.4965 17.5288 19.0825L17.8457 19.1378C17.7765 19.5646 17.6806 19.9867 17.5587 20.4017ZM64.9545 19.7251C64.8371 19.3052 64.7442 18.8789 64.6761 18.4484L64.9931 18.3973C65.0588 18.8121 65.1489 19.2228 65.2629 19.6272L64.9545 19.7251ZM18.0299 17.8653L17.7129 17.8228C17.7686 17.3972 17.8329 16.9716 17.9228 16.5461L18.2355 16.6142C18.1498 17.0099 18.0984 17.4483 18.0299 17.8653ZM64.4791 17.1972C64.4194 16.7837 64.3336 16.3743 64.2221 15.9716L64.5305 15.8779C64.6462 16.2975 64.7349 16.7239 64.796 17.1546L64.4791 17.1972ZM18.7067 15.5587L18.4925 15.3204C18.8605 15.0484 19.2899 14.8701 19.7433 14.8012L19.8118 15.1034C19.4125 15.1667 19.0339 15.3227 18.7067 15.5587ZM63.6053 15.0396C63.2313 14.8651 62.8326 14.7488 62.423 14.6948L62.4787 14.3799C62.9246 14.4373 63.3585 14.5652 63.7637 14.7587L63.6053 15.0396ZM21.0668 14.8949L21.0197 14.5799H21.0968C21.4823 14.5246 21.8807 14.465 22.279 14.3842L22.3433 14.6991C21.915 14.78 21.5337 14.8395 21.1439 14.8949H21.0668ZM61.1594 14.5118C60.7739 14.4608 60.3242 14.4012 59.8744 14.3118L59.9387 14.0012C60.367 14.0863 60.8168 14.1459 61.198 14.1969L61.1594 14.5118ZM23.6069 14.3629L23.5041 14.0607C23.8987 13.9302 24.2768 13.7545 24.6306 13.5373L24.802 13.8054C24.4271 14.0374 24.026 14.2245 23.6069 14.3629ZM58.6151 13.9714C58.2395 13.8338 57.8804 13.6554 57.5443 13.4394L57.4415 13.3713L57.6214 13.1075L57.7199 13.1756C58.0348 13.3787 58.3726 13.5444 58.7265 13.6692L58.6151 13.9714ZM25.8086 12.9755L25.573 12.7585C25.8573 12.4514 26.1152 12.1211 26.344 11.7712L26.6096 11.9499C26.3711 12.3129 26.1032 12.6559 25.8086 12.9755ZM56.4563 12.5074C56.1705 12.1802 55.9086 11.8332 55.6724 11.469L55.9423 11.2945C56.1699 11.6449 56.4218 11.9791 56.6961 12.2946L56.4563 12.5074ZM27.2863 10.8477L27.0079 10.6902L27.1107 10.5158C27.2949 10.2008 27.4791 9.8774 27.6676 9.58376L27.9374 9.75398C27.7532 10.0476 27.569 10.3625 27.3891 10.6775L27.2863 10.8477ZM54.9999 10.3753C54.7558 9.97528 54.5416 9.6178 54.3189 9.30714L54.5801 9.12414C54.8072 9.44332 55.0299 9.80505 55.274 10.2136L54.9999 10.3753ZM47.9494 9.27735C47.7104 9.28203 47.4713 9.26923 47.2341 9.23905L47.2727 8.92413C47.6869 8.96885 48.1049 8.96885 48.5191 8.92413L48.5491 9.2433C48.3435 9.24756 48.1422 9.26032 47.9494 9.26032V9.27735ZM34.4567 9.3965C34.1619 9.3956 33.8673 9.37856 33.5744 9.34544L33.6129 9.02626C34.0278 9.07808 34.4468 9.08806 34.8637 9.05605L34.8894 9.37523C34.748 9.37097 34.6024 9.37523 34.4567 9.37948V9.3965ZM49.8341 9.02626L49.7613 8.71559C50.1168 8.63474 50.4681 8.54111 50.8107 8.44749L51.0035 8.39642L51.0849 8.70708L50.9007 8.7539C50.5452 8.83476 50.1939 8.92838 49.8341 9.00924V9.02626ZM36.183 9.08584L36.0716 8.78794C36.4614 8.63987 36.8358 8.45459 37.1896 8.2347L37.3566 8.50707C36.9845 8.73135 36.5914 8.91948 36.183 9.06882V9.08584ZM32.2936 9.11563L31.4969 8.91987L31.0429 8.80922L31.12 8.49856L31.574 8.61346L32.3664 8.80071L32.2936 9.11563ZM45.9534 8.90285C45.5497 8.73327 45.1613 8.52967 44.7926 8.29428L44.9639 8.02192C45.3145 8.25037 45.6859 8.44557 46.0733 8.60495L45.9534 8.90285ZM28.7084 8.80071L28.5028 8.55388C28.6075 8.46763 28.7226 8.39472 28.8455 8.33684C29.1644 8.23326 29.5033 8.20556 29.835 8.25598L29.805 8.57516C29.519 8.52646 29.2255 8.54541 28.9483 8.63048C28.8624 8.67175 28.7819 8.72319 28.7084 8.78369V8.80071ZM53.4836 8.45174L53.4193 8.42195C53.0596 8.3308 52.6825 8.3308 52.3228 8.42195L52.2671 8.10703C52.69 8.00053 53.1339 8.00935 53.5521 8.13257L53.6464 8.17512L53.4836 8.45174ZM38.4275 7.76658L38.2304 7.51124L38.6588 7.19206L38.6887 7.16652L39.2541 6.74095L39.4469 7.00055L38.8858 7.42612L38.8515 7.45165L38.4275 7.76658ZM43.7303 7.55805L43.5033 7.39207C43.2163 7.18354 42.955 6.96651 42.6937 6.80905L42.8779 6.54519C43.1392 6.72819 43.4048 6.92395 43.6703 7.11971L43.9188 7.3027L43.7303 7.55805ZM40.5006 6.31964L40.3593 6.03451C40.608 5.89702 40.8847 5.81702 41.1688 5.80045C41.3563 5.80467 41.5418 5.84065 41.7171 5.90684L41.6057 6.20899C41.4691 6.15508 41.3243 6.12486 41.1774 6.11962C40.9412 6.13196 40.7105 6.19436 40.5006 6.30262V6.31964Z" fill="url(#paint1_linear_0_4)"/>
<path d="M41.6957 66.3334C41.066 66.3334 40.2479 65.7334 39.4598 65.1546C38.556 64.4907 37.6265 63.8013 36.5214 63.597C36.2391 63.5435 35.952 63.5193 35.6647 63.5247C34.8006 63.5691 33.9457 63.7221 33.1203 63.98C32.5042 64.1743 31.8674 64.2971 31.2228 64.346C31.039 64.3528 30.8557 64.3239 30.6831 64.2609C30.1177 64.0353 29.6037 63.18 29.1025 62.3501C28.52 61.3798 27.9203 60.384 26.9608 59.7626C26.0013 59.1413 24.7806 58.9711 23.7012 58.8306C22.746 58.7072 21.7522 58.5753 21.3239 58.1582C20.8955 57.7412 20.7456 56.7581 20.6043 55.8091C20.4458 54.7409 20.2616 53.5323 19.6105 52.5833C18.9594 51.6343 17.9571 51.0683 16.9762 50.5108C16.1195 50.0256 15.2629 49.5277 15.0187 48.9659C14.7746 48.4042 15.0187 47.4722 15.2629 46.5487C15.5242 45.4975 15.824 44.306 15.5884 43.1739C15.3528 42.0419 14.6546 41.161 13.9693 40.2801C13.3739 39.5055 12.7528 38.7055 12.7485 38.0756C12.7442 37.4458 13.3482 36.6415 13.9307 35.8541C14.6032 34.9605 15.2929 34.0327 15.5027 32.9347C15.7126 31.8368 15.3956 30.6111 15.1129 29.5685C14.8645 28.645 14.6075 27.6917 14.8302 27.1513C15.053 26.6108 15.9225 26.0746 16.7578 25.5767C17.7301 24.9979 18.7324 24.4021 19.3621 23.4488C19.9917 22.4955 20.1545 21.2827 20.2959 20.2145C20.4244 19.2612 20.5529 18.2739 20.9726 17.8483C21.3924 17.4227 22.3862 17.278 23.3414 17.1334C24.4165 16.9759 25.633 16.7929 26.5839 16.1503C27.5348 15.5077 28.1088 14.5033 28.6742 13.5288C29.1582 12.6776 29.6594 11.8265 30.2248 11.5839C30.3955 11.519 30.5775 11.4886 30.7602 11.4946C31.4051 11.5298 32.0436 11.6413 32.662 11.8265C33.4967 12.0777 34.3605 12.2208 35.2321 12.2521C35.5196 12.2492 35.8063 12.2207 36.0887 12.167C37.1896 11.9414 38.1105 11.2392 38.9972 10.5583C39.7767 9.96251 40.582 9.34544 41.216 9.34118C41.8499 9.33692 42.6638 9.93698 43.4519 10.52C44.3514 11.1839 45.2809 11.8691 46.3903 12.0776C46.6729 12.1289 46.9598 12.1531 47.247 12.1499C48.1022 12.1048 48.9484 11.9532 49.7656 11.6988C50.3817 11.5042 51.0185 11.3814 51.6632 11.3328C51.8453 11.3244 52.0273 11.3519 52.1986 11.4137C52.7683 11.6435 53.2866 12.5032 53.7835 13.333C54.366 14.2991 54.9657 15.2949 55.9252 15.9162C56.8846 16.5376 58.1054 16.7035 59.1805 16.844C60.1443 16.9716 61.1338 17.0993 61.5621 17.5206C61.9904 17.9419 62.1404 18.9207 62.2817 19.874C62.4402 20.9379 62.6244 22.1466 63.2712 23.0913C63.918 24.0361 64.9289 24.6064 65.9097 25.1681C66.7664 25.649 67.6231 26.1512 67.8673 26.7087C68.1114 27.2662 67.8673 28.2067 67.6231 29.1302C67.3575 30.1813 67.0577 31.3729 67.2976 32.5049C67.5374 33.6369 68.2313 34.5136 68.9167 35.3988C69.5121 36.1733 70.1332 36.9734 70.1375 37.599C70.1418 38.2246 69.5378 39.0374 68.9552 39.8205C68.2827 40.7184 67.5931 41.6419 67.3832 42.7441C67.1734 43.8463 67.486 45.0635 67.7687 46.1104C68.0215 47.0339 68.2785 47.9829 68.0557 48.5276C67.833 49.0723 66.9635 49.6043 66.1282 50.1022C65.1559 50.681 64.1536 51.2768 63.5239 52.2301C62.8942 53.1833 62.7315 54.4005 62.5901 55.4686C62.4616 56.4219 62.3331 57.405 61.9091 57.8305C61.485 58.2561 60.5041 58.3838 59.5403 58.5115C58.4652 58.6732 57.2487 58.8519 56.2978 59.4988C55.3469 60.1457 54.7729 61.1457 54.2075 62.1203C53.7235 62.9714 53.2223 63.8226 52.6569 64.0609C52.4872 64.1297 52.3046 64.1616 52.1215 64.1545C51.4766 64.1156 50.8385 64.0027 50.2197 63.8183C49.3845 63.5691 48.521 63.4261 47.6496 63.3927C47.3619 63.3913 47.0747 63.4198 46.793 63.4779C45.6921 63.7034 44.7712 64.4056 43.8845 65.0865C43.1349 65.7121 42.3296 66.3249 41.6957 66.3334ZM35.6604 63.1927C35.9649 63.1873 36.2692 63.213 36.5685 63.2693C37.7464 63.4906 38.7102 64.1971 39.6354 64.8822C40.385 65.4355 41.156 66.0057 41.6786 66.0015C42.2011 65.9972 42.9636 65.4142 43.7046 64.8482C44.6213 64.1503 45.5722 63.4225 46.7458 63.1842C47.0431 63.1223 47.3459 63.0909 47.6496 63.0906C48.5425 63.1193 49.4279 63.2623 50.2839 63.5162C50.8764 63.6921 51.4872 63.8006 52.1044 63.8396C52.2504 63.848 52.3966 63.8247 52.5327 63.7715C52.9953 63.5757 53.4922 62.7203 53.9291 61.9671C54.5116 60.9585 55.1113 59.9201 56.1179 59.2392C57.1245 58.5583 58.3838 58.388 59.4932 58.2008C60.3499 58.0731 61.3308 57.9284 61.6778 57.5795C62.0247 57.2305 62.1532 56.2559 62.2646 55.4005C62.4145 54.2941 62.5773 53.0471 63.254 52.0258C63.9308 51.0044 64.9674 50.4044 65.9569 49.8086C66.7107 49.3575 67.5631 48.851 67.7559 48.3872C67.9486 47.9233 67.6788 47.0041 67.4561 46.1742C67.1648 45.0933 66.835 43.8719 67.0663 42.6633C67.2976 41.4546 68 40.5354 68.6897 39.6119C69.2465 38.8672 69.8162 38.1012 69.8119 37.582C69.8076 37.0628 69.1951 36.2712 68.6554 35.5733C67.9486 34.6583 67.2205 33.7178 66.9763 32.5475C66.7322 31.3772 67.0363 30.1175 67.3061 29.0323C67.516 28.1811 67.7559 27.2534 67.5674 26.8151C67.379 26.3767 66.5051 25.8575 65.747 25.4234C64.7318 24.8447 63.6867 24.2489 63.0013 23.2488C62.316 22.2487 62.1232 20.9975 61.9605 19.8996C61.832 19.0484 61.6863 18.0696 61.3308 17.7249C60.9753 17.3802 60.0029 17.2525 59.1377 17.1419C58.024 16.9972 56.769 16.8312 55.7453 16.1631C54.7215 15.4949 54.109 14.4608 53.5093 13.4777C53.081 12.7245 52.5498 11.8776 52.0787 11.6903C51.9417 11.6405 51.7957 11.6202 51.6503 11.6307C51.035 11.6809 50.4272 11.7994 49.8384 11.984C48.9866 12.2493 48.1043 12.4066 47.2127 12.4521C46.9083 12.4533 46.6045 12.4277 46.3046 12.3755C45.1267 12.1542 44.1629 11.4435 43.2334 10.7583C42.4881 10.2093 41.7171 9.63908 41.1903 9.64333C40.6634 9.64759 39.9052 10.2306 39.1685 10.7924C38.2519 11.4946 37.3009 12.218 36.1273 12.4606C35.8324 12.5185 35.5326 12.5484 35.2321 12.55C34.3392 12.5213 33.4538 12.3782 32.5978 12.1244C32.0053 11.9482 31.3945 11.8397 30.7773 11.801C30.6317 11.7937 30.4861 11.8154 30.349 11.8648C29.8864 12.0606 29.3895 12.916 28.9526 13.6735C28.3701 14.6821 27.7704 15.7205 26.7638 16.4014C25.7572 17.0823 24.4979 17.2525 23.3928 17.4355C22.5361 17.5674 21.5509 17.7121 21.2039 18.0611C20.857 18.4101 20.7285 19.3846 20.6128 20.24C20.4672 21.3465 20.3044 22.5934 19.6276 23.6148C18.9509 24.6361 17.9143 25.2362 16.9248 25.832C16.1709 26.2576 15.3185 26.7895 15.1258 27.2534C14.933 27.7173 15.2029 28.6365 15.4256 29.4664C15.7169 30.5473 16.0467 31.7687 15.8154 32.9773C15.5841 34.1859 14.8816 35.1051 14.192 36.0286C13.6352 36.7691 13.0655 37.5352 13.0698 38.0586C13.0741 38.5821 13.6609 39.3353 14.2263 40.0673C14.933 40.978 15.6612 41.9228 15.9054 43.0888C16.1495 44.2549 15.8454 45.5231 15.5756 46.6083C15.3657 47.4594 15.1258 48.3872 15.3143 48.8255C15.5027 49.2638 16.3723 49.7788 17.1347 50.2129C18.1456 50.7916 19.195 51.3917 19.8761 52.3875C20.5571 53.3834 20.7585 54.643 20.9212 55.741C21.0497 56.5921 21.1954 57.571 21.5466 57.9114C21.8978 58.2519 22.8787 58.3838 23.744 58.4987C24.8534 58.6434 26.1127 58.8094 27.1364 59.4775C28.1602 60.1457 28.7727 61.1798 29.3724 62.1671C29.8007 62.9161 30.3319 63.763 30.7987 63.9502C30.9363 63.9975 31.0818 64.0177 31.2271 64.0098C31.8411 63.96 32.4474 63.8415 33.0347 63.6566C33.8864 63.3913 34.7688 63.2355 35.6604 63.1927Z" fill="url(#paint2_linear_0_4)"/>
<path d="M58.9482 42.2726C60.9414 32.6762 54.7272 23.2914 45.0683 21.311C35.4094 19.3307 25.9635 25.5047 23.9703 35.1012C21.977 44.6976 28.1913 54.0824 37.8502 56.0628C47.5091 58.0431 56.955 51.869 58.9482 42.2726Z" fill="url(#paint3_linear_0_4)"/>
<path d="M82.7692 47.0041L0.502245 47.7105L3.43637 40.012L0.369461 32.1857L82.6321 31.4836L79.7022 39.08L82.7692 47.0041Z" fill="url(#paint4_linear_0_4)"/>
<path d="M7.67017 42.0522L8.00489 41.2589C8.21173 41.3795 8.432 41.4726 8.6657 41.5384C8.90393 41.5996 9.13503 41.6336 9.359 41.6405C9.58749 41.6427 9.79286 41.618 9.97512 41.5662C10.1619 41.5144 10.3097 41.4381 10.4183 41.3371C10.5316 41.2361 10.5874 41.1084 10.5858 40.9541C10.584 40.7725 10.5073 40.6394 10.3556 40.5546C10.2039 40.4653 10.0024 40.4219 9.75115 40.4244L8.57921 40.4361L8.57085 39.6054L9.66055 39.5945C9.88443 39.5923 10.0576 39.5452 10.18 39.4532C10.3071 39.3611 10.3698 39.2356 10.3682 39.0768C10.3668 38.9406 10.32 38.8321 10.2278 38.7513C10.1356 38.6659 10.0093 38.6036 9.84895 38.5644C9.69319 38.5251 9.51711 38.5087 9.32069 38.5152C9.12427 38.5216 8.92127 38.5554 8.71169 38.6165C8.50211 38.6776 8.3019 38.7613 8.11105 38.8677L7.76667 38.0199C8.07576 37.8579 8.40134 37.7457 8.74342 37.6833C9.09002 37.6163 9.4234 37.5971 9.74354 37.6257C10.0682 37.6497 10.3614 37.7194 10.623 37.8349C10.8845 37.9458 11.0939 38.0935 11.2512 38.2781C11.4084 38.4626 11.4883 38.682 11.4908 38.9362C11.4931 39.1632 11.4357 39.3658 11.3187 39.544C11.2017 39.7222 11.0363 39.8601 10.8225 39.9575C10.6133 40.0549 10.3717 40.105 10.0975 40.1077L10.1225 39.8623C10.4423 39.8592 10.7193 39.9109 10.9534 40.0175C11.192 40.1196 11.3763 40.2653 11.5061 40.4547C11.6405 40.6395 11.7089 40.8544 11.7114 41.0995C11.7137 41.3265 11.654 41.5314 11.5325 41.7142C11.4155 41.8924 11.2525 42.0439 11.0436 42.1685C10.8346 42.2932 10.5957 42.3863 10.3267 42.448C10.0577 42.5097 9.77013 42.5375 9.46392 42.5315C9.16228 42.5254 8.85801 42.4853 8.55111 42.4112C8.24417 42.3325 7.95052 42.2129 7.67017 42.0522Z" fill="white"/>
<path d="M12.0623 42.4308L14.1526 37.6432L15.2492 37.6323L17.4423 42.3773L16.2772 42.3889L14.4804 38.1983L14.919 38.1939L13.2 42.4195L12.0623 42.4308ZM13.1212 41.3988L13.4075 40.5583L15.8747 40.5338L16.1847 41.3684L13.1212 41.3988Z" fill="white"/>
<path d="M18.0785 42.371L18.0305 37.6046L22.403 37.5612L22.451 42.3276L21.3476 42.3385L21.3061 38.219L21.5622 38.4684L18.8894 38.495L19.1404 38.2405L19.1819 42.36L18.0785 42.371Z" fill="white"/>
<path d="M23.0988 42.3211L25.1891 37.5335L26.2856 37.5226L28.4787 42.2677L27.3136 42.2793L25.5168 38.0887L25.9554 38.0843L24.2364 42.3098L23.0988 42.3211ZM24.1576 41.2891L24.4439 40.4487L26.9111 40.4242L27.2211 41.2587L24.1576 41.2891Z" fill="white"/>
<path d="M29.9088 42.2535L29.8674 38.134L30.1235 38.3834L28.3416 38.4011L28.3325 37.5023L32.4926 37.4609L32.5016 38.3597L30.7197 38.3775L30.9639 38.1231L31.0054 42.2426L29.9088 42.2535Z" fill="white"/>
<path d="M34.2302 39.364L36.5398 39.3411L36.5484 40.199L34.2388 40.222L34.2302 39.364ZM34.3322 41.3242L36.9433 41.2983L36.9522 42.1835L33.2377 42.2204L33.1897 37.454L36.8152 37.418L36.8241 38.3032L34.302 38.3282L34.3322 41.3242Z" fill="white"/>
<path d="M41.0907 37.3755L42.201 37.3645L42.2489 42.1309L41.1387 42.1419L41.0907 37.3755ZM38.9593 42.1635L37.849 42.1746L37.801 37.4082L38.9113 37.3972L38.9593 42.1635ZM41.2012 40.1869L38.8574 40.2102L38.848 39.2773L41.1919 39.254L41.2012 40.1869Z" fill="white"/>
<path d="M44.4858 42.1086L44.4443 37.9891L44.7004 38.2385L42.9185 38.2563L42.9095 37.3575L47.0695 37.3161L47.0786 38.2149L45.2967 38.2326L45.5409 37.9782L45.5823 42.0977L44.4858 42.1086Z" fill="white"/>
<path d="M50.0444 42.1351C49.6652 42.1389 49.3128 42.0811 48.9871 41.9618C48.6661 41.8424 48.3856 41.6727 48.1458 41.4526C47.9105 41.2325 47.7252 40.9733 47.5896 40.675C47.4587 40.3767 47.3914 40.0505 47.3879 39.6964C47.3843 39.3423 47.445 39.0148 47.5699 38.714C47.6994 38.413 47.8818 38.1502 48.1172 37.9254C48.3525 37.7006 48.6295 37.5253 48.9481 37.3996C49.2667 37.2739 49.6133 37.2091 49.9879 37.2054C50.3672 37.2016 50.715 37.2595 51.0315 37.3789C51.3526 37.4983 51.6307 37.668 51.866 37.8882C52.1058 38.1082 52.2935 38.3674 52.429 38.6657C52.5645 38.9594 52.634 39.2856 52.6376 39.6442C52.6412 39.9983 52.5782 40.3281 52.4488 40.6335C52.3193 40.9344 52.1369 41.1973 51.9016 41.4221C51.6707 41.6423 51.396 41.8153 51.0774 41.941C50.7634 42.0667 50.4191 42.1314 50.0444 42.1351ZM50.0281 41.1955C50.2428 41.1934 50.4389 41.1551 50.6164 41.0807C50.7984 41.0063 50.9573 40.9003 51.093 40.7628C51.2287 40.6252 51.3321 40.463 51.4034 40.2762C51.4792 40.0893 51.5159 39.8824 51.5136 39.6554C51.5114 39.4284 51.4705 39.2223 51.3909 39.0369C51.3159 38.8515 51.2092 38.6914 51.0708 38.5566C50.9369 38.4217 50.7782 38.3189 50.5947 38.2481C50.4113 38.1773 50.2121 38.1429 49.9974 38.1451C49.7827 38.1472 49.5843 38.1855 49.4022 38.2599C49.2248 38.3343 49.0682 38.4403 48.9325 38.5779C48.7968 38.7154 48.6911 38.8776 48.6153 39.0645C48.544 39.2513 48.5096 39.4582 48.5118 39.6852C48.5141 39.9076 48.5527 40.1138 48.6277 40.3038C48.7073 40.4891 48.814 40.6492 48.9479 40.7841C49.0863 40.9189 49.2473 41.0217 49.4308 41.0925C49.6142 41.1633 49.8134 41.1977 50.0281 41.1955Z" fill="white"/>
<path d="M53.5169 42.0189L53.4689 37.2525L55.7031 37.2303C56.2605 37.2248 56.6957 37.3272 57.0085 37.5374C57.3213 37.7477 57.4797 38.0503 57.4837 38.4452C57.4877 38.8356 57.3445 39.1412 57.0543 39.362C56.764 39.5783 56.3767 39.6888 55.8924 39.6936L56.0198 39.4063C56.5589 39.401 56.978 39.5035 57.2772 39.7139C57.5763 39.9243 57.7279 40.2315 57.732 40.6355C57.7362 41.0531 57.5796 41.3838 57.2622 41.6276C56.9493 41.8668 56.489 41.9894 55.8813 41.9954L53.5169 42.0189ZM54.6121 41.1909L55.832 41.1787C56.0878 41.1762 56.2815 41.1243 56.413 41.0232C56.5445 40.922 56.6092 40.767 56.6071 40.5582C56.6051 40.3584 56.5374 40.2116 56.4039 40.1175C56.2704 40.019 56.0757 39.971 55.8198 39.9735L54.5999 39.9856L54.6121 41.1909ZM54.5922 39.2162L55.6271 39.2059C55.8692 39.2035 56.0515 39.1541 56.1739 39.0575C56.2963 38.9564 56.3565 38.8105 56.3546 38.6199C56.3526 38.4292 56.2895 38.2868 56.1652 38.1927C56.0408 38.0941 55.8576 38.046 55.6154 38.0484L54.5805 38.0587L54.5922 39.2162Z" fill="white"/>
<path d="M58.0821 41.9736L60.1724 37.1859L61.2689 37.175L63.462 41.9201L62.2969 41.9317L60.5001 37.7411L60.9387 37.7367L59.2197 41.9623L58.0821 41.9736ZM59.1409 40.9416L59.4272 40.1011L61.8944 40.0766L62.2044 40.9111L59.1409 40.9416Z" fill="white"/>
<path d="M67.3399 37.1147L68.4501 37.1037L68.4981 41.8701L67.3879 41.8811L67.3399 37.1147ZM65.2085 41.9028L64.0982 41.9138L64.0502 37.1474L65.1605 37.1364L65.2085 41.9028ZM67.4504 39.9261L65.1066 39.9494L65.0972 39.0165L67.441 38.9932L67.4504 39.9261Z" fill="white"/>
<path d="M71.9968 41.917C71.6176 41.9208 71.2652 41.863 70.9395 41.7437C70.6185 41.6243 70.338 41.4546 70.0982 41.2345C69.863 41.0144 69.6776 40.7552 69.5421 40.4569C69.4111 40.1586 69.3439 39.8324 69.3403 39.4783C69.3367 39.1242 69.3974 38.7967 69.5223 38.4959C69.6518 38.1949 69.8342 37.9321 70.0696 37.7073C70.3049 37.4825 70.5819 37.3072 70.9005 37.1815C71.2191 37.0558 71.5657 36.991 71.9403 36.9873C72.3196 36.9835 72.6674 37.0414 72.9839 37.1608C73.305 37.2802 73.5831 37.4499 73.8184 37.6701C74.0582 37.8901 74.2459 38.1493 74.3814 38.4476C74.5169 38.7413 74.5864 39.0675 74.59 39.4261C74.5936 39.7802 74.5306 40.11 74.4012 40.4154C74.2717 40.7163 74.0893 40.9792 73.854 41.204C73.6231 41.4242 73.3484 41.5972 73.0298 41.7229C72.7158 41.8486 72.3715 41.9133 71.9968 41.917ZM71.9805 40.9774C72.1953 40.9753 72.3913 40.937 72.5688 40.8626C72.7508 40.7882 72.9097 40.6822 73.0454 40.5447C73.1811 40.4071 73.2846 40.2449 73.3558 40.0581C73.4316 39.8712 73.4683 39.6643 73.4661 39.4373C73.4638 39.2103 73.4229 39.0042 73.3433 38.8188C73.2683 38.6334 73.1616 38.4733 73.0232 38.3385C72.8893 38.2036 72.7306 38.1008 72.5472 38.03C72.3637 37.9592 72.1645 37.9248 71.9498 37.927C71.7351 37.9291 71.5367 37.9674 71.3546 38.0418C71.1772 38.1162 71.0206 38.2222 70.8849 38.3597C70.7492 38.4973 70.6435 38.6595 70.5677 38.8464C70.4964 39.0332 70.462 39.2401 70.4643 39.4671C70.4665 39.6895 70.5051 39.8957 70.5801 40.0857C70.6597 40.271 70.7664 40.4311 70.9003 40.566C71.0387 40.7008 71.1997 40.8036 71.3832 40.8744C71.5666 40.9452 71.7658 40.9796 71.9805 40.9774Z" fill="white"/>
<defs>
<linearGradient id="paint0_linear_0_4" x1="23.5034" y1="5.84161" x2="60.1172" y2="67.8665" gradientUnits="userSpaceOnUse">
<stop stop-color="#D0B86F"/>
<stop offset="1" stop-color="#BD9436"/>
</linearGradient>
<linearGradient id="paint1_linear_0_4" x1="26.1568" y1="10.4663" x2="57.4899" y2="63.4992" gradientUnits="userSpaceOnUse">
<stop stop-color="#D0B86F"/>
<stop offset="1" stop-color="#BD9436"/>
</linearGradient>
<linearGradient id="paint2_linear_0_4" x1="27.7922" y1="13.4911" x2="55.642" y2="60.6932" gradientUnits="userSpaceOnUse">
<stop stop-color="#D0B86F"/>
<stop offset="1" stop-color="#BD9436"/>
</linearGradient>
<linearGradient id="paint3_linear_0_4" x1="24.8003" y1="43.8895" x2="57.1595" y2="32.6397" gradientUnits="userSpaceOnUse">
<stop stop-color="#D0B86F"/>
<stop offset="1" stop-color="#BD9436"/>
</linearGradient>
<linearGradient id="paint4_linear_0_4" x1="21.9694" y1="32.6651" x2="24.0605" y2="50.5384" gradientUnits="userSpaceOnUse">
<stop stop-color="#D0B86F"/>
<stop offset="1" stop-color="#BD9436"/>
</linearGradient>
</defs>
</svg>
