<svg width="54" height="54" viewBox="0 0 54 54" fill="none" xmlns="http://www.w3.org/2000/svg">
<path d="M27 5.0625C22.6612 5.0625 18.4198 6.34911 14.8122 8.75964C11.2046 11.1702 8.3928 14.5963 6.7324 18.6049C5.07201 22.6134 4.63757 27.0243 5.48403 31.2798C6.3305 35.5353 8.41984 39.4441 11.4879 42.5122C14.5559 45.5802 18.4648 47.6695 22.7202 48.516C26.9757 49.3624 31.3866 48.928 35.3951 47.2676C39.4037 45.6072 42.8298 42.7954 45.2404 39.1878C47.6509 35.5802 48.9375 31.3388 48.9375 27C48.9264 21.1852 46.6115 15.6118 42.4998 11.5002C38.3882 7.3885 32.8148 5.07365 27 5.0625ZM34.6781 28.4133L24.5531 35.1633C24.2739 35.3361 23.9533 35.4308 23.625 35.4375C23.3467 35.4373 23.0723 35.3723 22.8234 35.2477C22.5537 35.102 22.3286 34.8857 22.1726 34.6218C22.0165 34.358 21.9352 34.0566 21.9375 33.75V20.25C21.9352 19.9434 22.0165 19.642 22.1726 19.3782C22.3286 19.1143 22.5537 18.898 22.8234 18.7523C23.0943 18.6152 23.3962 18.5509 23.6995 18.5657C24.0027 18.5805 24.2969 18.6739 24.5531 18.8367L34.6781 25.5867C34.9132 25.7401 35.1062 25.9496 35.2399 26.1964C35.3735 26.4432 35.4435 26.7194 35.4435 27C35.4435 27.2806 35.3735 27.5568 35.2399 27.8036C35.1062 28.0504 34.9132 28.2599 34.6781 28.4133Z" fill="white"/>
</svg>
