<svg width="719" height="372" viewBox="0 0 719 372" fill="none" xmlns="http://www.w3.org/2000/svg">
<g opacity="0.4">
<path d="M0.472717 330.354C67.507 330.439 133.961 298.02 177.139 244.158C214.576 197.444 233.867 137.79 265.981 86.9095C298.094 36.0119 352.338 -8.61874 409.501 2.5601C448.744 10.2328 479.939 43.1088 498.391 80.2699C516.843 117.448 524.843 159.148 534.714 199.765C544.602 240.381 557.151 281.608 582.716 313.806C615.136 354.609 667.767 376.628 718.026 370.429" stroke="#E5DBD1" stroke-miterlimit="10"/>
<path d="M22.925 332.912C85.7656 332.997 148.058 302.594 188.543 252.119C223.641 208.336 241.722 152.408 271.819 104.711C301.933 56.9979 352.774 15.1619 406.356 25.6463C443.147 32.8448 472.39 63.6543 489.681 98.4951C506.988 133.336 514.472 172.445 523.73 210.521C532.989 248.596 544.763 287.248 568.732 317.414C599.12 355.659 648.46 376.306 695.574 370.48" stroke="#E5DBD1" stroke-miterlimit="10"/>
<path d="M45.3773 335.486C104.024 335.554 162.171 307.2 199.93 260.08C232.689 219.226 249.561 167.024 277.658 122.512C305.756 77.9833 353.209 38.9421 403.211 48.7321C437.55 55.4394 464.825 84.1995 480.971 116.72C497.117 149.24 504.101 185.724 512.746 221.259C521.391 256.794 532.376 292.854 554.747 321.021C583.119 356.709 629.153 375.967 673.122 370.53" stroke="#E5DBD1" stroke-miterlimit="10"/>
<path d="M67.8296 338.061C122.283 338.128 176.268 311.79 211.334 268.057C241.738 230.117 257.416 181.659 283.497 140.331C309.579 99.003 353.645 62.7395 400.065 71.8181C431.937 78.0511 457.277 104.745 472.261 134.945C487.245 165.127 493.745 199.02 501.762 231.997C509.794 264.992 519.988 298.477 540.763 324.629C567.102 357.759 609.846 375.645 650.669 370.598" stroke="#E5DBD1" stroke-miterlimit="10"/>
<path d="M90.298 340.635C140.541 340.703 190.365 316.398 222.737 276.018C250.803 241.008 265.255 196.276 289.336 158.132C313.418 119.989 354.08 86.5201 396.92 94.9042C426.34 100.663 449.728 125.29 463.551 153.17C477.39 181.032 483.374 212.299 490.778 242.753C498.181 273.207 507.601 304.118 526.763 328.237C551.07 358.826 590.523 375.341 628.201 370.683" stroke="#E5DBD1" stroke-miterlimit="10"/>
</g>
</svg>
