<svg width="950" height="553" viewBox="0 0 950 553" fill="none" xmlns="http://www.w3.org/2000/svg">
<g opacity="0.4">
<path d="M21.2586 551.621C7.36692 502.747 -2.92713 449.495 15.3131 402.432C39.229 340.772 106.945 306.26 172.787 298.398C238.629 290.516 305.15 303.642 371.415 308.726C437.68 313.791 508.544 309.495 562.75 271.703C637.899 219.304 661.718 117.111 729.392 55.3817C785.817 3.92439 871.607 -13.0165 944.14 13.02" stroke="#E5DBD1" stroke-miterlimit="10"/>
<path d="M71.4414 551.59C58.297 505.364 48.5577 454.974 65.811 410.461C88.4362 352.129 152.49 319.483 214.773 312.047C277.074 304.592 339.986 317.014 402.665 321.824C465.344 326.634 532.392 322.549 583.659 286.8C654.767 237.221 677.278 140.556 741.306 82.1726C794.681 33.4973 875.846 17.4685 944.45 42.1007" stroke="#E5DBD1" stroke-miterlimit="10"/>
<path d="M121.624 551.559C109.246 507.961 100.042 460.472 116.328 418.49C137.662 363.486 198.054 332.707 256.797 325.697C315.539 318.667 374.86 330.386 433.972 334.902C493.084 339.437 556.299 335.584 604.626 301.876C671.673 255.137 692.896 163.981 753.257 108.924C803.584 63.0116 880.103 47.9143 944.798 71.1424" stroke="#E5DBD1" stroke-miterlimit="10"/>
<path d="M171.807 551.527C160.176 510.578 151.527 465.951 166.826 426.519C186.87 374.843 243.6 345.93 298.783 339.346C353.965 332.743 409.696 343.739 465.222 348C520.748 352.26 580.129 348.638 625.535 316.972C688.521 273.073 708.456 187.426 765.17 135.715C812.448 92.5845 884.341 78.3993 945.108 100.223" stroke="#E5DBD1" stroke-miterlimit="10"/>
<path d="M221.989 551.496C211.106 513.175 203.031 471.43 217.323 434.547C236.057 386.2 289.145 359.154 340.768 352.996C392.391 346.819 444.531 357.112 496.471 361.097C548.411 365.082 603.977 361.691 646.464 332.068C705.389 290.989 724.055 210.87 777.103 162.487C821.331 122.138 888.599 108.865 945.437 129.284" stroke="#E5DBD1" stroke-miterlimit="10"/>
</g>
</svg>
