<svg width="32" height="32" viewBox="0 0 32 32" fill="none" xmlns="http://www.w3.org/2000/svg">
<g clip-path="url(#clip0_889_3348)">
<path d="M16 29.3337C8.63596 29.3337 2.66663 23.3643 2.66663 16.0003C2.66663 8.63633 8.63596 2.66699 16 2.66699C23.364 2.66699 29.3333 8.63633 29.3333 16.0003C29.3333 23.3643 23.364 29.3337 16 29.3337ZM11.8533 17.5603L11.8706 17.551L13.0306 21.3777C13.18 21.7923 13.3853 21.867 13.6346 21.8323C13.8853 21.799 14.0173 21.6643 14.1813 21.507L15.7653 19.9763L19.1653 22.4937C19.7866 22.8363 20.2333 22.659 20.388 21.9177L22.5973 11.4883C22.8413 10.5177 22.4146 10.1283 21.6613 10.4377L8.68396 15.451C7.79863 15.8057 7.80396 16.3017 8.52396 16.5217L11.8533 17.5617V17.5603Z" fill="#D08F8A"/>
</g>
<defs>
<clipPath id="clip0_889_3348">
<rect width="32" height="32" fill="white"/>
</clipPath>
</defs>
</svg>
