<svg width="33" height="32" viewBox="0 0 33 32" fill="none" xmlns="http://www.w3.org/2000/svg">
<path fill-rule="evenodd" clip-rule="evenodd" d="M16 29C23.1797 29 29 23.1797 29 16C29 8.8203 23.1797 3 16 3C8.8203 3 3 8.8203 3 16C3 23.1797 8.8203 29 16 29ZM10.8818 10.9198C12.213 9.69798 14.5957 9.51611 15.7047 9.5L15.7024 9.50173C16.0719 9.49712 16.2992 9.51151 16.2992 9.51151C19.3892 9.52475 20.7762 10.5319 21.1192 10.8484C22.2587 11.836 22.8918 14.0288 22.4659 17.4934C22.0907 20.5545 19.9574 21.0973 19.2417 21.2794C19.1715 21.2973 19.1149 21.3117 19.0749 21.3246C18.8804 21.3874 17.1757 21.8144 14.96 21.6268C14.7154 21.9123 14.3902 22.2829 14.156 22.5361C14.0847 22.6127 14.0181 22.6883 13.9544 22.7606C13.6343 23.1238 13.3894 23.4016 13.0164 23.2854C12.6441 23.1703 12.6654 22.6081 12.6654 22.6081L12.6677 21.2176H12.6659C9.42461 20.306 9.4718 16.9432 9.50806 15.1499C9.54432 13.356 9.89308 11.9097 10.8818 10.9198ZM16.2445 10.4841C16.2445 10.4841 16.0517 10.4721 15.7381 10.4744L15.7409 10.4738C14.7994 10.4807 12.777 10.6217 11.649 11.6421C10.8128 12.468 10.5313 13.6961 10.5003 15.1948C10.4992 15.2436 10.4981 15.2939 10.4969 15.3456C10.4613 16.8772 10.3985 19.5791 13.0498 20.314L13.0383 22.6265C13.0377 22.7565 13.0584 22.8458 13.1333 22.8647C13.1862 22.878 13.2668 22.8509 13.3358 22.7819C13.7738 22.3422 15.1758 20.6501 15.1758 20.6501C17.0583 20.7727 18.5558 20.4004 18.717 20.3486C18.7547 20.3365 18.809 20.3238 18.8767 20.3081C19.4881 20.1659 21.1849 19.7714 21.4979 17.2436V17.2425C21.857 14.3482 21.3649 12.3724 20.4009 11.5466C20.1103 11.283 18.8585 10.4957 16.2445 10.4841ZM15.7818 12.1457C15.7824 12.0496 15.8607 11.9719 15.9568 11.9719C16.9668 11.9788 17.8318 12.3201 18.5167 12.9877C19.2062 13.6599 19.5538 14.5876 19.5618 15.7294C19.5618 15.825 19.4847 15.9032 19.3892 15.9044C19.2931 15.9044 19.2136 15.8279 19.2125 15.7317C19.205 14.6578 18.8902 13.8394 18.2727 13.2374C17.65 12.6303 16.8891 12.327 15.9545 12.3212C15.8584 12.3201 15.7818 12.2418 15.7818 12.1457ZM13.3232 12.4392C13.4475 12.3747 13.5684 12.3534 13.6777 12.3718L13.6771 12.373C13.7876 12.3914 13.8872 12.449 13.966 12.5439C13.9683 12.5451 14.2998 12.9439 14.4437 13.1396C14.5911 13.3462 14.7275 13.5609 14.8523 13.7813C15.0169 14.0754 14.9139 14.3758 14.7545 14.4995L14.4305 14.7574C14.2665 14.8898 14.2878 15.1349 14.2878 15.1349C14.2878 15.1349 14.7683 16.953 16.5639 17.4111C16.5639 17.4111 16.8097 17.4324 16.9421 17.2695L17.1993 16.9449C17.3236 16.7838 17.6241 16.6808 17.9176 16.8448C18.138 16.9703 18.3509 17.1067 18.5581 17.2534C18.7038 17.3609 18.9634 17.5742 19.0865 17.6754C19.1283 17.7097 19.1544 17.7311 19.1549 17.7311C19.3449 17.8911 19.388 18.1271 19.2585 18.3757L19.2568 18.3814C19.1147 18.6278 18.9345 18.8522 18.7216 19.0421C18.7187 19.0439 18.7193 19.045 18.717 19.045C18.5322 19.2004 18.3498 19.289 18.1714 19.3098C18.1449 19.3144 18.1184 19.3155 18.092 19.3144C18.0131 19.3149 17.9354 19.3023 17.8606 19.2781L17.8548 19.27C17.5797 19.1918 17.1205 18.9978 16.3562 18.576C15.9142 18.3342 15.4929 18.0557 15.0981 17.7432C14.9001 17.5878 14.7102 17.4197 14.5318 17.2425L14.4558 17.1665C14.2774 16.9875 14.1105 16.7982 13.9551 16.6002C13.6426 16.2054 13.3646 15.7841 13.1229 15.3421C12.7016 14.5778 12.5071 14.1197 12.4294 13.8435L12.4219 13.8377C12.3972 13.7629 12.3845 13.6858 12.3845 13.6075C12.3828 13.5804 12.3839 13.5534 12.3885 13.5269C12.4116 13.3485 12.4996 13.1672 12.6533 12.9813C12.6539 12.9802 12.6547 12.9796 12.6556 12.979C12.6564 12.9784 12.6573 12.9779 12.6579 12.9767C12.8478 12.7638 13.07 12.5825 13.3174 12.4403L13.3232 12.4392ZM16.0891 13.0406C16.0949 12.9497 16.1709 12.8795 16.2618 12.8783L16.2629 12.8777H16.2768C17.0094 12.9313 17.6062 13.1862 18.0321 13.6524C18.454 14.1134 18.6606 14.6993 18.6462 15.3755C18.6433 15.4716 18.5633 15.5481 18.4678 15.5464C18.3699 15.5441 18.294 15.4647 18.2951 15.368C18.3089 14.766 18.1363 14.2849 17.7737 13.8889C17.4123 13.4953 16.919 13.276 16.2514 13.2271C16.1553 13.2202 16.0834 13.1367 16.0891 13.0406ZM16.3556 13.9816C16.3614 13.8895 16.4362 13.8176 16.5283 13.8164L16.5306 13.8158H16.5409C16.9018 13.8348 17.2045 13.9476 17.4157 14.1652C17.6258 14.3833 17.7323 14.6906 17.7495 15.0613C17.7541 15.1574 17.6805 15.2391 17.5843 15.2437C17.4877 15.2483 17.4071 15.1746 17.4013 15.0785C17.3852 14.7654 17.3 14.5496 17.1619 14.4086C17.0249 14.2665 16.8224 14.1819 16.5214 14.1657C16.4247 14.16 16.351 14.0777 16.3556 13.9816Z" fill="#D08F8A"/>
</svg>
