<svg width="48" height="48" viewBox="0 0 48 48" fill="none" xmlns="http://www.w3.org/2000/svg">
<path fill-rule="evenodd" clip-rule="evenodd" d="M18.9 32.55C20.4 33.45 22.2 33.9 24 33.9C29.55 33.9 33.9 29.4 33.9 24.15C33.9 21.45 33 19.05 31.05 17.1C29.1 15.3 26.7 14.25 24 14.25C18.6 14.25 14.1 18.75 14.1 24.15C14.1 25.95 14.55 27.75 15.6 29.4L15.9 29.85L14.85 33.45L18.6 32.4L18.9 32.55ZM27.3 25.5C27.6 25.5 29.1 26.25 29.4 26.4C29.4467 26.4234 29.4934 26.4431 29.5396 26.4626C29.7898 26.5682 30.0234 26.6668 30.15 27.3C30.3 27.3 30.3 27.9 30 28.65C29.85 29.25 28.65 30 28.05 30C27.9484 30 27.851 30.0086 27.747 30.0178C27.2372 30.0629 26.568 30.1221 24.45 29.25C21.8213 28.1985 19.9988 25.6499 19.487 24.9342C19.4147 24.8331 19.3686 24.7686 19.35 24.75C19.3244 24.6989 19.2728 24.6174 19.2047 24.5099C18.8729 23.9859 18.15 22.8446 18.15 21.6C18.15 20.1 18.9 19.35 19.2 19.05C19.5 18.75 19.8 18.75 19.95 18.75H20.55C20.7 18.75 21 18.75 21.15 19.2C21.45 19.8 22.05 21.3 22.05 21.45C22.05 21.5 22.0667 21.55 22.0833 21.6C22.1167 21.7 22.15 21.8 22.05 21.9C21.975 21.975 21.9375 22.05 21.9 22.125C21.8625 22.2 21.825 22.275 21.75 22.35L21.3 22.8C21.15 22.95 21 23.1 21.15 23.4C21.3 23.7 21.9 24.75 22.8 25.5C23.8127 26.3861 24.6117 26.738 25.0168 26.9165C25.0917 26.9495 25.1532 26.9766 25.2 27C25.5 27 25.65 27 25.8 26.85C25.875 26.7 26.0625 26.475 26.25 26.25C26.4375 26.025 26.625 25.8 26.7 25.65C26.85 25.35 27 25.35 27.3 25.5Z" fill="white"/>
<path fill-rule="evenodd" clip-rule="evenodd" d="M0 24C0 10.7452 10.7452 0 24 0C37.2548 0 48 10.7452 48 24C48 37.2548 37.2548 48 24 48C10.7452 48 0 37.2548 0 24ZM24 12C27.15 12 30.15 13.2 32.4 15.45C34.65 17.7 36 20.7 36 23.85C36 30.45 30.6 35.85 24 35.85C22.05 35.85 20.1 35.25 18.3 34.35L12 36L13.65 30C12.6 28.2 12 26.1 12 24C12 17.4 17.4 12 24 12Z" fill="white"/>
</svg>
