<svg width="33" height="32" viewBox="0 0 33 32" fill="none" xmlns="http://www.w3.org/2000/svg">
<path fill-rule="evenodd" clip-rule="evenodd" d="M14.2375 20.6312C15.05 21.1188 16.025 21.3625 17 21.3625C20.0062 21.3625 22.3625 18.925 22.3625 16.0812C22.3625 14.6188 21.875 13.3187 20.8188 12.2625C19.7625 11.2875 18.4625 10.7188 17 10.7188C14.075 10.7188 11.6375 13.1562 11.6375 16.0812C11.6375 17.0563 11.8812 18.0312 12.45 18.925L12.6125 19.1688L12.0437 21.1188L14.075 20.55L14.2375 20.6312ZM18.7875 16.8125C18.95 16.8125 19.7625 17.2188 19.925 17.3C19.9503 17.3127 19.9756 17.3233 20.0006 17.3339C20.1361 17.3911 20.2627 17.4445 20.3313 17.7875C20.4125 17.7875 20.4125 18.1125 20.25 18.5187C20.1688 18.8438 19.5188 19.25 19.1938 19.25C19.1387 19.25 19.086 19.2547 19.0296 19.2596C18.7535 19.2841 18.391 19.3161 17.2437 18.8438C15.8199 18.2742 14.8327 16.8937 14.5555 16.506C14.5163 16.4513 14.4913 16.4163 14.4812 16.4062C14.4674 16.3786 14.4394 16.3344 14.4026 16.2762C14.2228 15.9924 13.8313 15.3742 13.8313 14.7C13.8313 13.8875 14.2375 13.4813 14.4 13.3187C14.5625 13.1562 14.725 13.1562 14.8062 13.1562H15.1313C15.2125 13.1562 15.375 13.1562 15.4563 13.4C15.6188 13.725 15.9438 14.5375 15.9438 14.6188C15.9438 14.6458 15.9528 14.6729 15.9618 14.7C15.9799 14.7542 15.9979 14.8083 15.9438 14.8625C15.9031 14.9031 15.8828 14.9437 15.8625 14.9844C15.8422 15.025 15.8219 15.0656 15.7812 15.1063L15.5375 15.35C15.4563 15.4313 15.375 15.5125 15.4563 15.675C15.5375 15.8375 15.8625 16.4062 16.35 16.8125C16.8985 17.2925 17.3313 17.4831 17.5507 17.5798C17.5913 17.5977 17.6246 17.6123 17.65 17.625C17.8125 17.625 17.8938 17.625 17.975 17.5438C18.0156 17.4625 18.1172 17.3406 18.2188 17.2188C18.3203 17.0969 18.4219 16.975 18.4625 16.8937C18.5437 16.7313 18.625 16.7313 18.7875 16.8125Z" fill="#D08F8A"/>
<path fill-rule="evenodd" clip-rule="evenodd" d="M4 16C4 8.8203 9.8203 3 17 3C24.1797 3 30 8.8203 30 16C30 23.1797 24.1797 29 17 29C9.8203 29 4 23.1797 4 16ZM17 9.5C18.7062 9.5 20.3313 10.15 21.55 11.3688C22.7688 12.5875 23.5 14.2125 23.5 15.9188C23.5 19.4938 20.575 22.4188 17 22.4188C15.9437 22.4188 14.8875 22.0938 13.9125 21.6063L10.5 22.5L11.3938 19.25C10.825 18.275 10.5 17.1375 10.5 16C10.5 12.425 13.425 9.5 17 9.5Z" fill="#D08F8A"/>
</svg>
