<svg width="48" height="48" viewBox="0 0 48 48" fill="none" xmlns="http://www.w3.org/2000/svg">
<path fill-rule="evenodd" clip-rule="evenodd" d="M24 48C37.2548 48 48 37.2548 48 24C48 10.7452 37.2548 0 24 0C10.7452 0 0 10.7452 0 24C0 37.2548 10.7452 48 24 48ZM14.551 14.6212C17.0086 12.3655 21.4073 12.0297 23.4547 12L23.4505 12.0032C24.1326 11.9947 24.5523 12.0212 24.5523 12.0212C30.2569 12.0457 32.8175 13.9051 33.4507 14.4894C35.5545 16.3127 36.7232 20.3608 35.937 26.7571C35.2443 32.4083 31.3059 33.4104 29.9847 33.7466C29.8549 33.7796 29.7505 33.8062 29.6767 33.8301C29.3176 33.9459 26.1705 34.7343 22.0799 34.3879C21.6283 34.9149 21.028 35.5992 20.5956 36.0667C20.4641 36.208 20.341 36.3477 20.2235 36.481C19.6325 37.1516 19.1804 37.6645 18.4918 37.4501C17.8044 37.2376 17.8437 36.1995 17.8437 36.1995L17.8479 33.6325H17.8447C11.8607 31.9495 11.9479 25.7413 12.0148 22.4306C12.0817 19.1187 12.7256 16.4487 14.551 14.6212ZM24.4514 13.8169C24.4514 13.8169 24.0954 13.7946 23.5164 13.7988L23.5217 13.7978C21.7834 13.8105 18.0498 14.0708 15.9673 15.9546C14.4235 17.4793 13.9039 19.7467 13.8466 22.5134C13.8447 22.6036 13.8425 22.6965 13.8403 22.7918C13.7746 25.6195 13.6588 30.6076 18.5534 31.9644L18.5322 36.2335C18.5311 36.4736 18.5694 36.6383 18.7075 36.6734C18.8052 36.6978 18.954 36.6479 19.0815 36.5204C19.8901 35.7086 22.4783 32.5849 22.4783 32.5849C25.9537 32.8112 28.7184 32.1237 29.0159 32.0281C29.0855 32.0058 29.1859 31.9825 29.3107 31.9534C30.4394 31.691 33.572 30.9625 34.1499 26.2959V26.2938C34.8129 20.9505 33.9044 17.3029 32.1247 15.7782C31.5882 15.2916 29.2772 13.8381 24.4514 13.8169ZM23.5971 16.8843C23.5982 16.7069 23.7427 16.5634 23.9201 16.5634C25.7848 16.5762 27.3817 17.2062 28.6461 18.4387C29.919 19.6798 30.5607 21.3925 30.5756 23.5005C30.5756 23.6769 30.4332 23.8214 30.2569 23.8235C30.0794 23.8235 29.9328 23.6822 29.9307 23.5047C29.9169 21.5221 29.3357 20.0112 28.1956 18.8999C27.046 17.7789 25.6414 17.219 23.9159 17.2084C23.7384 17.2062 23.5971 17.0618 23.5971 16.8843ZM19.0581 17.4262C19.2876 17.3072 19.5107 17.2679 19.7126 17.3019L19.7116 17.304C19.9156 17.338 20.0994 17.4443 20.2449 17.6196C20.2492 17.6217 20.8612 18.358 21.1268 18.7192C21.3988 19.1007 21.6506 19.497 21.8812 19.9039C22.1851 20.4469 21.9949 21.0015 21.7006 21.2299L21.1024 21.7059C20.7996 21.9503 20.8389 22.4029 20.8389 22.4029C20.8389 22.4029 21.7261 25.7594 25.0411 26.6051C25.0411 26.6051 25.4947 26.6444 25.7391 26.3438L26.2141 25.7445C26.4436 25.447 26.9982 25.2568 27.5401 25.5596C27.947 25.7913 28.3401 26.0431 28.7226 26.314C28.9916 26.5124 29.4709 26.9062 29.6982 27.093C29.7753 27.1564 29.8234 27.1959 29.8244 27.1959C30.1751 27.4913 30.2547 27.9269 30.0157 28.3859L30.0125 28.3965C29.7501 28.8512 29.4175 29.2656 29.0244 29.6163C29.0208 29.6184 29.0201 29.62 29.0188 29.6209C29.0181 29.6213 29.0173 29.6216 29.0159 29.6216C28.6748 29.9084 28.338 30.0721 28.0086 30.1103C27.9597 30.1188 27.9109 30.1209 27.862 30.1188C27.7164 30.1199 27.573 30.0965 27.4349 30.0519L27.4242 30.037C26.9164 29.8925 26.0685 29.5344 24.6575 28.7556C23.8415 28.3094 23.0637 27.7951 22.3349 27.2182C21.9694 26.9313 21.6187 26.6211 21.2894 26.2938L21.1491 26.1536C20.8197 25.8231 20.5116 25.4736 20.2247 25.1081C19.6478 24.3792 19.1346 23.6014 18.6884 22.7854C17.9106 21.3744 17.5515 20.5287 17.4081 20.0187L17.3942 20.0081C17.3486 19.8699 17.3252 19.7276 17.3252 19.5831C17.322 19.5331 17.3241 19.4832 17.3326 19.4343C17.3751 19.1049 17.5377 18.7703 17.8214 18.4271C17.8224 18.4249 17.824 18.4239 17.8256 18.4228C17.8272 18.4218 17.8288 18.4207 17.8299 18.4186C18.1805 18.0254 18.5906 17.6908 19.0475 17.4283L19.0581 17.4262ZM24.1645 18.5365C24.1751 18.3686 24.3154 18.239 24.4832 18.2369L24.4854 18.2358H24.5109C25.8634 18.3346 26.9652 18.8053 27.7515 19.6659C28.5303 20.517 28.9117 21.5986 28.8852 22.8471C28.8799 23.0245 28.7322 23.1658 28.5558 23.1626C28.3752 23.1584 28.2349 23.0117 28.2371 22.8333C28.2626 21.7219 27.9438 20.8336 27.2744 20.1026C26.6072 19.3759 25.6966 18.9711 24.4641 18.8808C24.2867 18.868 24.1539 18.7139 24.1645 18.5365ZM24.6564 20.2737C24.6671 20.1037 24.8052 19.9709 24.9752 19.9688L24.9794 19.9677H24.9986C25.6647 20.0028 26.2236 20.211 26.6136 20.6126C27.0014 21.0153 27.1979 21.5827 27.2298 22.2669C27.2383 22.4444 27.1023 22.5952 26.9249 22.6038C26.7464 22.6122 26.5976 22.4762 26.587 22.2988C26.5572 21.7208 26.4 21.3224 26.145 21.0621C25.8921 20.7996 25.5181 20.6434 24.9624 20.6137C24.7839 20.6031 24.6479 20.4511 24.6564 20.2737Z" fill="white"/>
</svg>
