<svg width="200" height="96" viewBox="0 0 200 96" fill="none" xmlns="http://www.w3.org/2000/svg">
<g clip-path="url(#clip0_140_13822)">
<g style="mix-blend-mode:multiply" opacity="0.6">
<circle cx="124" cy="52.5" r="44" fill="#D08F8A"/>
</g>
<path fill-rule="evenodd" clip-rule="evenodd" d="M121.306 -0.342981C121.214 -0.231276 120.915 0.423308 120.643 1.11169C119.373 4.32078 117.865 6.50121 115.357 8.75049C113.043 10.8261 110.393 12.4413 107.418 13.5901C104.486 14.7223 104.037 14.83 91.6197 17.384C88.0057 18.1273 84.4362 18.9389 83.6872 19.1877C77.134 21.3647 72.4515 26.7868 71.1361 33.7211C70.8257 35.3577 70.8196 38.2925 71.1233 40.0335C71.3972 41.6044 72.1419 43.9073 72.8038 45.2304C73.7011 47.024 74.7422 48.3837 78.6139 52.8179C82.747 57.5518 83.941 58.9936 85.3614 60.9664C87.4865 63.9178 88.5988 66.2622 88.9202 68.4668C89.5081 72.5014 86.7687 75.8189 82.484 76.2608C81.7814 76.3332 81.4323 76.4454 81.3114 76.6376C80.8187 77.4208 82.2545 77.7702 84.0627 77.3069C88.2247 76.2407 90.711 72.7696 90.2821 68.6241C90.0607 66.4834 89.1941 64.328 87.5156 61.7427C85.8455 59.1707 84.4833 57.4824 79.1784 51.4102C75.0143 46.6439 74.435 45.8227 73.3843 43.1986C72.3412 40.594 71.9542 36.8278 72.4432 34.0443C73.4124 28.5277 76.9615 23.7735 81.9198 21.3497L83.1714 20.738L83.2611 32.3584C83.3462 43.3696 83.3678 44.0527 83.6744 45.3869C84.4739 48.8646 85.6681 51.3499 87.8242 54.023C88.6273 55.0187 100.852 66.5925 102.43 67.851C104.016 69.1167 105.631 69.5583 108.673 69.5583C111.837 69.5583 113.197 69.1683 115.009 67.741C115.482 67.368 117.489 65.5551 119.468 63.712L123.066 60.361L123.103 61.4004C123.321 67.513 124.036 70.8884 125.897 74.5935C126.752 76.2961 127.924 78.1458 128.219 78.2592C128.551 78.3864 129.089 78.0358 129.089 77.6931C129.089 77.5267 128.781 76.9132 128.405 76.3296C127.35 74.6944 126.463 72.8209 125.8 70.8274C124.902 68.1252 124.688 66.6922 124.574 62.6173L124.474 59.0401L126.711 56.9225C129.236 54.532 130.621 52.7973 131.742 50.6223C133.03 48.1225 133.643 46.1018 133.933 43.3982C134.027 42.5206 134.097 37.8301 134.1 32.2903L134.104 22.7017L134.664 23.5622C136.103 25.7701 137.537 29.3489 138.184 32.3442C138.643 34.4692 138.757 38.8559 138.414 41.1853C138.091 43.3796 137.421 45.7791 136.592 47.7123C136.238 48.5373 135.972 49.3297 136 49.473C136.08 49.8795 136.546 50.1118 136.873 49.9079C137.236 49.6816 138.362 47.1363 138.85 45.4412C141.479 36.3026 139.552 26.9809 133.556 19.8371C131.961 17.9358 130.913 17.045 124.213 11.8931C121.13 9.52209 118.607 7.55224 118.607 7.51547C118.607 7.47886 118.932 7.00858 119.329 6.47055C120.074 5.46035 121.648 2.36187 122.151 0.91456C122.367 0.293299 122.395 0.0248316 122.266 -0.180586C122.052 -0.522272 121.528 -0.610979 121.306 -0.342981ZM110.961 2.72437C110.52 3.39616 110.159 4.05638 110.159 4.19155C110.159 4.87179 111.146 4.93828 111.558 4.28557C112.264 3.16759 112.819 2.21074 112.819 2.10983C112.819 1.88971 112.325 1.50281 112.045 1.50281C111.866 1.50281 111.47 1.94838 110.961 2.72437ZM75.2407 3.49754C73.9412 5.01228 72.3146 8.20776 71.4879 10.8704C70.5859 13.7761 70.267 17.9291 70.7126 20.9671C70.9188 22.3732 71.0852 22.659 71.6589 22.5923C72.049 22.547 72.0621 22.5113 72.0247 21.6066C71.8858 18.2463 71.9266 14.9349 72.1192 13.9405C72.7511 10.6772 73.9275 7.76548 75.6478 5.20628C76.0428 4.61866 76.3659 4.0168 76.3659 3.86864C76.3659 3.25285 75.6526 3.01755 75.2407 3.49754ZM107.734 6.44677C105.823 8.09074 102.918 9.54228 100.236 10.1936C98.4248 10.6332 98.0548 10.9663 98.6812 11.5927C98.8768 11.7883 99.0892 11.8236 99.5808 11.742C102.059 11.3306 105.778 9.68965 107.798 8.11639C109.157 7.05848 109.37 6.78173 109.125 6.39185C108.861 5.9696 108.261 5.99322 107.734 6.44677ZM120.377 10.6061C127.835 16.3291 129.994 18.063 131.282 19.366L132.688 20.7879L132.688 31.9921C132.687 43.6348 132.661 44.1921 132.005 46.482C131.402 48.5849 130.24 50.8936 128.868 52.7101C127.811 54.1106 115.17 66.0563 113.647 67.0945C112.254 68.044 111.406 68.2301 108.516 68.2186C105.786 68.208 105.013 68.0298 103.613 67.0888C102.836 66.5665 90.6003 55.1596 89.3269 53.7704C87.1718 51.4196 85.7228 48.5547 84.9284 45.074C84.6231 43.7366 84.6037 43.0788 84.5427 31.9804L84.4786 20.2949L85.0765 20.135C85.4055 20.0471 89.3003 19.2292 93.7318 18.3175C98.1632 17.4059 102.493 16.485 103.353 16.2712C108.429 15.0096 112.851 12.7722 116.26 9.7405C116.992 9.09029 117.613 8.55477 117.64 8.5507C117.667 8.54648 118.899 9.4714 120.377 10.6061ZM75.1485 17.3413C74.8913 17.6511 74.177 19.6932 73.7699 21.2824C73.3771 22.8159 73.4462 23.2493 74.0838 23.2493C74.5947 23.2493 74.7562 22.9966 75.0403 21.7522C75.1764 21.1558 75.5128 20.018 75.7878 19.2238C76.1786 18.0947 76.2501 17.7193 76.1152 17.5029C75.8983 17.1543 75.376 17.067 75.1485 17.3413ZM91.3068 21.9099C88.5129 22.3259 87.1609 22.7566 87.1609 23.2305C87.1609 23.294 87.2593 23.4805 87.3796 23.6449C87.5839 23.9245 87.6683 23.9311 88.6703 23.7457C93.6413 22.8258 96.6444 22.884 98.9916 23.9461C99.9046 24.3591 100.998 25.287 101.331 25.9316C101.595 26.4412 102.055 26.7292 102.397 26.5979C103.505 26.1732 101.762 23.7692 99.6199 22.7669C99.0769 22.5127 98.1458 22.1992 97.551 22.07C96.013 21.7358 92.9958 21.6585 91.3068 21.9099ZM120.527 21.9155C117.826 22.3347 115.632 23.6467 114.719 25.3901C114.453 25.8975 114.501 26.3467 114.841 26.5286C115.28 26.7638 115.535 26.6075 116.079 25.7683C116.889 24.5176 118.228 23.772 120.478 23.3183C122.117 22.9875 125.411 23.0751 127.29 23.4993C127.979 23.6546 128.859 23.7851 129.246 23.7893C129.889 23.7962 129.954 23.7618 129.997 23.3923C130.06 22.8506 129.831 22.6937 128.54 22.3929C125.6 21.7076 122.903 21.547 120.527 21.9155ZM88.3901 31.602C86.9897 32.1023 86.4306 32.6808 86.8542 33.1913C87.1113 33.5011 87.4581 33.477 88.3366 33.0884C89.2115 32.7015 90.6237 32.727 91.2139 33.1402L91.5765 33.3942L90.9529 33.7125C90.3115 34.0396 89.5058 34.865 89.51 35.1906C89.5114 35.2915 89.5641 35.4497 89.6273 35.542C89.9033 35.9448 90.2788 35.8776 91.069 35.2838C91.7591 34.7654 92.0042 34.6701 92.649 34.6701C93.0689 34.6701 93.9436 34.8484 94.5929 35.0664C96.8934 35.8386 99.1872 35.7466 101.267 34.7987C102.316 34.3206 102.577 33.9992 102.308 33.5189C102.118 33.1797 101.522 33.1935 100.805 33.5537C99.8064 34.0554 98.6432 34.2469 97.115 34.1613C95.3552 34.0627 94.2822 33.6768 92.8422 32.6245C91.258 31.4668 89.7426 31.1188 88.3901 31.602ZM126.195 31.6608C125.765 31.8175 124.944 32.2697 124.371 32.6655C122.886 33.692 121.783 34.0776 120.093 34.1623C118.659 34.2342 117.853 34.0904 116.237 33.4748C115.627 33.2425 115.469 33.2312 115.259 33.4055C114.593 33.9587 115.247 34.6458 116.95 35.1817C117.833 35.4592 118.412 35.5281 119.781 35.5182C121.283 35.5074 121.689 35.4425 122.976 35.0077C124.738 34.4119 125.168 34.4512 126.315 35.3129C127.038 35.8561 127.152 35.8959 127.44 35.7053C127.616 35.5886 127.78 35.3877 127.806 35.259C127.874 34.9151 127.109 34.0781 126.392 33.7125L125.769 33.3942L126.131 33.1402C126.722 32.727 128.134 32.7015 129.009 33.0884C129.94 33.5003 130.284 33.5042 130.497 33.1056C130.751 32.6308 130.464 32.2584 129.534 31.8584C128.411 31.3749 127.179 31.3022 126.195 31.6608ZM105.497 46.2786C105.136 46.6394 105.29 47.1305 105.896 47.5487C107.715 48.8048 109.761 48.7851 111.574 47.4941C112.059 47.1483 112.181 46.6109 111.849 46.2786C111.56 45.9901 111.324 46.048 110.542 46.5994C109.89 47.0587 109.712 47.1078 108.699 47.1078C107.688 47.1078 107.505 47.0576 106.845 46.5994C106.055 46.0502 105.788 45.987 105.497 46.2786ZM60.1022 50.6977C59.6463 51.247 60.7837 53.9636 62.169 55.6343C63.7853 57.5837 65.1988 58.4684 70.0561 60.5712C76.5564 63.3851 78.9703 64.7858 80.9337 66.8827C82.435 68.486 82.9734 69.6353 83.0633 71.4287C83.1001 72.164 83.201 72.8536 83.2874 72.9611C83.5264 73.2588 84.1571 73.1947 84.3393 72.8541C84.5508 72.4587 84.5457 71.1949 84.3284 70.1527C83.9865 68.5138 83.3163 67.4013 81.7016 65.7934C79.3261 63.4275 77.5108 62.3605 71.203 59.6222C66.8223 57.7202 65.7722 57.1702 64.4959 56.108C63.0758 54.9262 62.1163 53.4836 61.4439 51.5191C61.1626 50.6972 61.0506 50.5425 60.7075 50.5026C60.4828 50.4765 60.2137 50.5632 60.1022 50.6977ZM106.091 51.2001C104.103 51.8623 102.518 53.0394 101.517 54.5975L101.028 55.3599L101.393 56.0494C101.876 56.9588 103.44 58.4038 104.622 59.0322C107.938 60.7954 112.038 60.185 114.681 57.5345C115.251 56.9627 115.836 56.2501 115.979 55.9511C116.23 55.4289 116.227 55.3824 115.899 54.7777C115.37 53.8048 113.94 52.4837 112.725 51.8449C111.276 51.084 110.621 50.9871 109.525 51.3725C108.687 51.6669 108.635 51.6677 107.806 51.397C106.932 51.1114 106.505 51.0624 106.091 51.2001ZM107.602 52.74C107.911 52.8691 108.392 52.9747 108.673 52.9747C108.953 52.9747 109.435 52.8691 109.744 52.74C110.536 52.4088 110.962 52.4449 111.989 52.9312C112.898 53.3617 114.696 54.9824 114.696 55.3715C114.696 55.7396 113.557 56.9211 112.616 57.5295C110.133 59.1342 106.77 59.0316 104.389 57.2783C103.48 56.6091 102.649 55.6898 102.649 55.3527C102.649 55.0113 104.309 53.5093 105.231 53.0158C106.28 52.4545 106.779 52.3964 107.602 52.74Z" fill="#333333"/>
</g>
<defs>
<clipPath id="clip0_140_13822">
<rect width="200" height="96" fill="white"/>
</clipPath>
</defs>
</svg>
