<svg width="200" height="98" viewBox="0 0 200 98" fill="none" xmlns="http://www.w3.org/2000/svg">
<g style="mix-blend-mode:multiply" opacity="0.6">
<circle cx="124" cy="54" r="44" fill="#D08F8A"/>
</g>
<path fill-rule="evenodd" clip-rule="evenodd" d="M90.2736 0.134897C89.117 0.486851 88.2938 1.21498 87.7878 2.3332C87.2317 3.56223 87.3976 4.42899 88.1718 4.33834C88.5651 4.29224 88.6324 4.19753 88.7988 3.45517C89.02 2.46792 89.7476 1.62617 90.5801 1.39487C90.901 1.30563 93.7769 1.24061 97.4213 1.24014L103.709 1.23921V2.8802V4.52119H102.546C100.89 4.52119 100.897 4.50697 100.897 7.99432V10.7726H99.3194C98.1772 10.7726 97.592 10.8437 97.1989 11.0303C96.1871 11.5107 96.1413 11.6939 96.0544 15.6099L95.9763 19.1338L94.7833 19.2187C93.3777 19.3186 92.567 19.7607 91.8771 20.8038L91.4462 21.4553L91.4035 49.2855C91.3563 80.0131 91.2873 77.8225 92.3375 78.8971C93.433 80.0183 91.5446 79.9287 114.097 79.9287C133.739 79.9287 134.43 79.9189 135.181 79.6291C136.202 79.2355 137.327 78.164 137.785 77.149L138.154 76.3342V65.5505V54.7668L137.775 53.9974C137.292 53.016 136.37 52.093 135.443 51.6644C134.735 51.3368 134.504 51.3267 126.047 51.2504L117.378 51.1723L117.299 36.2996L117.221 21.4267L116.75 20.7559C116.071 19.7893 114.9 19.212 113.619 19.212H112.629L112.582 15.6296C112.535 12.0554 112.534 12.0465 112.144 11.6243C111.521 10.9494 110.906 10.7726 109.181 10.7726H107.614V7.80865C107.614 4.37147 107.688 4.52119 105.984 4.52119H104.959V2.8802V1.23921H106.75C108.36 1.23921 108.557 1.20873 108.702 0.936952C108.911 0.545927 108.909 0.525141 108.618 0.234451C108.401 0.0167454 107.371 -0.00951046 99.5191 0.0023672C94.6493 0.0097126 90.4889 0.0694135 90.2736 0.134897ZM106.364 8.35018V10.7726H104.334H102.303V8.35018V5.92776H104.334H106.364V8.35018ZM111.118 12.4247C111.325 12.6324 111.363 13.1761 111.363 15.9411V19.212H104.334H97.3041V15.9978C97.3041 14.0812 97.3694 12.6618 97.4658 12.4814C97.6219 12.1899 97.8624 12.1792 104.25 12.1792C110.062 12.1792 110.902 12.2092 111.118 12.4247ZM66.4215 17.486C65.3994 18.1096 65.3667 18.2518 65.2805 22.4694L65.2024 26.2889L64.5341 26.4861C63.5726 26.7698 62.8724 27.3677 62.4066 28.3028L62 29.1194L62.0016 53.1174L62.0031 77.1156L62.3713 77.897C62.8103 78.8282 63.2422 79.2526 64.187 79.6812C64.8715 79.9916 65.1572 80 75.0438 80C84.9304 80 85.2161 79.9916 85.9006 79.6812C86.8454 79.2526 87.2773 78.8282 87.7163 77.897L88.0844 77.1156L88.086 53.1174L88.0876 29.1194L87.681 28.3028C87.2151 27.3677 86.515 26.7698 85.5535 26.4861L84.8852 26.2889L84.8071 22.4488C84.7345 18.8791 84.7062 18.5778 84.4055 18.168C83.6677 17.1629 83.8376 17.1808 74.9657 17.1811C67.2669 17.1814 66.8993 17.1945 66.4215 17.486ZM68.5609 22.4158V26.2448H67.6237H66.6864V22.6034C66.6864 19.9795 66.7387 18.9096 66.8738 18.7744C66.9769 18.6712 67.3987 18.5868 67.8111 18.5868H68.5609V22.4158ZM72.4663 22.4158V26.2448H71.2166H69.9669V22.4158V18.5868H71.2166H72.4663V22.4158ZM76.2154 22.4158V26.2448H74.9657H73.716V22.4158V18.5868H74.9657H76.2154V22.4158ZM80.1207 22.4158V26.2448H78.871H77.6213V22.4158V18.5868H78.871H80.1207V22.4158ZM83.2137 18.7744C83.3489 18.9096 83.4012 19.9795 83.4012 22.6034V26.2448H82.4639H81.5266V22.4158V18.5868H82.2764C82.6889 18.5868 83.1106 18.6712 83.2137 18.7744ZM115.062 20.8641C115.305 21.0421 115.626 21.4289 115.776 21.7236C116.03 22.2225 116.049 23.2635 116.049 36.755L116.05 51.2504L112.027 51.2506L108.005 51.2507L107.066 51.6949C106.064 52.1694 105.333 52.8849 104.764 53.9507L104.412 54.6106L104.366 65.2379C104.332 73.0273 104.369 76.0432 104.504 76.5312C104.605 76.8976 104.925 77.5305 105.215 77.9378L105.742 78.6785L104.686 78.7266C104.106 78.753 101.522 78.753 98.9444 78.7266C94.3884 78.6799 94.2422 78.6686 93.6887 78.3243C92.5228 77.599 92.6106 80.0547 92.6556 49.3992L92.6959 21.8917L93.0194 21.4505C93.1973 21.2078 93.5839 20.8855 93.8785 20.7342C94.3761 20.4787 95.1329 20.462 104.518 20.4998C114.458 20.5398 114.628 20.5456 115.062 20.8641ZM85.5829 27.9252C85.8806 28.0754 86.2672 28.4445 86.442 28.7454C86.7577 29.2889 86.7598 29.4424 86.7598 53.2317C86.7598 77.1662 86.7598 77.1709 86.4377 77.6024C86.2605 77.8398 85.9215 78.179 85.6842 78.3562C85.2606 78.6727 85.0758 78.6792 75.245 78.721C65.5096 78.7622 65.2194 78.7549 64.5914 78.4507C64.2363 78.2788 63.8068 77.908 63.6368 77.6268C63.3323 77.1231 63.3281 76.7674 63.3458 53.1785L63.3636 29.2414L63.6982 28.6999C64.3655 27.6195 63.9383 27.6589 75.0438 27.6551C84.2554 27.6522 85.0841 27.6734 85.5829 27.9252ZM96.7105 30.0269C96.569 30.1685 96.5231 32.429 96.5231 39.2423C96.5231 48.0078 96.5318 48.2748 96.8252 48.4318C97.0211 48.5367 99.6825 48.5936 104.39 48.5936C110.785 48.5936 111.683 48.5642 111.899 48.3481C112.116 48.1305 112.144 47.0809 112.144 39.1585C112.144 32.4104 112.098 30.1684 111.957 30.0269C111.687 29.7569 96.9805 29.7569 96.7105 30.0269ZM110.857 39.1774L110.897 47.187H104.335H97.7728V39.1366V31.0862L104.295 31.127L110.817 31.1678L110.857 39.1774ZM67.3167 36.5493C67.2108 36.7475 67.155 39.8727 67.155 45.6138C67.155 54.1678 67.1625 54.3836 67.4675 54.6887C67.771 54.9924 67.9881 55.0013 75.0438 55.0013C82.128 55.0013 82.3155 54.9935 82.6239 54.6849C82.9349 54.3738 82.9393 54.2245 82.8972 45.4583C82.8602 37.7399 82.823 36.5284 82.6201 36.3999C82.4811 36.3121 79.3545 36.2508 74.9321 36.2494C67.7215 36.2471 67.4732 36.2569 67.3167 36.5493ZM81.5266 45.546V53.5947H75.0438H68.5609V45.546V37.4973H75.0438H81.5266V45.546ZM134.795 52.8264C135.672 53.2238 136.138 53.6528 136.564 54.4543C136.849 54.9885 136.905 55.4034 136.954 57.3065L137.012 59.5335H121.298H105.583L105.585 57.4628C105.586 55.6102 105.626 55.3076 105.959 54.5912C106.356 53.7385 107.13 53.0119 107.964 52.7093C108.34 52.5729 111.834 52.5223 121.283 52.516C133.852 52.5077 134.106 52.5135 134.795 52.8264ZM124.262 55.7156C123.96 56.0176 123.958 56.1109 124.238 56.4952C124.446 56.7796 124.706 56.801 128.417 56.8393C132.521 56.8817 133.088 56.8092 133.2 56.2275C133.227 56.0896 133.135 55.8629 132.996 55.7235C132.775 55.5026 132.213 55.4701 128.625 55.4701C125.09 55.4701 124.473 55.5048 124.262 55.7156ZM65.6309 60.6521C65.4865 60.7965 65.4367 61.8422 65.4367 64.7255V68.6048L65.8225 68.7806C66.1184 68.9155 66.2649 68.9099 66.45 68.7561C66.6586 68.5829 66.6859 68.0075 66.65 64.5525L66.6083 60.5494L66.2167 60.5036C66.0012 60.4784 65.7377 60.5452 65.6309 60.6521ZM136.949 68.4854L136.904 76.0305L136.514 76.7854C136.012 77.7545 135.123 78.3956 133.989 78.6044C133.409 78.7113 128.834 78.7521 120.711 78.7228C108.904 78.6805 108.289 78.6644 107.72 78.382C107.392 78.2188 106.908 77.8694 106.644 77.6052C105.648 76.6092 105.666 76.7694 105.615 68.4809L105.569 60.9401H121.282H136.994L136.949 68.4854ZM109.606 64.3909C109.356 64.5365 109.333 64.9216 109.333 68.8872C109.333 72.052 109.383 73.2747 109.52 73.4116C109.662 73.5542 112.494 73.5992 121.309 73.5992C132.618 73.5992 132.914 73.5915 133.071 73.2969C133.171 73.1103 133.233 71.4134 133.233 68.867C133.233 65.0667 133.21 64.7189 132.947 64.4807C132.687 64.2449 131.655 64.2226 121.27 64.2268C113.824 64.2299 109.785 64.2868 109.606 64.3909ZM131.827 68.9899V72.3511L121.244 72.3109L110.66 72.2708L110.618 68.9497L110.576 65.6287H121.202H131.827V68.9899ZM65.606 71.4736C65.4892 71.6145 65.4406 72.2064 65.4696 73.1371C65.5064 74.3114 65.566 74.6141 65.7882 74.754C65.987 74.8792 66.1361 74.8792 66.3349 74.754C66.557 74.6141 66.6167 74.3114 66.6534 73.1371C66.7003 71.6356 66.5806 71.2549 66.0615 71.2549C65.9108 71.2549 65.7057 71.3534 65.606 71.4736Z" fill="#333333"/>
</svg>
