<svg width="200" height="98" viewBox="0 0 200 98" fill="none" xmlns="http://www.w3.org/2000/svg">
<g style="mix-blend-mode:multiply" opacity="0.6">
<circle cx="120" cy="54" r="44" fill="#D08F8A"/>
</g>
<path d="M93.8362 26.3649C95.7038 23.8522 97.4718 21.4974 97.765 21.1321C98.115 20.6961 98.4225 20.4678 98.6596 20.4678C99.104 20.4678 99.4339 20.8373 99.3333 21.2224C99.2556 21.5197 91.7908 31.552 91.4907 31.7626C91.3977 31.8279 91.1458 31.8631 90.9308 31.8407C90.6323 31.8098 90.5283 31.6979 90.4902 31.3668C90.4494 31.0106 91.0465 30.1177 93.8362 26.3649Z" fill="#333333"/>
<path d="M103.995 45.9716C108.183 40.486 111.687 35.9462 111.781 35.883C112.215 35.5924 112.869 36.0006 112.788 36.5109C112.758 36.6974 109.287 41.3567 105.075 46.8647C97.723 56.4776 97.3971 56.8775 96.9468 56.8332C96.5681 56.796 96.4685 56.7062 96.4293 56.3662C96.3891 56.0186 97.7052 54.2104 103.995 45.9716Z" fill="#333333"/>
<path d="M107.828 47.221C107.32 46.9004 107.545 46.2854 108.734 44.748C109.799 43.3717 109.932 43.2541 110.376 43.2974C110.769 43.3357 110.867 43.4223 110.907 43.766C110.945 44.0943 110.691 44.5199 109.758 45.6916C108.499 47.2738 108.239 47.4798 107.828 47.221Z" fill="#333333"/>
<path d="M103.527 51.5275C104.868 49.7779 106.077 48.2585 106.214 48.151C106.351 48.0436 106.554 47.9556 106.664 47.9556C106.953 47.9556 107.391 48.6843 107.248 48.9257C106.836 49.6208 102.123 55.6043 101.929 55.6789C101.558 55.8215 101.089 55.4863 101.089 55.078C101.089 54.8412 101.965 53.5654 103.527 51.5275Z" fill="#333333"/>
<path d="M95.1211 20.3344C94.6128 20.0138 94.8382 19.3989 96.0274 17.8614C97.0921 16.4851 97.2251 16.3676 97.6687 16.4109C98.0623 16.4492 98.1603 16.5358 98.2 16.8795C98.238 17.2077 97.984 17.6334 97.0511 18.8051C95.7916 20.3872 95.5316 20.5933 95.1211 20.3344Z" fill="#333333"/>
<path fill-rule="evenodd" clip-rule="evenodd" d="M83.0641 0.210204C81.385 0.742596 80.1604 1.80347 79.4378 3.35172L79 4.28958V40.0064V75.7233L79.4377 76.6612C80.0073 77.8819 81.07 78.9499 82.2653 79.5023L83.2204 79.9437L100.17 79.9856C115.236 80.0226 117.213 79.9998 117.969 79.7803C119.57 79.3147 120.814 78.2304 121.547 76.6612L121.985 75.7233V40.0064V4.28958L121.547 3.35172C120.819 1.79253 119.585 0.710865 117.995 0.238652C117.256 0.0191928 115.262 -0.00769256 100.425 0.00152974C87.3638 0.00965786 83.5521 0.0554567 83.0641 0.210204ZM118.156 1.72282C119.1 2.1497 119.836 2.87513 120.284 3.82065L120.654 4.6022V40.0064V75.4107L120.284 76.1922C119.836 77.1377 119.1 77.8632 118.156 78.2901C117.462 78.6036 117.214 78.6082 100.493 78.6082C83.7715 78.6082 83.5231 78.6036 82.8296 78.2901C81.8853 77.8632 81.1496 77.1377 80.7017 76.1922L80.3318 75.4107V40.0064V4.6022L80.7017 3.82065C81.1496 2.87513 81.8853 2.1497 82.8296 1.72282C83.5231 1.40926 83.7715 1.40473 100.493 1.40473C117.214 1.40473 117.462 1.40926 118.156 1.72282ZM92.8996 5.06363C92.784 5.52381 93.0465 5.93084 93.4587 5.93084C93.8376 5.93084 94.118 5.55023 94.0569 5.11881C94.0175 4.84073 93.891 4.74742 93.5031 4.7099C93.0751 4.66848 92.9855 4.721 92.8996 5.06363ZM96.4247 4.91951C96.273 5.10224 96.2677 5.24949 96.4023 5.54475L96.5782 5.93084H100.493H104.407L104.583 5.54475C104.718 5.24949 104.712 5.10224 104.561 4.91951C104.264 4.56172 96.7217 4.56172 96.4247 4.91951ZM83.4861 9.55723C83.2132 9.83015 83.2132 68.307 83.4861 68.5799C83.7582 68.8521 117.227 68.8521 117.499 68.5799C117.772 68.307 117.772 9.83015 117.499 9.55723C117.227 9.2851 83.7582 9.2851 83.4861 9.55723ZM116.358 39.0686V67.4389H100.493H84.6272L84.587 39.2249C84.565 23.7072 84.5804 10.9226 84.6215 10.8147C84.6808 10.6589 87.9447 10.6269 100.527 10.6584L116.358 10.6983V39.0686ZM99.7101 70.4686C98.0651 71.0026 97.2101 72.1321 97.2101 73.7707C97.2101 75.0816 98.0312 76.2891 99.2762 76.8092C101.37 77.6839 103.775 76.0595 103.775 73.7707C103.775 72.8813 103.461 72.002 102.947 71.4507C102.204 70.6546 100.619 70.1735 99.7101 70.4686ZM101.557 72.0541C102.648 72.7193 102.775 74.1755 101.825 75.126C101.37 75.5809 101.205 75.6451 100.493 75.6451C99.7805 75.6451 99.6156 75.5809 99.1607 75.126C98.8631 74.8284 98.5975 74.3723 98.5385 74.0572C98.3196 72.8905 99.2905 71.7385 100.493 71.7385C100.794 71.7385 101.273 71.8806 101.557 72.0541Z" fill="#333333"/>
</svg>
