<svg width="32" height="32" viewBox="0 0 32 32" fill="none" xmlns="http://www.w3.org/2000/svg">
<g clip-path="url(#clip0_889_3356)">
<path d="M28.724 8.66367C29.3333 11.0397 29.3333 15.9997 29.3333 15.9997C29.3333 15.9997 29.3333 20.9597 28.724 23.3357C28.3853 24.649 27.3946 25.6823 26.14 26.0317C23.8613 26.6663 16 26.6663 16 26.6663C16 26.6663 8.14263 26.6663 5.85996 26.0317C4.59996 25.677 3.61063 24.645 3.27596 23.3357C2.66663 20.9597 2.66663 15.9997 2.66663 15.9997C2.66663 15.9997 2.66663 11.0397 3.27596 8.66367C3.61463 7.35034 4.60529 6.31701 5.85996 5.96767C8.14263 5.33301 16 5.33301 16 5.33301C16 5.33301 23.8613 5.33301 26.14 5.96767C27.4 6.32234 28.3893 7.35434 28.724 8.66367ZM13.3333 20.6663L21.3333 15.9997L13.3333 11.333V20.6663Z" fill="#D08F8A"/>
</g>
<defs>
<clipPath id="clip0_889_3356">
<rect width="32" height="32" fill="white"/>
</clipPath>
</defs>
</svg>
